<svg width="32" height="32" viewBox="0 0 32 32" fill="none" xmlns="http://www.w3.org/2000/svg">
<path d="M14.6901 10.3168L15.8825 10.6919L14.6901 10.3168ZM12.5705 13.8739L13.3208 12.8742L12.5705 13.8739ZM13.0709 15.4647L14.2633 15.8398L13.0709 15.4647ZM15.1905 17.0555L14.4401 16.0557L15.1905 17.0555ZM16.8097 17.0555L17.56 16.0557L16.8097 17.0555ZM18.9293 15.4647L17.7369 15.8398L18.9293 15.4647ZM19.4297 13.8739L18.6793 12.8742L19.4297 13.8739ZM17.3101 10.3168L18.5025 9.94175L17.3101 10.3168ZM7.14924 18.59L8.3088 18.1232L7.14924 18.59ZM12.2236 22.8891L11.7241 24.0349L12.2236 22.8891ZM8.57974 20.7742L9.47108 19.8978L8.57974 20.7742ZM24.8512 18.59L23.6916 18.1232L24.8512 18.59ZM19.7768 22.8891L20.2764 24.0349L19.7768 22.8891ZM23.4207 20.7742L24.3121 21.6506L23.4207 20.7742ZM25.0073 7.27355L23.8184 7.65982L25.0073 7.27355ZM20.727 2.99328L20.3407 4.1821L20.727 2.99328ZM6.99318 7.27355L8.182 7.65982L6.99318 7.27355ZM11.2734 2.99328L11.6597 4.1821L11.2734 2.99328ZM3.11027 15.4766L2.35096 16.4696L2.36871 16.4832L2.38693 16.4961L3.11027 15.4766ZM28.8904 15.4766L29.6137 16.4961L29.6319 16.4832L29.6497 16.4696L28.8904 15.4766ZM14.7502 29.3337C14.7502 30.024 15.3099 30.5837 16.0002 30.5837C16.6906 30.5837 17.2502 30.024 17.2502 29.3337H14.7502ZM21.3336 30.5837C22.0239 30.5837 22.5836 30.024 22.5836 29.3337C22.5836 28.6433 22.0239 28.0837 21.3336 28.0837V30.5837ZM10.6669 28.0837C9.97653 28.0837 9.41689 28.6433 9.41689 29.3337C9.41689 30.024 9.97653 30.5837 10.6669 30.5837V28.0837ZM6.98782 18.13L8.1849 17.7702L6.98782 18.13ZM25.1819 8.00033L23.9493 8.20798L25.1819 8.00033ZM25.6232 17.7948L24.8999 16.7754L25.6232 17.7948ZM6.3849 17.8001L5.66156 18.8196L6.3849 17.8001ZM13.3801 12.55C14.5449 12.55 15.5411 11.7774 15.8825 10.6919L13.4977 9.94175C13.4703 10.0287 13.4088 10.05 13.3801 10.05V12.55ZM13.3208 12.8742C13.2756 12.8402 13.2632 12.8124 13.2568 12.7899C13.2479 12.7583 13.246 12.7107 13.2625 12.6582C13.2791 12.6055 13.3052 12.576 13.3192 12.5648C13.3246 12.5604 13.3355 12.55 13.3801 12.55V10.05C10.7546 10.05 9.85262 13.397 11.8202 14.8737L13.3208 12.8742ZM14.2633 15.8398C14.6028 14.7603 14.2379 13.5624 13.3208 12.8742L11.8202 14.8737C11.8686 14.91 11.9077 14.9966 11.8785 15.0896L14.2633 15.8398ZM14.4401 16.0557C14.4141 16.0753 14.3984 16.0808 14.3942 16.0821C14.3896 16.0836 14.3871 16.0837 14.3847 16.0836C14.3784 16.0834 14.3539 16.08 14.3216 16.0557C14.2893 16.0315 14.2674 15.9998 14.2572 15.9704C14.2498 15.9489 14.2411 15.9102 14.2633 15.8398L11.8785 15.0896C11.4994 16.2947 11.9885 17.4305 12.8209 18.0552C13.6592 18.6843 14.9058 18.832 15.9408 18.0552L14.4401 16.0557ZM17.56 16.0557C16.6327 15.3597 15.3675 15.3597 14.4401 16.0557L15.9408 18.0552C15.9629 18.0386 15.983 18.0337 16.0001 18.0337C16.0172 18.0337 16.0373 18.0386 16.0594 18.0552L17.56 16.0557ZM17.7369 15.8398C17.759 15.9102 17.7504 15.9489 17.743 15.9704C17.7327 15.9998 17.7109 16.0315 17.6786 16.0557C17.6462 16.08 17.6217 16.0834 17.6155 16.0836C17.613 16.0837 17.6106 16.0836 17.606 16.0821C17.6017 16.0808 17.5861 16.0753 17.56 16.0557L16.0594 18.0552C17.0944 18.832 18.341 18.6843 19.1793 18.0552C20.0117 17.4305 20.5007 16.2947 20.1217 15.0896L17.7369 15.8398ZM18.6793 12.8742C17.7623 13.5624 17.3974 14.7603 17.7369 15.8398L20.1217 15.0896C20.0924 14.9966 20.1315 14.91 20.18 14.8737L18.6793 12.8742ZM18.62 12.55C18.6647 12.55 18.6755 12.5604 18.681 12.5648C18.695 12.576 18.7211 12.6055 18.7376 12.6582C18.7541 12.7107 18.7523 12.7583 18.7433 12.7899C18.737 12.8124 18.7246 12.8402 18.6793 12.8742L20.18 14.8737C22.1475 13.397 21.2456 10.05 18.62 10.05V12.55ZM16.1177 10.6919C16.4591 11.7774 17.4553 12.55 18.62 12.55V10.05C18.5914 10.05 18.5298 10.0287 18.5025 9.94175L16.1177 10.6919ZM18.5025 9.94175C17.7232 7.46429 14.277 7.46429 13.4977 9.94175L15.8825 10.6919C15.8947 10.6531 15.9078 10.632 15.9151 10.6218C15.9227 10.6114 15.9294 10.6055 15.935 10.6015C15.9472 10.593 15.9693 10.5837 16.0001 10.5837C16.0308 10.5837 16.053 10.593 16.0651 10.6015C16.0708 10.6055 16.0775 10.6114 16.085 10.6218C16.0924 10.632 16.1055 10.6531 16.1177 10.6919L18.5025 9.94175ZM24.0836 12.0003V13.7342H26.5836V12.0003H24.0836ZM7.91689 13.7342V12.0003H5.41689V13.7342H7.91689ZM19.2772 21.7433C18.5807 22.0469 17.9146 22.3053 17.3271 22.4858C16.7214 22.672 16.2779 22.7503 16.0002 22.7503V25.2503C16.6481 25.2503 17.3713 25.0877 18.0615 24.8755C18.7701 24.6578 19.5295 24.3605 20.2764 24.0349L19.2772 21.7433ZM16.0002 22.7503C15.7225 22.7503 15.2791 22.672 14.6733 22.4858C14.0858 22.3053 13.4198 22.0469 12.7232 21.7433L11.7241 24.0349C12.4709 24.3605 13.2303 24.6578 13.9389 24.8755C14.6292 25.0877 15.3523 25.2503 16.0002 25.2503V22.7503ZM12.7232 21.7433C10.8522 20.9275 10.1772 20.616 9.47108 19.8978L7.6884 21.6506C8.79335 22.7744 9.94391 23.2588 11.7241 24.0349L12.7232 21.7433ZM5.98968 19.0568C6.34264 19.9335 7.02579 20.9766 7.6884 21.6506L9.47108 19.8978C9.03953 19.4589 8.53868 18.6942 8.3088 18.1232L5.98968 19.0568ZM20.2764 24.0349C22.0565 23.2588 23.2071 22.7744 24.3121 21.6506L22.5294 19.8978C21.8233 20.616 21.1483 20.9275 19.2772 21.7433L20.2764 24.0349ZM23.6916 18.1232C23.4618 18.6942 22.9609 19.4589 22.5294 19.8978L24.3121 21.6506C24.9747 20.9766 25.6578 19.9335 26.0108 19.0568L23.6916 18.1232ZM16.0002 3.91699C18.5792 3.91699 19.5723 3.93241 20.3407 4.1821L21.1133 1.80446C19.8733 1.40157 18.3846 1.41699 16.0002 1.41699V3.91699ZM26.1961 6.88727C25.413 4.47714 23.5234 2.58756 21.1133 1.80446L20.3407 4.1821C21.9898 4.71791 23.2826 6.01078 23.8184 7.65982L26.1961 6.88727ZM16.0002 1.41699C13.6158 1.41699 12.1271 1.40157 10.8872 1.80446L11.6597 4.1821C12.4282 3.93241 13.4212 3.91699 16.0002 3.91699V1.41699ZM8.182 7.65982C8.71781 6.01078 10.0107 4.71791 11.6597 4.1821L10.8872 1.80446C8.47704 2.58756 6.58746 4.47714 5.80436 6.88727L8.182 7.65982ZM7.10824 16.7807L3.83361 14.4572L2.38693 16.4961L5.66156 18.8196L7.10824 16.7807ZM3.86958 14.4837C1.65406 12.7895 2.85218 9.25033 5.64125 9.25033V6.75033C0.461456 6.75033 -1.76365 13.3231 2.35096 16.4696L3.86958 14.4837ZM26.3465 18.8143L29.6137 16.4961L28.167 14.4572L24.8999 16.7754L26.3465 18.8143ZM29.6497 16.4696C33.7643 13.3231 31.5392 6.75033 26.3594 6.75033V9.25033C29.1485 9.25033 30.3466 12.7895 28.131 14.4837L29.6497 16.4696ZM14.7502 24.0003V29.3337H17.2502V24.0003H14.7502ZM21.3336 28.0837H10.6669V30.5837H21.3336V28.0837ZM7.91689 12.0003C7.91689 10.0278 7.92125 8.97899 8.05114 8.20798L5.58588 7.79267C5.41253 8.82166 5.41689 10.1284 5.41689 12.0003H7.91689ZM8.05114 8.20798C8.08651 7.99806 8.1299 7.82017 8.182 7.65982L5.80436 6.88727C5.70934 7.17971 5.63878 7.47867 5.58588 7.79267L8.05114 8.20798ZM5.41689 13.7342C5.41689 15.7905 5.40472 17.2059 5.79075 18.4899L8.1849 17.7702C7.92906 16.9192 7.91689 15.9354 7.91689 13.7342H5.41689ZM5.79075 18.4899C5.84835 18.6815 5.91436 18.8697 5.98968 19.0568L8.3088 18.1232C8.26161 18.0059 8.22066 17.8891 8.1849 17.7702L5.79075 18.4899ZM24.0836 13.7342C24.0836 15.9449 24.0712 16.9279 23.8124 17.7805L26.2047 18.5065C26.5959 17.2173 26.5836 15.799 26.5836 13.7342H24.0836ZM23.8124 17.7805C23.7774 17.8959 23.7375 18.0093 23.6916 18.1232L26.0108 19.0568C26.0839 18.8751 26.1483 18.6924 26.2047 18.5065L23.8124 17.7805ZM26.5836 12.0003C26.5836 10.1284 26.5879 8.82166 26.4146 7.79267L23.9493 8.20798C24.0792 8.97899 24.0836 10.0278 24.0836 12.0003H26.5836ZM26.4146 7.79267C26.3617 7.47867 26.2911 7.17971 26.1961 6.88727L23.8184 7.65982C23.8706 7.82017 23.9139 7.99806 23.9493 8.20798L26.4146 7.79267ZM24.8999 16.7754C24.776 16.8632 24.6436 16.9384 24.5046 16.9996L25.5125 19.2874C25.8058 19.1582 26.0852 18.9997 26.3465 18.8143L24.8999 16.7754ZM5.66156 18.8196C5.92824 19.0088 6.21606 19.1663 6.5192 19.2889L7.45644 16.9712C7.33337 16.9214 7.21651 16.8575 7.10824 16.7807L5.66156 18.8196ZM5.64125 9.25033H6.81851V6.75033H5.64125V9.25033ZM26.3594 6.75033H25.1819V9.25033H26.3594V6.75033Z" fill="#436CFF"/>
</svg>
