<svg width="32" height="32" viewBox="0 0 32 32" fill="none" xmlns="http://www.w3.org/2000/svg">
<path fill="#000" d="M16 2.66699C13.7703 2.66927 11.5768 3.23068 9.62017 4.29984C7.66354 5.369 6.00627 6.91177 4.80001 8.78699V8.78699C3.10343 11.4477 2.40553 14.624 2.83044 17.7508C3.25534 20.8777 4.7755 23.7526 7.12058 25.8641C9.46565 27.9756 12.4836 29.187 15.6378 29.2827C18.7919 29.3784 21.8778 28.3524 24.3467 26.387V26.387C26.4954 24.6575 28.0548 22.3041 28.8101 19.6512C29.5654 16.9983 29.4793 14.1765 28.5637 11.5746C27.6482 8.97263 25.9482 6.7187 23.698 5.12336C21.4479 3.52803 18.7583 2.66981 16 2.66699V2.66699ZM18.6667 5.68033C20.5091 6.15725 22.1904 7.11843 23.5362 8.46417C24.8819 9.80992 25.8431 11.4912 26.32 13.3337C24.0907 13.3964 21.9147 14.03 20 15.1737C19.0386 14.083 17.9661 13.0954 16.8 12.227C17.9749 10.2416 18.6178 7.98676 18.6667 5.68033V5.68033ZM16 5.33366C15.9956 7.24703 15.4701 9.12306 14.48 10.7603C14.28 10.6537 14.0933 10.5337 13.8933 10.4403C12.1765 9.53445 10.3407 8.87464 8.44001 8.48033C9.43073 7.48369 10.6086 6.69264 11.906 6.15263C13.2034 5.61262 14.5947 5.3343 16 5.33366V5.33366ZM6.66667 10.8803C8.7579 11.1708 10.7832 11.8204 12.6533 12.8003L12.8267 12.907C11.8426 13.8902 10.6741 14.6695 9.38824 15.2003C8.1024 15.7311 6.72444 16.003 5.33334 16.0003C5.34075 14.2088 5.7993 12.4479 6.66667 10.8803V10.8803ZM13.3333 26.3203C11.4909 25.8434 9.8096 24.8822 8.46385 23.5365C7.11811 22.1907 6.15693 20.5094 5.68001 18.667C7.46088 18.6275 9.21532 18.2279 10.8377 17.4923C12.46 16.7568 13.9167 15.7004 15.12 14.387C16.0839 15.0995 16.9769 15.9032 17.7867 16.787C16.4365 17.9908 15.3454 19.4569 14.5798 21.0958C13.8142 22.7347 13.3901 24.5123 13.3333 26.3203V26.3203ZM16 26.667C16.0029 25.2022 16.3074 23.7536 16.8947 22.4117C17.4819 21.0697 18.3393 19.8631 19.4133 18.867C19.4933 18.9737 19.5733 19.067 19.64 19.1737C20.7573 20.8846 21.5861 22.7675 22.0933 24.747C20.3088 26 18.1805 26.6706 16 26.667ZM24.28 22.667C23.701 20.903 22.8942 19.2221 21.88 17.667L21.6 17.3337C23.1503 16.4712 24.8927 16.0127 26.6667 16.0003C26.6534 18.4295 25.8115 20.7814 24.28 22.667Z"/>
</svg>
