<svg width="32" height="32" viewBox="0 0 32 32" fill="none" xmlns="http://www.w3.org/2000/svg">
<rect width="32" height="32" rx="16" fill="#FFF5DE"/>
<path stroke="#FF6B00" stroke-width="2" stroke-linecap="round" stroke-linejoin="round" d="M20 13.333C20 12.2721 19.5786 11.2547 18.8284 10.5046C18.0783 9.75444 17.0609 9.33301 16 9.33301C14.9391 9.33301 13.9217 9.75444 13.1716 10.5046C12.4214 11.2547 12 12.2721 12 13.333C12 17.9997 10 19.333 10 19.333H22C22 19.333 20 17.9997 20 13.333Z"/>
<path stroke="#FF6B00" stroke-width="2" stroke-linecap="round" stroke-linejoin="round" d="M17.1533 22C17.0361 22.2021 16.8679 22.3698 16.6655 22.4864C16.4631 22.6029 16.2336 22.6643 16 22.6643C15.7664 22.6643 15.5369 22.6029 15.3345 22.4864C15.1321 22.3698 14.9639 22.2021 14.8467 22"/>
</svg>
