<svg width="16" height="16" viewBox="0 0 16 16" fill="none" xmlns="http://www.w3.org/2000/svg">
<path d="M8.00065 1.33398C6.68211 1.33398 5.39318 1.72498 4.29685 2.45752C3.20052 3.19006 2.34604 4.23125 1.84146 5.44943C1.33687 6.6676 1.20485 8.00805 1.46209 9.30125C1.71932 10.5945 2.35426 11.7823 3.28661 12.7147C4.21896 13.647 5.40685 14.282 6.70005 14.5392C7.99326 14.7965 9.3337 14.6644 10.5519 14.1598C11.7701 13.6553 12.8112 12.8008 13.5438 11.7045C14.2763 10.6081 14.6673 9.31919 14.6673 8.00065C14.6673 7.12517 14.4949 6.25827 14.1599 5.44943C13.8248 4.64059 13.3338 3.90566 12.7147 3.28661C12.0956 2.66755 11.3607 2.17649 10.5519 1.84145C9.74304 1.50642 8.87613 1.33398 8.00065 1.33398ZM8.00065 13.334C6.58617 13.334 5.22961 12.7721 4.22942 11.7719C3.22922 10.7717 2.66732 9.41514 2.66732 8.00065C2.66585 6.81621 3.06266 5.66568 3.79399 4.73398L11.2673 12.2073C10.3356 12.9386 9.18509 13.3355 8.00065 13.334ZM12.2073 11.2673L4.73399 3.79398C5.66568 3.06266 6.81622 2.66584 8.00065 2.66732C9.41514 2.66732 10.7717 3.22922 11.7719 4.22941C12.7721 5.22961 13.334 6.58616 13.334 8.00065C13.3355 9.18509 12.9386 10.3356 12.2073 11.2673Z" fill="#FF3F55"/>
</svg>
