<svg width="32" height="32" viewBox="0 0 32 32" fill="none" xmlns="http://www.w3.org/2000/svg">
<path d="M6.7481 28.0604L7.48283 27.0492L6.7481 28.0604ZM5.27322 26.5856L6.28449 25.8508L5.27322 26.5856ZM26.7268 26.5856L25.7155 25.8508L26.7268 26.5856ZM25.2519 28.0604L25.9866 29.0717L25.2519 28.0604ZM25.2519 6.60688L25.9866 5.59561L25.2519 6.60688ZM26.7268 8.08176L25.7155 8.81649V8.81649L26.7268 8.08176ZM6.7481 6.60688L7.48283 7.61815L6.7481 6.60688ZM5.27322 8.08176L6.28449 8.81649V8.81649L5.27322 8.08176ZM25.6238 21.4157L25.4282 20.1811L25.6238 21.4157ZM20.0821 26.9574L18.8475 26.7619L20.0821 26.9574ZM12 17.417C11.3096 17.417 10.75 17.9766 10.75 18.667C10.75 19.3573 11.3096 19.917 12 19.917V17.417ZM20 19.917C20.6904 19.917 21.25 19.3573 21.25 18.667C21.25 17.9766 20.6904 17.417 20 17.417V19.917ZM18.75 6.66699C18.75 7.35735 19.3096 7.91699 20 7.91699C20.6904 7.91699 21.25 7.35735 21.25 6.66699H18.75ZM21.25 2.66699C21.25 1.97664 20.6904 1.41699 20 1.41699C19.3096 1.41699 18.75 1.97664 18.75 2.66699H21.25ZM10.75 6.66699C10.75 7.35735 11.3096 7.91699 12 7.91699C12.6904 7.91699 13.25 7.35735 13.25 6.66699H10.75ZM13.25 2.66699C13.25 1.97664 12.6904 1.41699 12 1.41699C11.3096 1.41699 10.75 1.97664 10.75 2.66699H13.25ZM27.9614 21.3337L29.2107 21.3765L27.9614 21.3337ZM4.03857 13.3337L2.7893 13.2909L4.03857 13.3337ZM27.9614 13.3337L29.2107 13.2909L27.9614 13.3337ZM16 28.0837C13.4723 28.0837 11.677 28.0819 10.291 27.9318C8.92838 27.7841 8.11045 27.5052 7.48283 27.0492L6.01337 29.0717C7.13819 29.8889 8.44639 30.2466 10.0217 30.4172C11.5736 30.5854 13.528 30.5837 16 30.5837V28.0837ZM2.75 17.3337C2.75 19.8056 2.74828 21.76 2.91642 23.312C3.0871 24.8873 3.44472 26.1955 4.26195 27.3203L6.28449 25.8508C5.8285 25.2232 5.54951 24.4053 5.40188 23.0427C5.25172 21.6567 5.25 19.8613 5.25 17.3337H2.75ZM7.48283 27.0492C7.02298 26.7151 6.61859 26.3107 6.28449 25.8508L4.26195 27.3203C4.75025 27.9924 5.34128 28.5834 6.01337 29.0717L7.48283 27.0492ZM25.7155 25.8508C25.3814 26.3107 24.977 26.7151 24.5172 27.0492L25.9866 29.0717C26.6587 28.5834 27.2498 27.9924 27.7381 27.3203L25.7155 25.8508ZM24.5172 7.61815C24.977 7.95225 25.3814 8.35664 25.7155 8.81649L27.7381 7.34703C27.2498 6.67494 26.6587 6.0839 25.9866 5.59561L24.5172 7.61815ZM6.01337 5.59561C5.34128 6.0839 4.75025 6.67494 4.26195 7.34703L6.28449 8.81649C6.61859 8.35664 7.02298 7.95225 7.48283 7.61815L6.01337 5.59561ZM25.4282 20.1811C22.0407 20.7176 19.384 23.3744 18.8475 26.7619L21.3167 27.153C21.6838 24.8352 23.5016 23.0174 25.8193 22.6503L25.4282 20.1811ZM12 19.917H20V17.417H12V19.917ZM27.9614 20.0837C26.7942 20.0837 26.0623 20.0807 25.4282 20.1811L25.8193 22.6503C26.2109 22.5883 26.7026 22.5837 27.9614 22.5837L27.9614 20.0837ZM26.75 17.3337C26.75 18.8991 26.7498 20.191 26.7122 21.2909L29.2107 21.3765C29.2502 20.2247 29.25 18.8853 29.25 17.3337H26.75ZM26.7122 21.2909C26.6275 23.761 26.3508 24.9764 25.7155 25.8508L27.7381 27.3203C28.8554 25.7824 29.125 23.8775 29.2107 21.3765L26.7122 21.2909ZM21.25 29.2951C21.25 28.0363 21.2547 27.5445 21.3167 27.153L18.8475 26.7619C18.747 27.3959 18.75 28.1279 18.75 29.2951L21.25 29.2951ZM16 30.5837C17.5517 30.5837 18.891 30.5838 20.0428 30.5443L19.9572 28.0458C18.8574 28.0835 17.5655 28.0837 16 28.0837V30.5837ZM20.0428 30.5443C22.5438 30.4587 24.4487 30.1891 25.9866 29.0717L24.5172 27.0492C23.6428 27.6844 22.4273 27.9612 19.9572 28.0458L20.0428 30.5443ZM5.25 17.3337C5.25 15.7682 5.25016 14.4763 5.28784 13.3765L2.7893 13.2909C2.74984 14.4426 2.75 15.782 2.75 17.3337H5.25ZM5.28784 13.3765C5.37247 10.9063 5.64922 9.69087 6.28449 8.81649L4.26195 7.34703C3.1446 8.88492 2.87499 10.7898 2.7893 13.2909L5.28784 13.3765ZM4.03857 14.5837H27.9614V12.0837H4.03857V14.5837ZM29.25 17.3337C29.25 15.782 29.2502 14.4426 29.2107 13.2909L26.7122 13.3765C26.7498 14.4763 26.75 15.7682 26.75 17.3337H29.25ZM29.2107 13.2909C29.125 10.7898 28.8554 8.88492 27.7381 7.34703L25.7155 8.81649C26.3508 9.69087 26.6275 10.9063 26.7122 13.3765L29.2107 13.2909ZM21.25 6.66699V5.37223H18.75V6.66699H21.25ZM21.25 5.37223V2.66699H18.75V5.37223H21.25ZM16 6.58366C17.5655 6.58366 18.8574 6.58382 19.9572 6.6215L20.0428 4.12296C18.891 4.0835 17.5517 4.08366 16 4.08366V6.58366ZM19.9572 6.6215C22.4273 6.70613 23.6428 6.98288 24.5172 7.61815L25.9866 5.59561C24.4487 4.47826 22.5438 4.20865 20.0428 4.12296L19.9572 6.6215ZM13.25 6.66699V5.37223H10.75V6.66699H13.25ZM13.25 5.37223V2.66699H10.75V5.37223H13.25ZM16 4.08366C14.4483 4.08366 13.109 4.0835 11.9572 4.12296L12.0428 6.6215C13.1426 6.58382 14.4345 6.58366 16 6.58366V4.08366ZM11.9572 4.12296C9.45619 4.20865 7.55127 4.47826 6.01337 5.59561L7.48283 7.61815C8.35721 6.98288 9.57265 6.70613 12.0428 6.6215L11.9572 4.12296Z" fill="#436CFF"/>
</svg>
