<svg width="36" height="36" viewBox="0 0 36 36" fill="none" xmlns="http://www.w3.org/2000/svg">
<rect width="36" height="36" rx="13" fill="#F1F1F1"/>
<path d="M13 21H16C16.2652 21 16.5196 20.8946 16.7071 20.7071C16.8946 20.5196 17 20.2652 17 20C17 19.7348 16.8946 19.4804 16.7071 19.2929C16.5196 19.1054 16.2652 19 16 19H13C12.7348 19 12.4804 19.1054 12.2929 19.2929C12.1054 19.4804 12 19.7348 12 20C12 20.2652 12.1054 20.5196 12.2929 20.7071C12.4804 20.8946 12.7348 21 13 21ZM25 11H11C10.2044 11 9.44129 11.3161 8.87868 11.8787C8.31607 12.4413 8 13.2044 8 14V23C8 23.7956 8.31607 24.5587 8.87868 25.1213C9.44129 25.6839 10.2044 26 11 26H25C25.7956 26 26.5587 25.6839 27.1213 25.1213C27.6839 24.5587 28 23.7956 28 23V14C28 13.2044 27.6839 12.4413 27.1213 11.8787C26.5587 11.3161 25.7956 11 25 11ZM26 23C26 23.2652 25.8946 23.5196 25.7071 23.7071C25.5196 23.8946 25.2652 24 25 24H11C10.7348 24 10.4804 23.8946 10.2929 23.7071C10.1054 23.5196 10 23.2652 10 23V17H26V23ZM26 15H10V14C10 13.7348 10.1054 13.4804 10.2929 13.2929C10.4804 13.1054 10.7348 13 11 13H25C25.2652 13 25.5196 13.1054 25.7071 13.2929C25.8946 13.4804 26 13.7348 26 14V15Z" fill="#95A1B5"/>
</svg>
