<svg width="48" height="48" viewBox="0 0 48 48" fill="none" xmlns="http://www.w3.org/2000/svg">
<rect width="48" height="48" rx="24" fill="#DEFFED"/>
<path d="M27.536 19.827L21.959 25.417L19.814 23.272C19.6975 23.1359 19.554 23.0254 19.3928 22.9474C19.2315 22.8693 19.0558 22.8255 18.8768 22.8186C18.6977 22.8116 18.5192 22.8418 18.3524 22.9072C18.1856 22.9725 18.034 23.0717 17.9074 23.1984C17.7807 23.325 17.6815 23.4766 17.6162 23.6434C17.5508 23.8102 17.5207 23.9887 17.5276 24.1678C17.5345 24.3468 17.5783 24.5225 17.6564 24.6838C17.7344 24.845 17.8449 24.9885 17.981 25.105L21.036 28.173C21.1575 28.2935 21.3015 28.3888 21.4599 28.4535C21.6183 28.5182 21.7879 28.551 21.959 28.55C22.3 28.5486 22.6269 28.4132 22.869 28.173L29.369 21.673C29.4908 21.5521 29.5876 21.4084 29.6536 21.2499C29.7196 21.0915 29.7535 20.9216 29.7535 20.75C29.7535 20.5784 29.7196 20.4085 29.6536 20.25C29.5876 20.0916 29.4908 19.9479 29.369 19.827C29.1254 19.5849 28.7959 19.449 28.4525 19.449C28.1091 19.449 27.7796 19.5849 27.536 19.827ZM24 11C21.4288 11 18.9154 11.7624 16.7776 13.1909C14.6398 14.6194 12.9735 16.6497 11.9896 19.0251C11.0056 21.4006 10.7482 24.0144 11.2498 26.5362C11.7514 29.0579 12.9895 31.3743 14.8076 33.1924C16.6257 35.0105 18.9421 36.2486 21.4638 36.7502C23.9856 37.2518 26.5994 36.9944 28.9749 36.0104C31.3503 35.0265 33.3806 33.3602 34.8091 31.2224C36.2376 29.0846 37 26.5712 37 24C37 22.2928 36.6637 20.6023 36.0104 19.0251C35.3571 17.4479 34.3995 16.0148 33.1924 14.8076C31.9852 13.6004 30.5521 12.6429 28.9749 11.9896C27.3977 11.3363 25.7072 11 24 11ZM24 34.4C21.9431 34.4 19.9323 33.79 18.2221 32.6473C16.5118 31.5045 15.1788 29.8803 14.3917 27.9799C13.6045 26.0796 13.3986 23.9885 13.7998 21.9711C14.2011 19.9537 15.1916 18.1006 16.6461 16.6461C18.1006 15.1916 19.9537 14.2011 21.9711 13.7998C23.9885 13.3985 26.0796 13.6045 27.9799 14.3917C29.8803 15.1788 31.5045 16.5118 32.6473 18.2221C33.7901 19.9323 34.4 21.9431 34.4 24C34.4 26.7582 33.3043 29.4035 31.3539 31.3539C29.4035 33.3043 26.7583 34.4 24 34.4Z" fill="#00BC54"/>
</svg>
