<svg width="32" height="32" viewBox="0 0 32 32" fill="none" xmlns="http://www.w3.org/2000/svg">
<path d="M16.4002 16.2937C17.1116 15.6778 17.6822 14.9162 18.0733 14.0604C18.4644 13.2045 18.6668 12.2746 18.6668 11.3337C18.6668 9.56555 17.9645 7.86986 16.7142 6.61961C15.464 5.36937 13.7683 4.66699 12.0002 4.66699C10.2321 4.66699 8.53636 5.36937 7.28612 6.61961C6.03588 7.86986 5.3335 9.56555 5.3335 11.3337C5.33349 12.2746 5.5359 13.2045 5.927 14.0604C6.3181 14.9162 6.88873 15.6778 7.60016 16.2937C5.73368 17.1388 4.15012 18.5037 3.0388 20.2251C1.92749 21.9464 1.33546 23.9514 1.3335 26.0003C1.3335 26.3539 1.47397 26.6931 1.72402 26.9431C1.97407 27.1932 2.31321 27.3337 2.66683 27.3337C3.02045 27.3337 3.35959 27.1932 3.60964 26.9431C3.85969 26.6931 4.00016 26.3539 4.00016 26.0003C4.00016 23.8786 4.84302 21.8438 6.34331 20.3435C7.8436 18.8432 9.87843 18.0003 12.0002 18.0003C14.1219 18.0003 16.1567 18.8432 17.657 20.3435C19.1573 21.8438 20.0002 23.8786 20.0002 26.0003C20.0002 26.3539 20.1406 26.6931 20.3907 26.9431C20.6407 27.1932 20.9799 27.3337 21.3335 27.3337C21.6871 27.3337 22.0263 27.1932 22.2763 26.9431C22.5264 26.6931 22.6668 26.3539 22.6668 26.0003C22.6649 23.9514 22.0728 21.9464 20.9615 20.2251C19.8502 18.5037 18.2666 17.1388 16.4002 16.2937V16.2937ZM12.0002 15.3337C11.209 15.3337 10.4357 15.0991 9.77788 14.6595C9.12009 14.22 8.6074 13.5953 8.30465 12.8644C8.00189 12.1335 7.92268 11.3292 8.07702 10.5533C8.23136 9.77737 8.61233 9.06464 9.17174 8.50523C9.73115 7.94582 10.4439 7.56486 11.2198 7.41052C11.9957 7.25618 12.8 7.33539 13.5309 7.63814C14.2618 7.94089 14.8865 8.45358 15.326 9.11138C15.7656 9.76917 16.0002 10.5425 16.0002 11.3337C16.0002 12.3945 15.5787 13.4119 14.8286 14.1621C14.0784 14.9122 13.061 15.3337 12.0002 15.3337ZM24.9868 15.7603C25.8401 14.7994 26.3975 13.6124 26.5919 12.3421C26.7863 11.0718 26.6094 9.77242 26.0825 8.60033C25.5556 7.42823 24.7012 6.43339 23.6221 5.73556C22.543 5.03773 21.2852 4.66665 20.0002 4.66699C19.6465 4.66699 19.3074 4.80747 19.0574 5.05752C18.8073 5.30757 18.6668 5.6467 18.6668 6.00033C18.6668 6.35395 18.8073 6.69309 19.0574 6.94313C19.3074 7.19318 19.6465 7.33366 20.0002 7.33366C21.061 7.33366 22.0784 7.75509 22.8286 8.50523C23.5787 9.25538 24.0002 10.2728 24.0002 11.3337C23.9983 12.034 23.8126 12.7215 23.4616 13.3276C23.1106 13.9336 22.6067 14.4368 22.0002 14.787C21.8025 14.901 21.6374 15.0639 21.5206 15.26C21.4039 15.4561 21.3395 15.6789 21.3335 15.907C21.3279 16.1333 21.3801 16.3574 21.485 16.558C21.59 16.7586 21.7444 16.9292 21.9335 17.0537L22.4535 17.4003L22.6268 17.4937C24.234 18.2559 25.5899 19.4616 26.5348 20.9687C27.4797 22.4758 27.9742 24.2216 27.9602 26.0003C27.9602 26.3539 28.1006 26.6931 28.3507 26.9431C28.6007 27.1932 28.9399 27.3337 29.2935 27.3337C29.6471 27.3337 29.9863 27.1932 30.2363 26.9431C30.4864 26.6931 30.6268 26.3539 30.6268 26.0003C30.6377 23.9542 30.1253 21.9393 29.1381 20.1471C28.151 18.3548 26.722 16.8447 24.9868 15.7603V15.7603Z" fill="#436CFF"/>
</svg>
