<svg width="48" height="48" viewBox="0 0 48 48" fill="none" xmlns="http://www.w3.org/2000/svg">
<rect width="48" height="48" rx="24" fill="#FF3F55" fill-opacity="0.2"/>
<path d="M28 21.334C28 20.2731 27.5786 19.2557 26.8284 18.5056C26.0783 17.7554 25.0609 17.334 24 17.334C22.9391 17.334 21.9217 17.7554 21.1716 18.5056C20.4214 19.2557 20 20.2731 20 21.334C20 26.0007 18 27.334 18 27.334H30C30 27.334 28 26.0007 28 21.334Z" stroke="#FF3F55" stroke-width="2" stroke-linecap="round" stroke-linejoin="round"/>
<path d="M25.1543 30C25.0371 30.2021 24.8689 30.3698 24.6665 30.4864C24.4641 30.6029 24.2346 30.6643 24.001 30.6643C23.7674 30.6643 23.5379 30.6029 23.3355 30.4864C23.1331 30.3698 22.9649 30.2021 22.8477 30" stroke="#FF3F55" stroke-width="2" stroke-linecap="round" stroke-linejoin="round"/>
</svg>
