<svg width="48" height="48" viewBox="0 0 48 48" fill="none" xmlns="http://www.w3.org/2000/svg">
<rect width="48" height="48" rx="24" fill="#FFF5DE"/>
<path d="M28.7645 19.2355C28.6451 19.1152 28.503 19.0196 28.3465 18.9544C28.19 18.8892 28.0222 18.8557 27.8527 18.8557C27.6831 18.8557 27.5153 18.8892 27.3588 18.9544C27.2023 19.0196 27.0602 19.1152 26.9409 19.2355L24 22.1892L21.0591 19.2355C20.8173 18.9937 20.4893 18.8579 20.1473 18.8579C19.8054 18.8579 19.4774 18.9937 19.2355 19.2355C18.9937 19.4774 18.8579 19.8054 18.8579 20.1473C18.8579 20.4893 18.9937 20.8173 19.2355 21.0591L22.1892 24L19.2355 26.9409C19.1152 27.0602 19.0196 27.2023 18.9544 27.3588C18.8892 27.5153 18.8557 27.6831 18.8557 27.8527C18.8557 28.0222 18.8892 28.19 18.9544 28.3465C19.0196 28.503 19.1152 28.6451 19.2355 28.7645C19.3549 28.8848 19.497 28.9804 19.6535 29.0456C19.81 29.1108 19.9778 29.1443 20.1473 29.1443C20.3169 29.1443 20.4847 29.1108 20.6412 29.0456C20.7977 28.9804 20.9398 28.8848 21.0591 28.7645L24 25.8107L26.9409 28.7645C27.0602 28.8848 27.2023 28.9804 27.3588 29.0456C27.5153 29.1108 27.6831 29.1443 27.8527 29.1443C28.0222 29.1443 28.19 29.1108 28.3465 29.0456C28.503 28.9804 28.6451 28.8848 28.7645 28.7645C28.8848 28.6451 28.9804 28.503 29.0456 28.3465C29.1108 28.19 29.1443 28.0222 29.1443 27.8527C29.1443 27.6831 29.1108 27.5153 29.0456 27.3588C28.9804 27.2023 28.8848 27.0602 28.7645 26.9409L25.8107 24L28.7645 21.0591C28.8848 20.9398 28.9804 20.7977 29.0456 20.6412C29.1108 20.4847 29.1443 20.3169 29.1443 20.1473C29.1443 19.9778 29.1108 19.81 29.0456 19.6535C28.9804 19.497 28.8848 19.3549 28.7645 19.2355ZM33.0794 14.9206C31.8948 13.694 30.4777 12.7157 28.9109 12.0426C27.3441 11.3696 25.659 11.0153 23.9538 11.0005C22.2486 10.9857 20.5576 11.3106 18.9793 11.9563C17.401 12.602 15.9672 13.5556 14.7614 14.7614C13.5556 15.9672 12.602 17.401 11.9563 18.9793C11.3106 20.5576 10.9857 22.2486 11.0005 23.9538C11.0153 25.659 11.3696 27.3441 12.0426 28.9109C12.7157 30.4777 13.694 31.8948 14.9206 33.0794C16.1052 34.306 17.5223 35.2843 19.0891 35.9574C20.6559 36.6304 22.341 36.9847 24.0462 36.9995C25.7514 37.0143 27.4424 36.6894 29.0207 36.0437C30.599 35.398 32.0328 34.4444 33.2386 33.2386C34.4444 32.0328 35.398 30.599 36.0437 29.0207C36.6894 27.4424 37.0143 25.7514 36.9995 24.0462C36.9847 22.341 36.6304 20.6559 35.9574 19.0891C35.2843 17.5223 34.306 16.1052 33.0794 14.9206ZM31.2687 31.2687C29.589 32.9503 27.3782 33.9974 25.013 34.2318C22.6478 34.4661 20.2745 33.8731 18.2975 32.5539C16.3204 31.2346 14.862 29.2707 14.1706 26.9967C13.4791 24.7227 13.5976 22.2793 14.5057 20.0829C15.4137 17.8864 17.0553 16.0727 19.1506 14.9508C21.246 13.829 23.6655 13.4683 25.997 13.9303C28.3284 14.3923 30.4276 15.6483 31.9368 17.4845C33.446 19.3206 34.2719 21.6232 34.2738 24C34.2783 25.3501 34.0151 26.6877 33.4993 27.9353C32.9835 29.183 32.2253 30.316 31.2687 31.2687Z" fill="#FF6B00"/>
</svg>
