<svg width="16" height="17" viewBox="0 0 16 17" fill="none" xmlns="http://www.w3.org/2000/svg">
<path d="M8 1.83301C6.88516 1.83415 5.7884 2.11485 4.81008 2.64943C3.83177 3.18401 3.00313 3.9554 2.4 4.89301V4.89301C1.55171 6.22338 1.20277 7.81149 1.41522 9.37493C1.62767 10.9384 2.38775 12.3758 3.56029 13.4316C4.73282 14.4873 6.24181 15.093 7.81889 15.1409C9.39597 15.1887 10.9389 14.6757 12.1733 13.693V13.693C13.2477 12.8282 14.0274 11.6516 14.4051 10.3251C14.7827 8.99867 14.7397 7.58775 14.2819 6.28679C13.8241 4.98583 12.9741 3.85886 11.849 3.06119C10.7239 2.26352 9.37916 1.83442 8 1.83301V1.83301ZM9.33334 3.33967C10.2546 3.57814 11.0952 4.05873 11.7681 4.7316C12.441 5.40447 12.9215 6.24512 13.16 7.16634C12.0453 7.19773 10.9573 7.51449 10 8.08634C9.51928 7.541 8.98306 7.04722 8.4 6.61301C8.98743 5.62031 9.30889 4.49289 9.33334 3.33967V3.33967ZM8 3.16634C7.99781 4.12303 7.73507 5.06104 7.24 5.87967C7.14 5.82634 7.04667 5.76634 6.94667 5.71967C6.08825 5.26673 5.17036 4.93683 4.22 4.73967C4.71537 4.24135 5.30432 3.84583 5.95301 3.57583C6.60171 3.30582 7.29736 3.16666 8 3.16634V3.16634ZM3.33334 5.93967C4.37895 6.08493 5.39161 6.4097 6.32667 6.89967L6.41334 6.95301C5.92128 7.44461 5.33705 7.83427 4.69412 8.09968C4.0512 8.36509 3.36222 8.50101 2.66667 8.49967C2.67038 7.6039 2.89965 6.72348 3.33334 5.93967V5.93967ZM6.66667 13.6597C5.74545 13.4212 4.9048 12.9406 4.23193 12.2678C3.55905 11.5949 3.07846 10.7542 2.84 9.83301C3.73044 9.81324 4.60766 9.61345 5.41884 9.24567C6.23001 8.87789 6.95836 8.34973 7.56 7.69301C8.04194 8.04927 8.48845 8.45113 8.89334 8.89301C8.21825 9.49494 7.67271 10.2279 7.28991 11.0474C6.90711 11.8669 6.69506 12.7557 6.66667 13.6597V13.6597ZM8 13.833C8.00144 13.1006 8.15372 12.3763 8.44735 11.7053C8.74097 11.0344 9.16965 10.431 9.70667 9.93301C9.74667 9.98634 9.78667 10.033 9.82 10.0863C10.3787 10.9418 10.7931 11.8832 11.0467 12.873C10.1544 13.4995 9.09025 13.8348 8 13.833ZM12.14 11.833C11.8505 10.951 11.4471 10.1106 10.94 9.33301L10.8 9.16634C11.5751 8.73511 12.4463 8.50585 13.3333 8.49967C13.3267 9.71425 12.9057 10.8902 12.14 11.833Z" fill="#95A1B5"/>
</svg>
