<svg width="32" height="32" viewBox="0 0 32 32" fill="none" xmlns="http://www.w3.org/2000/svg">
<path d="M24.6444 24.6656L23.6051 23.9711L24.6444 24.6656ZM7.99991 8.02109L7.30545 6.98176L7.99991 8.02109ZM12.0219 6.29381L11.7464 5.07455L12.0219 6.29381ZM26.3717 20.6435L25.1524 20.368L26.3717 20.6435ZM23.259 2.91217L22.7806 4.06702L23.259 2.91217ZM29.7533 9.40653L30.9082 8.92817L29.7533 9.40653ZM25.9544 13.9987V15.2487V13.9987ZM24.6668 13.9987V12.7487V13.9987ZM18.6668 7.99873H17.4168H18.6668ZM18.6668 6.71109H19.9168H18.6668ZM25.1524 20.368C24.8633 21.6473 24.3411 22.8695 23.6051 23.9711L25.6837 25.36C26.591 24.0022 27.2347 22.4957 27.5909 20.919L25.1524 20.368ZM23.6051 23.9711C22.4238 25.7389 20.7449 27.1168 18.7806 27.9304L19.7373 30.2401C22.1584 29.2373 24.2278 27.539 25.6837 25.36L23.6051 23.9711ZM18.7806 27.9304C16.8163 28.7441 14.6548 28.957 12.5695 28.5422L12.0818 30.9941C14.6521 31.5054 17.3162 31.243 19.7373 30.2401L18.7806 27.9304ZM12.5695 28.5422C10.4842 28.1274 8.56877 27.1035 7.06536 25.6001L5.29759 27.3679C7.15063 29.2209 9.51156 30.4829 12.0818 30.9941L12.5695 28.5422ZM7.06536 25.6001C5.56194 24.0967 4.5381 22.1812 4.12331 20.0959L1.67135 20.5837C2.1826 23.1539 3.44454 25.5148 5.29759 27.3679L7.06536 25.6001ZM4.12331 20.0959C3.70852 18.0107 3.92141 15.8492 4.73505 13.8849L2.42535 12.9282C1.42249 15.3493 1.16009 18.0134 1.67135 20.5837L4.12331 20.0959ZM4.73505 13.8849C5.54869 11.9206 6.92655 10.2417 8.69437 9.06043L7.30545 6.98176C5.1265 8.43769 3.42821 10.5071 2.42535 12.9282L4.73505 13.8849ZM8.69437 9.06043C9.79599 8.32435 11.0182 7.80214 12.2975 7.51307L11.7464 5.07455C10.1697 5.43083 8.66327 6.07449 7.30545 6.98176L8.69437 9.06043ZM13.4168 8.6654V11.3321H15.9168V8.6654H13.4168ZM21.3334 19.2487H24.0001V16.7487H21.3334V19.2487ZM13.4168 11.3321C13.4168 15.7043 16.9612 19.2487 21.3334 19.2487V16.7487C18.3419 16.7487 15.9168 14.3236 15.9168 11.3321H13.4168ZM12.2975 7.51307C12.5765 7.45002 12.8232 7.52636 13.0303 7.71955C13.2517 7.92613 13.4168 8.2661 13.4168 8.6654H15.9168C15.9168 6.60133 14.1576 4.52971 11.7464 5.07455L12.2975 7.51307ZM27.5909 20.919C28.1358 18.5078 26.0642 16.7487 24.0001 16.7487V19.2487C24.3994 19.2487 24.7394 19.4138 24.9459 19.6352C25.1391 19.8422 25.2155 20.089 25.1524 20.368L27.5909 20.919ZM22.7806 4.06702C24.0849 4.60726 25.2699 5.3991 26.2682 6.39733L28.0359 4.62956C26.8055 3.39919 25.3449 2.4232 23.7373 1.75732L22.7806 4.06702ZM26.2682 6.39733C27.2664 7.39556 28.0582 8.58063 28.5985 9.88488L30.9082 8.92817C30.2423 7.32061 29.2663 5.85994 28.0359 4.62956L26.2682 6.39733ZM25.9544 12.7487H24.6668V15.2487H25.9544V12.7487ZM19.9168 7.99873V6.71109H17.4168V7.99873H19.9168ZM28.5985 9.88488C28.8935 10.5971 28.7357 11.2457 28.2666 11.7766C27.7693 12.3394 26.9195 12.7487 25.9544 12.7487V15.2487C27.5918 15.2487 29.1395 14.5642 30.14 13.432C31.1687 12.2679 31.6091 10.6204 30.9082 8.92817L28.5985 9.88488ZM24.6668 12.7487C22.0434 12.7487 19.9168 10.6221 19.9168 7.99873H17.4168C17.4168 12.0028 20.6627 15.2487 24.6668 15.2487V12.7487ZM23.7373 1.75732C22.0451 1.05638 20.3976 1.4968 19.2335 2.5255C18.1013 3.52597 17.4168 5.07366 17.4168 6.71109L19.9168 6.71109C19.9168 5.74595 20.3261 4.8962 20.8889 4.39887C21.4198 3.92976 22.0684 3.77201 22.7806 4.06702L23.7373 1.75732Z" fill="#436CFF"/>
</svg>
