<svg width="28" height="28" viewBox="0 0 28 28" fill="none" xmlns="http://www.w3.org/2000/svg">
<rect width="28" height="28" rx="14" fill="#CFE8FF"/>
<path d="M17.5602 9.64016C17.4019 9.64016 17.2473 9.68708 17.1157 9.77499C16.9841 9.86289 16.8816 9.98784 16.8211 10.134C16.7605 10.2802 16.7447 10.4411 16.7755 10.5962C16.8064 10.7514 16.8826 10.894 16.9945 11.0058C17.1064 11.1177 17.2489 11.1939 17.4041 11.2248C17.5593 11.2557 17.7201 11.2398 17.8663 11.1793C18.0125 11.1187 18.1374 11.0162 18.2253 10.8846C18.3132 10.7531 18.3602 10.5984 18.3602 10.4402C18.3602 10.228 18.2759 10.0245 18.1258 9.87448C17.9758 9.72445 17.7723 9.64016 17.5602 9.64016ZM20.6268 11.2535C20.6139 10.7004 20.5103 10.1531 20.3202 9.6335C20.1507 9.18892 19.8868 8.78635 19.5468 8.4535C19.2167 8.11178 18.8132 7.84961 18.3668 7.68683C17.8486 7.49094 17.3007 7.38497 16.7468 7.3735C16.0402 7.3335 15.8135 7.3335 14.0002 7.3335C12.1868 7.3335 11.9602 7.3335 11.2535 7.3735C10.6996 7.38497 10.1517 7.49094 9.6335 7.68683C9.18795 7.85126 8.78479 8.1132 8.4535 8.4535C8.11178 8.78361 7.84961 9.18712 7.68683 9.6335C7.49094 10.1517 7.38497 10.6996 7.3735 11.2535C7.3335 11.9602 7.3335 12.1868 7.3335 14.0002C7.3335 15.8135 7.3335 16.0402 7.3735 16.7468C7.38497 17.3007 7.49094 17.8486 7.68683 18.3668C7.84961 18.8132 8.11178 19.2167 8.4535 19.5468C8.78479 19.8871 9.18795 20.1491 9.6335 20.3135C10.1517 20.5094 10.6996 20.6154 11.2535 20.6268C11.9602 20.6668 12.1868 20.6668 14.0002 20.6668C15.8135 20.6668 16.0402 20.6668 16.7468 20.6268C17.3007 20.6154 17.8486 20.5094 18.3668 20.3135C18.8132 20.1507 19.2167 19.8885 19.5468 19.5468C19.8883 19.2152 20.1524 18.8123 20.3202 18.3668C20.5103 17.8472 20.6139 17.3 20.6268 16.7468C20.6268 16.0402 20.6668 15.8135 20.6668 14.0002C20.6668 12.1868 20.6668 11.9602 20.6268 11.2535ZM19.4268 16.6668C19.422 17.09 19.3453 17.5093 19.2002 17.9068C19.0937 18.197 18.9227 18.4591 18.7002 18.6735C18.4839 18.8938 18.2223 19.0645 17.9335 19.1735C17.536 19.3187 17.1167 19.3953 16.6935 19.4002C16.0268 19.4335 15.7802 19.4402 14.0268 19.4402C12.2735 19.4402 12.0268 19.4402 11.3602 19.4002C10.9208 19.4084 10.4832 19.3407 10.0668 19.2002C9.79068 19.0855 9.54107 18.9154 9.3335 18.7002C9.11222 18.486 8.94339 18.2236 8.84016 17.9335C8.6774 17.5303 8.58713 17.1015 8.5735 16.6668C8.5735 16.0002 8.5335 15.7535 8.5335 14.0002C8.5335 12.2468 8.5335 12.0002 8.5735 11.3335C8.57648 10.9009 8.65546 10.4721 8.80683 10.0668C8.92419 9.78544 9.10434 9.5346 9.3335 9.3335C9.53604 9.10427 9.78635 8.92223 10.0668 8.80016C10.4732 8.65353 10.9015 8.57688 11.3335 8.5735C12.0002 8.5735 12.2468 8.5335 14.0002 8.5335C15.7535 8.5335 16.0002 8.5335 16.6668 8.5735C17.09 8.57835 17.5093 8.65499 17.9068 8.80016C18.2098 8.9126 18.4817 9.09539 18.7002 9.3335C18.9186 9.53828 19.0893 9.78865 19.2002 10.0668C19.3483 10.4728 19.425 10.9013 19.4268 11.3335C19.4602 12.0002 19.4668 12.2468 19.4668 14.0002C19.4668 15.7535 19.4602 16.0002 19.4268 16.6668ZM14.0002 10.5802C13.324 10.5815 12.6635 10.7832 12.1019 11.1598C11.5404 11.5364 11.1031 12.071 10.8453 12.696C10.5874 13.321 10.5206 14.0085 10.6534 14.6714C10.7861 15.3344 11.1123 15.9432 11.5909 16.4208C12.0694 16.8984 12.6788 17.2235 13.3421 17.3549C14.0053 17.4864 14.6926 17.4182 15.3171 17.1592C15.9417 16.9001 16.4754 16.4618 16.8509 15.8995C17.2264 15.3372 17.4268 14.6763 17.4268 14.0002C17.4277 13.5502 17.3396 13.1046 17.1677 12.6888C16.9957 12.273 16.7432 11.8954 16.4247 11.5775C16.1063 11.2597 15.7281 11.0079 15.312 10.8368C14.8959 10.6656 14.4501 10.5784 14.0002 10.5802ZM14.0002 16.2202C13.5611 16.2202 13.1319 16.09 12.7668 15.846C12.4017 15.6021 12.1172 15.2554 11.9492 14.8497C11.7811 14.4441 11.7372 13.9977 11.8228 13.5671C11.9085 13.1364 12.1199 12.7409 12.4304 12.4304C12.7409 12.1199 13.1364 11.9085 13.5671 11.8228C13.9977 11.7372 14.4441 11.7811 14.8497 11.9492C15.2554 12.1172 15.6021 12.4017 15.846 12.7668C16.09 13.1319 16.2202 13.5611 16.2202 14.0002C16.2202 14.2917 16.1627 14.5804 16.0512 14.8497C15.9396 15.1191 15.7761 15.3638 15.5699 15.5699C15.3638 15.7761 15.1191 15.9396 14.8497 16.0512C14.5804 16.1627 14.2917 16.2202 14.0002 16.2202Z" fill="#436CFF"/>
</svg>
