<svg width="32" height="32" viewBox="0 0 32 32" fill="none" xmlns="http://www.w3.org/2000/svg">
<path d="M3.31899 18.6665C3.36626 20.404 3.52176 21.5299 4.03332 22.5271C4.13398 22.7233 4.24431 22.9144 4.36391 23.0997C5.23718 24.4525 6.70786 25.3016 9.6492 26.9998C11.2121 27.9021 12.3598 28.5648 13.3335 28.9996M28.6811 18.6665C28.6339 20.404 28.4784 21.5299 27.9668 22.5271C27.8661 22.7233 27.7558 22.9144 27.6362 23.0997C26.7629 24.4525 25.2923 25.3016 22.3509 26.9998C20.7881 27.9021 19.6403 28.5648 18.6666 28.9996M28.6811 13.3332C28.6339 11.5956 28.4784 10.4698 27.9668 9.47254C27.8661 9.27633 27.7558 9.08523 27.6362 8.89995C26.7629 7.54709 25.2923 6.698 22.3509 4.99981C20.788 4.09747 19.6403 3.43486 18.6666 3M3.31899 13.3332C3.36625 11.5956 3.52175 10.4698 4.03332 9.47254C4.13398 9.27633 4.24431 9.08523 4.36391 8.89995C5.23718 7.54709 6.70786 6.698 9.6492 4.99981C11.2121 4.09747 12.3598 3.43486 13.3335 3M30.6666 18.6665H1.33325" stroke="#436CFF" stroke-width="2.5" stroke-linecap="round"/>
</svg>
