<svg width="36" height="36" viewBox="0 0 36 36" fill="none" xmlns="http://www.w3.org/2000/svg">
<rect width="36" height="36" rx="13" fill="#CFE8FF"/>
<path d="M16 14H22C22.2652 14 22.5196 13.8946 22.7071 13.7071C22.8946 13.5196 23 13.2652 23 13C23 12.7348 22.8946 12.4804 22.7071 12.2929C22.5196 12.1054 22.2652 12 22 12H16C15.7348 12 15.4804 12.1054 15.2929 12.2929C15.1054 12.4804 15 12.7348 15 13C15 13.2652 15.1054 13.5196 15.2929 13.7071C15.4804 13.8946 15.7348 14 16 14ZM14 18H22C22.2652 18 22.5196 17.8946 22.7071 17.7071C22.8946 17.5196 23 17.2652 23 17C23 16.7348 22.8946 16.4804 22.7071 16.2929C22.5196 16.1054 22.2652 16 22 16H14C13.7348 16 13.4804 16.1054 13.2929 16.2929C13.1054 16.4804 13 16.7348 13 17C13 17.2652 13.1054 17.5196 13.2929 17.7071C13.4804 17.8946 13.7348 18 14 18ZM14 22H22C22.2652 22 22.5196 21.8946 22.7071 21.7071C22.8946 21.5196 23 21.2652 23 21C23 20.7348 22.8946 20.4804 22.7071 20.2929C22.5196 20.1054 22.2652 20 22 20H14C13.7348 20 13.4804 20.1054 13.2929 20.2929C13.1054 20.4804 13 20.7348 13 21C13 21.2652 13.1054 21.5196 13.2929 21.7071C13.4804 21.8946 13.7348 22 14 22ZM26 8H10C9.73478 8 9.48043 8.10536 9.29289 8.29289C9.10536 8.48043 9 8.73478 9 9V27C9 27.1857 9.05171 27.3678 9.14935 27.5257C9.24698 27.6837 9.38668 27.8114 9.55279 27.8944C9.71889 27.9775 9.90484 28.0126 10.0898 27.996C10.2748 27.9793 10.4514 27.9114 10.6 27.8L12.67 26.25L14.73 27.8C14.9031 27.9298 15.1136 28 15.33 28C15.5464 28 15.7569 27.9298 15.93 27.8L18 26.25L20.07 27.8C20.2431 27.9298 20.4536 28 20.67 28C20.8864 28 21.0969 27.9298 21.27 27.8L23.33 26.25L25.4 27.8C25.5493 27.9113 25.7267 27.9786 25.9122 27.9945C26.0977 28.0104 26.284 27.9742 26.45 27.89C26.6149 27.8069 26.7536 27.6798 26.8507 27.5227C26.9478 27.3656 26.9994 27.1847 27 27V9C27 8.73478 26.8946 8.48043 26.7071 8.29289C26.5196 8.10536 26.2652 8 26 8ZM25 25L23.93 24.2C23.7569 24.0702 23.5464 24 23.33 24C23.1136 24 22.9031 24.0702 22.73 24.2L20.67 25.75L18.6 24.2C18.4269 24.0702 18.2164 24 18 24C17.7836 24 17.5731 24.0702 17.4 24.2L15.33 25.75L13.27 24.2C13.0969 24.0702 12.8864 24 12.67 24C12.4536 24 12.2431 24.0702 12.07 24.2L11 25V10H25V25Z" fill="#436CFF"/>
</svg>
