<svg width="32" height="32" viewBox="0 0 32 32" fill="none" xmlns="http://www.w3.org/2000/svg">
<path d="M19.476 26.7496L18.4924 25.9783L19.476 26.7496ZM12.524 26.7496L11.5404 27.521L12.524 26.7496ZM16 29.6309V28.3809V29.6309ZM24.75 14.1349C24.75 15.5817 23.987 17.5726 22.7327 19.7902C21.506 21.9589 19.9172 24.1614 18.4924 25.9783L20.4596 27.521C21.922 25.6561 23.5952 23.3433 24.9087 21.021C26.1946 18.7477 27.25 16.2721 27.25 14.1349H24.75ZM13.5076 25.9783C12.0828 24.1614 10.494 21.9589 9.26732 19.7902C8.01297 17.5726 7.25 15.5817 7.25 14.1349H4.75C4.75 16.2721 5.80544 18.7477 7.0913 21.021C8.40482 23.3433 10.078 25.6561 11.5404 27.521L13.5076 25.9783ZM7.25 14.1349C7.25 8.79428 11.2523 4.62402 16 4.62402V2.12402C9.70205 2.12402 4.75 7.58938 4.75 14.1349H7.25ZM16 4.62402C20.7477 4.62402 24.75 8.79428 24.75 14.1349H27.25C27.25 7.58938 22.2979 2.12402 16 2.12402V4.62402ZM18.4924 25.9783C17.7118 26.9736 17.2209 27.5929 16.7889 27.9853C16.4104 28.3291 16.2042 28.3809 16 28.3809V30.8809C17.0123 30.8809 17.791 30.4524 18.4698 29.8358C19.0951 29.2678 19.7339 28.4464 20.4596 27.521L18.4924 25.9783ZM11.5404 27.521C12.2661 28.4464 12.9049 29.2678 13.5302 29.8358C14.209 30.4524 14.9877 30.8809 16 30.8809V28.3809C15.7958 28.3809 15.5896 28.3291 15.2111 27.9853C14.7791 27.5929 14.2882 26.9736 13.5076 25.9783L11.5404 27.521ZM11 14.624C11 17.3854 13.2386 19.624 16 19.624V17.124C14.6193 17.124 13.5 16.0047 13.5 14.624H11ZM16 19.624C18.7614 19.624 21 17.3854 21 14.624H18.5C18.5 16.0047 17.3807 17.124 16 17.124V19.624ZM21 14.624C21 11.8626 18.7614 9.62402 16 9.62402V12.124C17.3807 12.124 18.5 13.2433 18.5 14.624H21ZM16 9.62402C13.2386 9.62402 11 11.8626 11 14.624H13.5C13.5 13.2433 14.6193 12.124 16 12.124V9.62402Z" fill="#95A1B5"/>
</svg>
