<svg width="245" height="56" viewBox="0 0 245 56" fill="none" xmlns="http://www.w3.org/2000/svg">
<g clip-path="url(#clip0_2716_15466)">
<path d="M24.9608 13.1545L4.99217 13.1545C2.23938 13.1545 7.21202e-06 15.3609 6.7307e-06 18.073L8.72858e-07 51.0815C3.91545e-07 53.7937 2.23937 56 4.99217 56L24.9608 56C27.7136 56 29.953 53.7937 29.953 51.0815L29.953 18.073C29.953 15.3609 27.7136 13.1545 24.9608 13.1545Z" fill="#192839"/>
<path opacity="0.5" d="M38.2733 42.6655L33.2812 42.6655L33.2812 18.0731C33.2812 13.5532 29.5485 9.87563 24.9609 9.87563L13.3125 9.87563L13.3125 4.95714C13.3125 2.24498 15.5519 0.0386585 18.3047 0.038659L38.2733 0.0386624C41.0261 0.0386629 43.2655 2.24499 43.2655 4.95715L43.2655 37.747C43.2655 40.4592 41.0261 42.6655 38.2733 42.6655Z" fill="#192839"/>
</g>
<path d="M72.6083 13.4336C74.3171 13.4336 75.99 13.6246 77.6271 14.0066C79.2641 14.3886 81.0304 15.0394 82.9259 15.959V21.3494C81.0735 20.3025 79.3575 19.5455 77.7779 19.0786C76.2126 18.6118 74.5756 18.3783 72.8668 18.3783C70.7271 18.3783 68.7957 18.8169 67.0725 19.6941C65.3493 20.5571 64.0067 21.7809 63.0446 23.3655C62.0968 24.9501 61.6229 26.7115 61.6229 28.6498C61.6229 30.6305 62.0968 32.4061 63.0446 33.9765C63.9923 35.5469 65.3278 36.7637 67.051 37.6267C68.7742 38.4756 70.7128 38.9 72.8668 38.9C74.5182 38.9 76.0906 38.6666 77.584 38.1997C79.0918 37.7328 80.9873 36.891 83.2705 35.6743V41.0646C81.3176 42.0692 79.5226 42.7836 77.8856 43.2081C76.2485 43.6325 74.3387 43.8447 72.1559 43.8447C68.9824 43.8447 66.1463 43.2222 63.6477 41.9772C61.149 40.7322 59.1817 38.9424 57.7457 36.608C56.3241 34.2595 55.6133 31.6916 55.6133 28.9044C55.6133 25.9192 56.3456 23.2382 57.8104 20.8613C59.2894 18.4844 61.3142 16.6523 63.8846 15.3648C66.4694 14.0773 69.3773 13.4336 72.6083 13.4336Z" fill="#192839"/>
<path d="M97.6049 23.2594C100.563 23.2594 102.904 24.1932 104.627 26.0607C106.35 27.9282 107.212 30.5102 107.212 33.8067V34.5919H92.9738C93.1892 36.3604 93.857 37.7257 94.9771 38.6878C96.1115 39.6357 97.6624 40.1097 99.6297 40.1097C100.893 40.1097 102.107 39.8974 103.27 39.473C104.447 39.0344 105.661 38.3765 106.91 37.4994V41.383C104.555 43.0241 101.698 43.8447 98.3373 43.8447C95.1637 43.8447 92.5718 42.9039 90.5614 41.0222C88.551 39.1405 87.5458 36.6363 87.5458 33.5096C87.5458 30.4961 88.472 28.0343 90.3244 26.1244C92.1912 24.2144 94.6181 23.2594 97.6049 23.2594ZM102.236 31.4299C102.092 29.9868 101.647 28.862 100.901 28.0556C100.154 27.235 99.1271 26.8247 97.8203 26.8247C96.4849 26.8247 95.4079 27.2138 94.5893 27.9919C93.7852 28.77 93.2754 29.916 93.06 31.4299H102.236Z" fill="#192839"/>
<path d="M123.485 23.2594C125.639 23.2594 127.355 23.9597 128.633 25.3604C129.925 26.7469 130.571 28.579 130.571 30.8569V43.4627H125.294V31.3874C125.294 30.0999 124.978 29.0813 124.346 28.3314C123.729 27.5816 122.882 27.2067 121.805 27.2067C120.986 27.2067 120.218 27.4472 119.5 27.9282C118.782 28.3951 117.992 29.1803 117.13 30.2839V43.4627H111.832V23.6414H117.13V26.4215C118.107 25.2896 119.105 24.4832 120.124 24.0022C121.158 23.507 122.278 23.2594 123.485 23.2594Z" fill="#192839"/>
<path d="M141.653 18.3783H142.084V23.6414H148.977V27.5887H142.084V36.7354C142.084 37.6267 142.357 38.3482 142.903 38.9C143.448 39.4518 144.195 39.7277 145.143 39.7277C146.378 39.7277 147.799 39.2891 149.408 38.4119V42.5926C147.498 43.4274 145.703 43.8447 144.023 43.8447C141.754 43.8447 139.98 43.2364 138.702 42.0196C137.439 40.8029 136.807 39.1547 136.807 37.0749V27.5887H133.662V26.7398L141.653 18.3783Z" fill="#192839"/>
<path d="M161.868 23.2594C164.826 23.2594 167.167 24.1932 168.89 26.0607C170.613 27.9282 171.475 30.5102 171.475 33.8067V34.5919H157.237C157.452 36.3604 158.12 37.7257 159.24 38.6878C160.375 39.6357 161.925 40.1097 163.893 40.1097C165.156 40.1097 166.37 39.8974 167.533 39.473C168.711 39.0344 169.924 38.3765 171.173 37.4994V41.383C168.818 43.0241 165.961 43.8447 162.6 43.8447C159.427 43.8447 156.835 42.9039 154.824 41.0222C152.814 39.1405 151.809 36.6363 151.809 33.5096C151.809 30.4961 152.735 28.0343 154.588 26.1244C156.454 24.2144 158.881 23.2594 161.868 23.2594ZM166.499 31.4299C166.355 29.9868 165.91 28.862 165.164 28.0556C164.417 27.235 163.39 26.8247 162.083 26.8247C160.748 26.8247 159.671 27.2138 158.852 27.9919C158.048 28.77 157.538 29.916 157.323 31.4299H166.499Z" fill="#192839"/>
<g opacity="0.5">
<path d="M195.053 13.8154C197.882 13.8154 200.186 14.5865 201.967 16.1286C203.748 17.6708 204.638 19.6798 204.638 22.1557C204.638 23.8393 204.193 25.3107 203.303 26.5699C202.427 27.8149 201.12 28.7982 199.382 29.5197C200.344 30.029 201.199 30.7223 201.946 31.5995C202.692 32.4767 203.619 33.9551 204.724 36.0349C206.562 39.6285 207.926 42.1044 208.817 43.4626H202.333C201.888 42.8118 201.285 41.7719 200.524 40.3429C198.858 37.1879 197.638 35.0657 196.862 33.9763C196.087 32.8728 195.34 32.0947 194.622 31.6419C193.904 31.175 193.078 30.9416 192.145 30.9416H190.882C191.724 19.227 186.641 13.8154 186.641 13.8154H190.157H195.053ZM193.739 26.4637C195.261 26.4637 196.453 26.0888 197.314 25.339C198.19 24.5891 198.628 23.5634 198.628 22.2618C198.628 20.9036 198.198 19.892 197.336 19.227C196.474 18.5479 195.247 18.2084 193.653 18.2084H190.882V26.4637H193.739Z" fill="#192839"/>
</g>
<path d="M186.569 13.8154C189.398 13.8154 191.703 14.5865 193.483 16.1286C195.264 17.6708 196.154 19.6798 196.154 22.1557C196.154 23.8393 195.709 25.3107 194.819 26.5699C193.943 27.8149 192.636 28.7982 190.898 29.5197C191.861 30.029 192.715 30.7223 193.462 31.5995C194.208 32.4767 195.135 33.9551 196.24 36.0349C198.078 39.6285 199.443 42.1044 200.333 43.4626H193.849C193.404 42.8118 192.801 41.7719 192.04 40.3429C190.374 37.1879 189.154 35.0657 188.378 33.9763C187.603 32.8728 186.856 32.0947 186.138 31.6419C185.42 31.175 184.594 30.9416 183.661 30.9416H181.55V43.4626H175.734V13.8154H186.569ZM185.255 26.4637C186.777 26.4637 187.969 26.0888 188.831 25.339C189.707 24.5891 190.145 23.5634 190.145 22.2618C190.145 20.9036 189.714 19.892 188.852 19.227C187.991 18.5479 186.763 18.2084 185.169 18.2084H181.55V26.4637H185.255Z" fill="#192839"/>
<path d="M218.817 23.2594C221.775 23.2594 224.116 24.1932 225.839 26.0607C227.562 27.9282 228.424 30.5102 228.424 33.8067V34.5919H214.186C214.401 36.3604 215.069 37.7257 216.189 38.6878C217.324 39.6357 218.874 40.1097 220.842 40.1097C222.105 40.1097 223.319 39.8974 224.482 39.473C225.659 39.0344 226.873 38.3765 228.122 37.4994V41.383C225.767 43.0241 222.91 43.8447 219.549 43.8447C216.376 43.8447 213.784 42.9039 211.773 41.0222C209.763 39.1405 208.758 36.6363 208.758 33.5096C208.758 30.4961 209.684 28.0343 211.536 26.1244C213.403 24.2144 215.83 23.2594 218.817 23.2594ZM223.448 31.4299C223.304 29.9868 222.859 28.862 222.113 28.0556C221.366 27.235 220.339 26.8247 219.032 26.8247C217.697 26.8247 216.62 27.2138 215.801 27.9919C214.997 28.77 214.487 29.916 214.272 31.4299H223.448Z" fill="#192839"/>
<path d="M241.509 13.4336C242.126 13.4336 242.758 13.4902 243.404 13.6034C244.065 13.7166 244.596 13.8651 244.998 14.049V18.2934C244.266 18.0954 243.469 17.9963 242.607 17.9963C241.329 17.9963 240.374 18.3217 239.743 18.9725C239.125 19.6233 238.816 20.7057 238.816 22.2195V23.6414H242.263V27.5887H238.816V43.4627H233.518V27.5887H230.653V23.6414H233.518V22.1558C233.518 19.4819 234.243 17.3597 235.693 15.7892C237.158 14.2188 239.096 13.4336 241.509 13.4336Z" fill="#192839"/>
<defs>
<clipPath id="clip0_2716_15466">
<rect width="43.2654" height="56" fill="white" transform="matrix(1 1.72265e-07 1.77465e-07 -1 0 56)"/>
</clipPath>
</defs>
</svg>
