<svg width="190" height="31" viewBox="0 0 190 31" fill="none" xmlns="http://www.w3.org/2000/svg">
<path d="M17.6083 0.433594C19.3171 0.433594 20.99 0.624592 22.6271 1.00659C24.2641 1.38858 26.0304 2.03939 27.9259 2.95901V8.3494C26.0735 7.30245 24.3575 6.54553 22.7779 6.07865C21.2126 5.61176 19.5756 5.37832 17.8668 5.37832C15.7271 5.37832 13.7957 5.81691 12.0725 6.69409C10.3493 7.55712 9.00667 8.78092 8.04455 10.3655C7.0968 11.9501 6.62292 13.7115 6.62292 15.6498C6.62292 17.6305 7.0968 19.4061 8.04455 20.9765C8.99231 22.5469 10.3278 23.7637 12.051 24.6267C13.7742 25.4756 15.7128 25.9 17.8668 25.9C19.5182 25.9 21.0906 25.6666 22.584 25.1997C24.0918 24.7328 25.9873 23.891 28.2705 22.6743V28.0646C26.3176 29.0692 24.5226 29.7836 22.8856 30.2081C21.2485 30.6325 19.3387 30.8447 17.1559 30.8447C13.9824 30.8447 11.1463 30.2222 8.64767 28.9772C6.14904 27.7322 4.18173 25.9424 2.74573 23.608C1.3241 21.2595 0.613281 18.6916 0.613281 15.9044C0.613281 12.9192 1.34564 10.2382 2.81035 7.8613C4.28943 5.48443 6.31418 3.65227 8.88461 2.3648C11.4694 1.07733 14.3773 0.433594 17.6083 0.433594Z" fill="#436CFF"/>
<path d="M42.6049 10.2594C45.5631 10.2594 47.9037 11.1932 49.6269 13.0607C51.3501 14.9282 52.2117 17.5102 52.2117 20.8067V21.5919H37.9738C38.1892 23.3604 38.857 24.7257 39.9771 25.6878C41.1115 26.6357 42.6624 27.1097 44.6297 27.1097C45.8934 27.1097 47.1068 26.8974 48.2699 26.473C49.4474 26.0344 50.6609 25.3765 51.9102 24.4994V28.383C49.5551 30.0241 46.6975 30.8447 43.3373 30.8447C40.1637 30.8447 37.5718 29.9039 35.5614 28.0222C33.551 26.1405 32.5458 23.6363 32.5458 20.5096C32.5458 17.4961 33.472 15.0343 35.3244 13.1244C37.1912 11.2144 39.6181 10.2594 42.6049 10.2594ZM47.236 18.4299C47.0924 16.9868 46.6473 15.862 45.9005 15.0556C45.1538 14.235 44.1271 13.8247 42.8203 13.8247C41.4849 13.8247 40.4079 14.2138 39.5893 14.9919C38.7852 15.77 38.2754 16.916 38.06 18.4299H47.236Z" fill="#436CFF"/>
<path d="M68.4847 10.2594C70.6387 10.2594 72.3547 10.9597 73.6328 12.3604C74.9251 13.7469 75.5714 15.579 75.5714 17.8569V30.4627H70.2941V18.3874C70.2941 17.0999 69.9781 16.0813 69.3463 15.3314C68.7288 14.5816 67.8816 14.2067 66.8046 14.2067C65.9861 14.2067 65.2178 14.4472 64.4998 14.9282C63.7818 15.3951 62.992 16.1803 62.1304 17.2839V30.4627H56.8316V10.6414H62.1304V13.4215C63.1069 12.2896 64.1049 11.4832 65.1245 11.0022C66.1584 10.507 67.2785 10.2594 68.4847 10.2594Z" fill="#436CFF"/>
<path d="M86.6532 5.37832H87.084V10.6414H93.9768V14.5887H87.084V23.7354C87.084 24.6267 87.3568 25.3482 87.9025 25.9C88.4482 26.4518 89.1949 26.7277 90.1427 26.7277C91.3776 26.7277 92.7993 26.2891 94.4076 25.4119V29.5926C92.4977 30.4274 90.7027 30.8447 89.0226 30.8447C86.7537 30.8447 84.9803 30.2364 83.7022 29.0196C82.4386 27.8029 81.8067 26.1547 81.8067 24.0749V14.5887H78.6619V13.7398L86.6532 5.37832Z" fill="#436CFF"/>
<path d="M106.868 10.2594C109.826 10.2594 112.167 11.1932 113.89 13.0607C115.613 14.9282 116.475 17.5102 116.475 20.8067V21.5919H102.237C102.452 23.3604 103.12 24.7257 104.24 25.6878C105.375 26.6357 106.925 27.1097 108.893 27.1097C110.156 27.1097 111.37 26.8974 112.533 26.473C113.711 26.0344 114.924 25.3765 116.173 24.4994V28.383C113.818 30.0241 110.961 30.8447 107.6 30.8447C104.427 30.8447 101.835 29.9039 99.8244 28.0222C97.814 26.1405 96.8088 23.6363 96.8088 20.5096C96.8088 17.4961 97.7351 15.0343 99.5875 13.1244C101.454 11.2144 103.881 10.2594 106.868 10.2594ZM111.499 18.4299C111.355 16.9868 110.91 15.862 110.164 15.0556C109.417 14.235 108.39 13.8247 107.083 13.8247C105.748 13.8247 104.671 14.2138 103.852 14.9919C103.048 15.77 102.538 16.916 102.323 18.4299H111.499Z" fill="#436CFF"/>
<g opacity="0.5">
<path d="M140.053 0.81543C142.882 0.81543 145.186 1.5865 146.967 3.12863C148.748 4.67076 149.638 6.67978 149.638 9.15568C149.638 10.8393 149.193 12.3107 148.303 13.5699C147.427 14.8149 146.12 15.7982 144.382 16.5197C145.344 17.029 146.199 17.7223 146.946 18.5995C147.692 19.4767 148.619 20.9551 149.724 23.0349C151.562 26.6285 152.926 29.1044 153.817 30.4626H147.333C146.888 29.8118 146.285 28.7719 145.524 27.3429C143.858 24.1879 142.638 22.0657 141.862 20.9763C141.087 19.8728 140.34 19.0947 139.622 18.6419C138.904 18.175 138.078 17.9416 137.145 17.9416H135.882C136.724 6.22704 131.641 0.81543 131.641 0.81543H135.157H140.053ZM138.739 13.4637C140.261 13.4637 141.453 13.0888 142.314 12.339C143.19 11.5891 143.628 10.5634 143.628 9.26179C143.628 7.90358 143.198 6.892 142.336 6.22704C141.474 5.54794 140.247 5.20839 138.653 5.20839H135.882V13.4637H138.739Z" fill="#436CFF"/>
</g>
<path d="M131.569 0.81543C134.398 0.81543 136.703 1.5865 138.483 3.12863C140.264 4.67076 141.154 6.67978 141.154 9.15568C141.154 10.8393 140.709 12.3107 139.819 13.5699C138.943 14.8149 137.636 15.7982 135.898 16.5197C136.861 17.029 137.715 17.7223 138.462 18.5995C139.208 19.4767 140.135 20.9551 141.24 23.0349C143.078 26.6285 144.443 29.1044 145.333 30.4626H138.849C138.404 29.8118 137.801 28.7719 137.04 27.3429C135.374 24.1879 134.154 22.0657 133.378 20.9763C132.603 19.8728 131.856 19.0947 131.138 18.6419C130.42 18.175 129.594 17.9416 128.661 17.9416H126.55V30.4626H120.734V0.81543H131.569ZM130.255 13.4637C131.777 13.4637 132.969 13.0888 133.831 12.339C134.707 11.5891 135.145 10.5634 135.145 9.26179C135.145 7.90358 134.714 6.892 133.852 6.22704C132.991 5.54794 131.763 5.20839 130.169 5.20839H126.55V13.4637H130.255Z" fill="#436CFF"/>
<path d="M163.817 10.2594C166.775 10.2594 169.116 11.1932 170.839 13.0607C172.562 14.9282 173.424 17.5102 173.424 20.8067V21.5919H159.186C159.401 23.3604 160.069 24.7257 161.189 25.6878C162.324 26.6357 163.874 27.1097 165.842 27.1097C167.105 27.1097 168.319 26.8974 169.482 26.473C170.659 26.0344 171.873 25.3765 173.122 24.4994V28.383C170.767 30.0241 167.91 30.8447 164.549 30.8447C161.376 30.8447 158.784 29.9039 156.773 28.0222C154.763 26.1405 153.758 23.6363 153.758 20.5096C153.758 17.4961 154.684 15.0343 156.536 13.1244C158.403 11.2144 160.83 10.2594 163.817 10.2594ZM168.448 18.4299C168.304 16.9868 167.859 15.862 167.113 15.0556C166.366 14.235 165.339 13.8247 164.032 13.8247C162.697 13.8247 161.62 14.2138 160.801 14.9919C159.997 15.77 159.487 16.916 159.272 18.4299H168.448Z" fill="#436CFF"/>
<path d="M186.509 0.433594C187.126 0.433594 187.758 0.490186 188.404 0.60337C189.065 0.716554 189.596 0.865108 189.998 1.04903V5.29343C189.266 5.09536 188.469 4.99633 187.607 4.99633C186.329 4.99633 185.374 5.32173 184.743 5.97254C184.125 6.62335 183.816 7.70567 183.816 9.21951V10.6414H187.263V14.5887H183.816V30.4627H178.518V14.5887H175.653V10.6414H178.518V9.15584C178.518 6.48187 179.243 4.35967 180.693 2.78924C182.158 1.21881 184.096 0.433594 186.509 0.433594Z" fill="#436CFF"/>
</svg>
