<svg width="44" height="56" viewBox="0 0 44 56" fill="none" xmlns="http://www.w3.org/2000/svg">
<g clip-path="url(#clip0_3590_8713)">
<path d="M24.9608 13.1545L4.99217 13.1545C2.23938 13.1545 7.21202e-06 15.3609 6.7307e-06 18.073L8.72858e-07 51.0815C3.91545e-07 53.7937 2.23937 56 4.99217 56L24.9608 56C27.7136 56 29.953 53.7937 29.953 51.0815L29.953 18.073C29.953 15.3609 27.7136 13.1545 24.9608 13.1545Z" fill="#F7F9FA"/>
<path opacity="0.5" d="M38.2733 42.6655L33.2812 42.6655L33.2812 18.0731C33.2812 13.5532 29.5485 9.87563 24.9609 9.87563L13.3125 9.87563L13.3125 4.95714C13.3125 2.24498 15.5519 0.0386575 18.3047 0.038658L38.2733 0.0386614C41.0261 0.0386619 43.2655 2.24499 43.2655 4.95715L43.2655 37.747C43.2655 40.4592 41.0261 42.6655 38.2733 42.6655Z" fill="#F7F9FA"/>
</g>
<defs>
<clipPath id="clip0_3590_8713">
<rect width="43.2654" height="56" fill="white" transform="matrix(1 1.72265e-07 1.77465e-07 -1 0 56)"/>
</clipPath>
</defs>
</svg>
