<svg width="16" height="16" viewBox="0 0 16 16" fill="none" xmlns="http://www.w3.org/2000/svg">
<g clip-path="url(#clip0_2838_20156)">
<path d="M7.97344 14.6453H1.99334C1.62656 14.6453 1.32891 14.3476 1.32891 13.9809V2.02072C1.32891 1.65394 1.62659 1.35628 1.99334 1.35628H7.97344C8.34087 1.35628 8.63787 1.05928 8.63787 0.691844C8.63787 0.324406 8.34087 0.0273438 7.97344 0.0273438H1.99334C0.894344 0.0273438 0 0.921719 0 2.02072V13.9808C0 15.0798 0.894344 15.9742 1.99334 15.9742H7.97344C8.34087 15.9742 8.63787 15.6772 8.63787 15.3097C8.63787 14.9423 8.34087 14.6453 7.97344 14.6453Z" fill="#192839"/>
<path d="M15.8023 7.52567L11.7624 3.53895C11.5019 3.28114 11.0807 3.28448 10.8229 3.5456C10.5651 3.80673 10.5677 4.22732 10.8295 4.48514L13.7166 7.33429H5.98036C5.61292 7.33429 5.31592 7.63129 5.31592 7.99873C5.31592 8.36617 5.61292 8.6632 5.98036 8.6632H13.7166L10.8295 11.5124C10.5678 11.7702 10.5658 12.1908 10.8229 12.4519C10.9531 12.5834 11.1245 12.6499 11.296 12.6499C11.4648 12.6499 11.6335 12.5861 11.7624 12.4585L15.8023 8.47179C15.9285 8.34689 16.0003 8.17676 16.0003 7.9987C16.0003 7.8207 15.9292 7.65126 15.8023 7.52567Z" fill="#192839"/>
</g>
<defs>
<clipPath id="clip0_2838_20156">
<rect width="16" height="16" fill="white"/>
</clipPath>
</defs>
</svg>
