<svg width="32" height="32" viewBox="0 0 32 32" fill="none" xmlns="http://www.w3.org/2000/svg">
<rect width="32" height="32" rx="3" fill="#436CFF"/>
<g clip-path="url(#clip0_2716_15472)">
<path d="M17.2308 10.1679L9.84616 10.1678C8.82815 10.1678 8 11.0346 8 12.1001L8 25.0677C8 26.1332 8.82814 27 9.84615 27L17.2308 27C18.2488 27 19.0769 26.1332 19.0769 25.0677L19.0769 12.1001C19.0769 11.0346 18.2488 10.1679 17.2308 10.1679Z" fill="#F7F9FA"/>
<path opacity="0.5" d="M22.1526 21.7612L20.3065 21.7612L20.3065 12.0999C20.3065 10.3243 18.9261 8.87948 17.2296 8.87948L12.9219 8.87948L12.9219 6.94722C12.9219 5.88173 13.75 5.01496 14.768 5.01496L22.1527 5.01496C23.1707 5.01496 23.9988 5.88173 23.9988 6.94722L23.9988 19.829C23.9988 20.8945 23.1707 21.7612 22.1526 21.7612Z" fill="#F7F9FA"/>
</g>
<defs>
<clipPath id="clip0_2716_15472">
<rect width="16" height="22" fill="white" transform="matrix(1 1.72265e-07 1.77465e-07 -1 8 27)"/>
</clipPath>
</defs>
</svg>