<svg width="160" height="138" viewBox="0 0 160 138" fill="none" xmlns="http://www.w3.org/2000/svg">
<g clip-path="url(#clip0_2768_20624)">
<g opacity="0.6">
<path opacity="0.5" d="M99.3777 16.8046C97.6957 15.5712 95.9526 14.3995 94.1789 13.1969C85.6467 7.43075 75.7996 1.54126 65.4937 0.215357C63.7506 -0.000488498 62.0075 -0.0929935 60.2643 0.122852C53.4447 0.893727 46.6863 5.9815 41.2428 9.86671C32.833 15.8795 24.943 22.7557 17.787 30.2795C11.5484 36.7857 5.15697 44.0936 1.5178 52.5424C-3.1917 63.5196 3.99488 76.4703 10.2946 85.3508C22.5577 102.618 39.5608 116.093 60.9065 118.005C86.6865 120.318 109.989 99.9358 118.766 76.1311C123.965 61.9779 124.332 44.8644 115.341 32.1913C110.846 25.9009 105.372 21.1523 99.3777 16.8046Z" fill="#436CFF"/>
<path opacity="0.7" d="M99.3777 16.8046C97.6957 15.5712 95.9526 14.3995 94.1789 13.1969C85.6467 7.43075 75.7996 1.54126 65.4937 0.215357C63.7506 -0.000488498 62.0075 -0.0929935 60.2643 0.122852C53.4447 0.893727 46.6863 5.9815 41.2428 9.86671C32.833 15.8795 24.943 22.7557 17.787 30.2795C11.5484 36.7857 5.15697 44.0936 1.5178 52.5424C-3.1917 63.5196 3.99488 76.4703 10.2946 85.3508C22.5577 102.618 39.5608 116.093 60.9065 118.005C86.6865 120.318 109.989 99.9358 118.766 76.1311C123.965 61.9779 124.332 44.8644 115.341 32.1913C110.846 25.9009 105.372 21.1523 99.3777 16.8046Z" fill="white"/>
</g>
<g opacity="0.4">
<path opacity="0.5" d="M57.8046 38.0598C56.5712 39.7418 55.3995 41.4849 54.1969 43.2586C48.4307 51.7908 42.5413 61.6379 41.2154 71.9438C40.9995 73.6869 40.907 75.43 41.1229 77.1732C41.8937 83.9928 46.9815 90.7512 50.8667 96.1947C56.8795 104.605 63.7557 112.494 71.2795 119.65C77.7857 125.889 85.0936 132.281 93.5424 135.92C104.52 140.629 117.47 133.443 126.351 127.143C143.618 114.88 157.093 97.8767 159.005 76.531C161.318 50.751 140.936 27.4481 117.131 18.6713C102.978 13.4725 85.8645 13.1055 73.1913 22.0964C66.9009 26.5918 62.1523 32.0659 57.8046 38.0598Z" fill="#436CFF"/>
<path opacity="0.7" d="M57.8046 38.0598C56.5712 39.7418 55.3995 41.4849 54.1969 43.2586C48.4307 51.7908 42.5413 61.6379 41.2154 71.9438C40.9995 73.6869 40.907 75.43 41.1229 77.1732C41.8937 83.9928 46.9815 90.7512 50.8667 96.1947C56.8795 104.605 63.7557 112.494 71.2795 119.65C77.7857 125.889 85.0936 132.281 93.5424 135.92C104.52 140.629 117.47 133.443 126.351 127.143C143.618 114.88 157.093 97.8767 159.005 76.531C161.318 50.751 140.936 27.4481 117.131 18.6713C102.978 13.4725 85.8645 13.1055 73.1913 22.0964C66.9009 26.5918 62.1523 32.0659 57.8046 38.0598Z" fill="white"/>
</g>
<g clip-path="url(#clip1_2768_20624)">
<path d="M74.4452 75.2042H62.1113C61.3548 75.2042 60.7409 74.5903 60.7409 73.8338V49.166C60.7409 48.4095 61.3548 47.7956 62.1113 47.7956H74.4452C75.2031 47.7956 75.8156 47.1831 75.8156 46.4252C75.8156 45.6674 75.2031 45.0547 74.4452 45.0547H62.1113C59.8446 45.0547 58 46.8993 58 49.166V73.8338C58 76.1005 59.8446 77.945 62.1113 77.945H74.4452C75.2031 77.945 75.8156 77.3325 75.8156 76.5746C75.8156 75.8168 75.2031 75.2042 74.4452 75.2042Z" fill="#192839"/>
<path d="M90.592 60.5214L82.2598 52.2988C81.7226 51.7671 80.8537 51.774 80.322 52.3126C79.7903 52.8511 79.7957 53.7186 80.3357 54.2503L86.2902 60.1267H70.3343C69.5764 60.1267 68.9639 60.7393 68.9639 61.4971C68.9639 62.255 69.5764 62.8676 70.3343 62.8676H86.2902L80.3357 68.744C79.7958 69.2757 79.7917 70.1432 80.322 70.6818C80.5906 70.9531 80.9442 71.0901 81.2977 71.0901C81.6459 71.0901 81.9939 70.9586 82.2598 70.6954L90.592 62.4728C90.8524 62.2152 91.0004 61.8643 91.0004 61.4971C91.0004 61.1299 90.8538 60.7805 90.592 60.5214Z" fill="#192839"/>
</g>
</g>
<defs>
<clipPath id="clip0_2768_20624">
<rect width="160" height="138" fill="white"/>
</clipPath>
<clipPath id="clip1_2768_20624">
<rect width="33" height="33" fill="white" transform="translate(58 45)"/>
</clipPath>
</defs>
</svg>
