<svg width="146" height="34" viewBox="0 0 146 34" fill="none" xmlns="http://www.w3.org/2000/svg">
<g clip-path="url(#clip0_2621_13047)">
<path d="M14.8747 7.98668L2.97495 7.98668C1.3345 7.98668 4.2978e-06 9.32623 4.01098e-06 10.9729L5.20156e-07 31.0138C2.3333e-07 32.6604 1.33449 34 2.97494 34L14.8747 34C16.5152 34 17.8497 32.6604 17.8497 31.0138L17.8497 10.9729C17.8497 9.32624 16.5152 7.98668 14.8747 7.98668Z" fill="#F7F9FA"/>
<path opacity="0.5" d="M22.8078 25.9043L19.8329 25.9043L19.8329 10.9732C19.8329 8.22898 17.6085 5.99615 14.8746 5.99614L7.93311 5.99614L7.93311 3.00992C7.93311 1.36325 9.2676 0.0236979 10.9081 0.0236982L22.8078 0.0237002C24.4483 0.0237005 25.7828 1.36325 25.7828 3.00992L25.7828 22.9181C25.7828 24.5647 24.4483 25.9043 22.8078 25.9043Z" fill="#F7F9FA"/>
</g>
<path d="M43.2688 8.15625C44.2871 8.15625 45.2841 8.27221 46.2596 8.50414C47.2352 8.73607 48.2877 9.1312 49.4173 9.68954V12.9623C48.3134 12.3266 47.2908 11.8671 46.3495 11.5836C45.4167 11.3001 44.4412 11.1584 43.4228 11.1584C42.1478 11.1584 40.9968 11.4247 39.9699 11.9573C38.943 12.4812 38.1429 13.2243 37.5696 14.1863C37.0048 15.1484 36.7224 16.2178 36.7224 17.3946C36.7224 18.5972 37.0048 19.6753 37.5696 20.6287C38.1344 21.5822 38.9302 22.3209 39.9571 22.8449C40.984 23.3603 42.1392 23.618 43.4228 23.618C44.4069 23.618 45.344 23.4763 46.234 23.1928C47.1325 22.9093 48.2621 22.3982 49.6227 21.6595V24.9322C48.4589 25.5421 47.3892 25.9759 46.4137 26.2336C45.4381 26.4913 44.3 26.6202 42.9993 26.6202C41.1081 26.6202 39.418 26.2422 37.929 25.4863C36.44 24.7304 35.2676 23.6438 34.4119 22.2264C33.5647 20.8005 33.1411 19.2415 33.1411 17.5493C33.1411 15.7368 33.5775 14.109 34.4504 12.6659C35.3318 11.2228 36.5384 10.1104 38.0702 9.32877C39.6105 8.54709 41.3434 8.15625 43.2688 8.15625Z" fill="#F7F9FA"/>
<path d="M58.1649 14.1219C59.9277 14.1219 61.3226 14.6888 62.3495 15.8227C63.3763 16.9566 63.8898 18.5242 63.8898 20.5256V21.0024H55.4051C55.5335 22.0761 55.9314 22.905 56.5989 23.4892C57.2749 24.0647 58.1991 24.3524 59.3715 24.3524C60.1245 24.3524 60.8476 24.2236 61.5408 23.9659C62.2425 23.6996 62.9656 23.3002 63.7101 22.7676V25.1255C62.3067 26.1219 60.6037 26.6202 58.6013 26.6202C56.7101 26.6202 55.1655 26.0489 53.9675 24.9065C52.7694 23.764 52.1704 22.2436 52.1704 20.3453C52.1704 18.5156 52.7224 17.021 53.8263 15.8614C54.9387 14.7017 56.3849 14.1219 58.1649 14.1219ZM60.9246 19.0826C60.8391 18.2064 60.5738 17.5235 60.1288 17.0339C59.6838 16.5357 59.072 16.2866 58.2932 16.2866C57.4974 16.2866 56.8556 16.5228 56.3678 16.9952C55.8886 17.4677 55.5848 18.1634 55.4565 19.0826H60.9246Z" fill="#F7F9FA"/>
<path d="M73.5872 14.1219C74.8708 14.1219 75.8934 14.5471 76.6551 15.3975C77.4252 16.2393 77.8103 17.3517 77.8103 18.7347V26.3882H74.6655V19.0568C74.6655 18.2751 74.4772 17.6566 74.1007 17.2014C73.7327 16.7461 73.2278 16.5185 72.586 16.5185C72.0982 16.5185 71.6404 16.6645 71.2125 16.9566C70.7847 17.24 70.314 17.7168 69.8006 18.3868V26.3882H66.6429V14.3538H69.8006V16.0417C70.3825 15.3546 70.9772 14.8649 71.5848 14.5729C72.2009 14.2722 72.8684 14.1219 73.5872 14.1219Z" fill="#F7F9FA"/>
<path d="M84.4142 11.1584H84.671V14.3538H88.7785V16.7504H84.671V22.3038C84.671 22.8449 84.8335 23.283 85.1587 23.618C85.4839 23.953 85.9289 24.1205 86.4937 24.1205C87.2296 24.1205 88.0768 23.8542 89.0352 23.3216V25.86C87.8971 26.3668 86.8274 26.6202 85.8262 26.6202C84.4741 26.6202 83.4173 26.2508 82.6557 25.5121C81.9026 24.7733 81.5261 23.7726 81.5261 22.5099V16.7504H79.652V16.235L84.4142 11.1584Z" fill="#F7F9FA"/>
<path d="M96.4607 14.1219C98.2235 14.1219 99.6184 14.6888 100.645 15.8227C101.672 16.9566 102.186 18.5242 102.186 20.5256V21.0024H93.7009C93.8293 22.0761 94.2272 22.905 94.8947 23.4892C95.5707 24.0647 96.4949 24.3524 97.6673 24.3524C98.4203 24.3524 99.1434 24.2236 99.8366 23.9659C100.538 23.6996 101.261 23.3002 102.006 22.7676V25.1255C100.602 26.1219 98.8995 26.6202 96.8971 26.6202C95.0059 26.6202 93.4613 26.0489 92.2633 24.9065C91.0652 23.764 90.4662 22.2436 90.4662 20.3453C90.4662 18.5156 91.0182 17.021 92.1221 15.8614C93.2345 14.7017 94.6807 14.1219 96.4607 14.1219ZM99.2205 19.0826C99.1349 18.2064 98.8696 17.5235 98.4246 17.0339C97.9796 16.5357 97.3678 16.2866 96.589 16.2866C95.7932 16.2866 95.1514 16.5228 94.6636 16.9952C94.1844 17.4677 93.8806 18.1634 93.7523 19.0826H99.2205Z" fill="#F7F9FA"/>
<g opacity="0.5">
<path d="M116.236 8.3877C117.922 8.3877 119.295 8.85584 120.357 9.79214C121.418 10.7284 121.948 11.9482 121.948 13.4514C121.948 14.4736 121.683 15.367 121.152 16.1315C120.63 16.8874 119.852 17.4844 118.816 17.9224C119.39 18.2317 119.899 18.6526 120.344 19.1852C120.789 19.7177 121.341 20.6154 122 21.8781C123.095 24.0599 123.908 25.5631 124.438 26.3877H120.575C120.309 25.9926 119.95 25.3613 119.497 24.4937C118.504 22.5781 117.776 21.2897 117.314 20.6282C116.852 19.9582 116.407 19.4858 115.979 19.2109C115.552 18.9275 115.06 18.7857 114.503 18.7857H113.751C114.252 11.6733 111.223 8.3877 111.223 8.3877H113.318H116.236ZM115.453 16.067C116.36 16.067 117.07 15.8394 117.584 15.3841C118.106 14.9289 118.367 14.3061 118.367 13.5158C118.367 12.6912 118.11 12.077 117.597 11.6733C117.083 11.261 116.352 11.0548 115.402 11.0548H113.751V16.067H115.453Z" fill="#F7F9FA"/>
</g>
<path d="M111.181 8.3877C112.867 8.3877 114.24 8.85584 115.301 9.79214C116.362 10.7284 116.893 11.9482 116.893 13.4514C116.893 14.4736 116.627 15.367 116.097 16.1315C115.575 16.8874 114.796 17.4844 113.761 17.9224C114.334 18.2317 114.843 18.6526 115.288 19.1852C115.733 19.7177 116.285 20.6154 116.944 21.8781C118.039 24.0599 118.852 25.5631 119.383 26.3877H115.519C115.254 25.9926 114.895 25.3613 114.441 24.4937C113.448 22.5781 112.721 21.2897 112.259 20.6282C111.797 19.9582 111.352 19.4858 110.924 19.2109C110.496 18.9275 110.004 18.7857 109.448 18.7857H108.19V26.3877H104.724V8.3877H111.181ZM110.398 16.067C111.305 16.067 112.015 15.8394 112.528 15.3841C113.05 14.9289 113.311 14.3061 113.311 13.5158C113.311 12.6912 113.055 12.077 112.541 11.6733C112.028 11.261 111.296 11.0548 110.346 11.0548H108.19V16.067H110.398Z" fill="#F7F9FA"/>
<path d="M130.398 14.1219C132.161 14.1219 133.555 14.6888 134.582 15.8227C135.609 16.9566 136.123 18.5242 136.123 20.5256V21.0024H127.638C127.766 22.0761 128.164 22.905 128.832 23.4892C129.508 24.0647 130.432 24.3524 131.604 24.3524C132.357 24.3524 133.081 24.2236 133.774 23.9659C134.475 23.6996 135.199 23.3002 135.943 22.7676V25.1255C134.54 26.1219 132.837 26.6202 130.834 26.6202C128.943 26.6202 127.398 26.0489 126.2 24.9065C125.002 23.764 124.403 22.2436 124.403 20.3453C124.403 18.5156 124.955 17.021 126.059 15.8614C127.172 14.7017 128.618 14.1219 130.398 14.1219ZM133.158 19.0826C133.072 18.2064 132.807 17.5235 132.362 17.0339C131.917 16.5357 131.305 16.2866 130.526 16.2866C129.73 16.2866 129.089 16.5228 128.601 16.9952C128.122 17.4677 127.818 18.1634 127.689 19.0826H133.158Z" fill="#F7F9FA"/>
<path d="M143.92 8.15625C144.288 8.15625 144.665 8.19061 145.05 8.25933C145.444 8.32805 145.76 8.41824 146 8.52991V11.1069C145.563 10.9866 145.088 10.9265 144.575 10.9265C143.813 10.9265 143.244 11.124 142.868 11.5192C142.5 11.9143 142.316 12.5714 142.316 13.4906V14.3538H144.37V16.7504H142.316V26.3882H139.158V16.7504H137.451V14.3538H139.158V13.4519C139.158 11.8284 139.59 10.5399 140.455 9.58646C141.327 8.63299 142.483 8.15625 143.92 8.15625Z" fill="#F7F9FA"/>
<defs>
<clipPath id="clip0_2621_13047">
<rect width="25.7828" height="34" fill="white" transform="matrix(1 1.75508e-07 1.74185e-07 -1 0 34)"/>
</clipPath>
</defs>
</svg>
