<svg width="284" height="250" viewBox="0 0 284 250" fill="none" xmlns="http://www.w3.org/2000/svg">
<g clip-path="url(#clip0_2718_16489)">
<path opacity="0.5" d="M220.502 33.5839C217.14 31.1191 213.657 28.7774 210.112 26.3742C193.061 14.8509 173.382 3.08109 152.787 0.431354C149.303 3.28931e-07 145.819 -0.184865 142.336 0.246488C128.707 1.78703 115.201 11.9546 104.323 19.719C87.5161 31.7353 71.7485 45.4769 57.4476 60.5127C44.9802 73.5149 32.2073 88.1193 24.9346 105.004C15.5229 126.941 29.8849 152.822 42.4745 170.569C66.9815 205.078 100.961 232.006 143.619 235.827C195.139 240.449 241.708 199.717 259.248 152.144C269.638 123.86 270.371 89.6598 252.404 64.3333C243.42 51.7624 232.48 42.2726 220.502 33.5839Z" fill="#00BC54"/>
<path opacity="0.7" d="M220.502 33.5839C217.14 31.1191 213.657 28.7774 210.112 26.3742C193.061 14.8509 173.382 3.08109 152.787 0.431354C149.303 3.28931e-07 145.819 -0.184865 142.336 0.246488C128.707 1.78703 115.201 11.9546 104.323 19.719C87.5161 31.7353 71.7485 45.4769 57.4476 60.5127C44.9802 73.5149 32.2073 88.1193 24.9346 105.004C15.5229 126.941 29.8849 152.822 42.4745 170.569C66.9815 205.078 100.961 232.006 143.619 235.827C195.139 240.449 241.708 199.717 259.248 152.144C269.638 123.86 270.371 89.6598 252.404 64.3333C243.42 51.7624 232.48 42.2726 220.502 33.5839Z" fill="white"/>
<path d="M66.4181 55.1133C72.0475 55.1133 76.6111 50.5006 76.6111 44.8105C76.6111 39.1205 72.0475 34.5078 66.4181 34.5078C60.7886 34.5078 56.2251 39.1205 56.2251 44.8105C56.2251 50.5006 60.7886 55.1133 66.4181 55.1133Z" stroke="#192839" stroke-miterlimit="10"/>
<path d="M65.8716 46.5273L64.0576 47.9825" stroke="#192839" stroke-miterlimit="10"/>
<path d="M70.6218 38.3495C70.6218 38.3495 70.3339 37.0108 70.1323 36.7197" stroke="#192839" stroke-miterlimit="10"/>
<path d="M71.3999 47.7793L71.5727 48.6524" stroke="#192839" stroke-miterlimit="10"/>
<path d="M74.4507 43.0645L75.9767 43.6465" stroke="#192839" stroke-miterlimit="10"/>
<path d="M65.4681 40.7647C65.4681 40.7647 63.2797 40.1826 62.2144 40.1826" stroke="#192839" stroke-miterlimit="10"/>
<path d="M58.6731 38.1455L60.4295 40.241L57.8957 44.4319L56.2832 44.0245C56.456 41.7835 57.3198 39.7462 58.6731 38.1455Z" stroke="#192839" stroke-miterlimit="10"/>
<path d="M70.5939 39.2227L73.7324 42.9479L71.1986 47.0807L66.5052 45.9456L66.1309 41.0853L70.5939 39.2227Z" stroke="#192839" stroke-miterlimit="10"/>
<path d="M71.7169 49.293L75.5177 49.4967C74.4523 51.6213 72.6671 53.3093 70.5075 54.2697L69.9893 53.8332L71.7169 49.293Z" stroke="#192839" stroke-miterlimit="10"/>
<path d="M57.6367 49.991L58.8173 47.8955L63.5394 48.8559L64.0865 53.6871L62.618 54.3565C60.5161 53.5125 58.7597 51.9409 57.6367 49.991Z" stroke="#192839" stroke-miterlimit="10"/>
<path d="M65.4975 34.5662C65.7855 34.5371 66.1022 34.5371 66.4189 34.5371C67.8586 34.5371 69.2407 34.8281 70.4789 35.3811L70.1621 35.8759L65.4688 34.7117L65.4975 34.5662Z" stroke="#192839" stroke-miterlimit="10"/>
<path d="M58.6731 38.1455L60.4295 40.241L57.8957 44.4319L56.2832 44.0245C56.456 41.7835 57.3198 39.7462 58.6731 38.1455Z" stroke="#192839" stroke-miterlimit="10"/>
<path d="M70.5939 39.2227L73.7324 42.9479L71.1986 47.0807L66.5052 45.9456L66.1309 41.0853L70.5939 39.2227Z" stroke="#192839" stroke-miterlimit="10"/>
<path d="M71.7169 49.293L75.5177 49.4967C74.4523 51.6213 72.6671 53.3093 70.5075 54.2697L69.9893 53.8332L71.7169 49.293Z" stroke="#192839" stroke-miterlimit="10"/>
<path d="M57.6367 49.991L58.8173 47.8955L63.5394 48.8559L64.0865 53.6872L62.618 54.3565C60.5161 53.5125 58.7597 51.9409 57.6367 49.991Z" stroke="#192839" stroke-miterlimit="10"/>
<path d="M65.4975 34.5662C65.7855 34.5371 66.1022 34.5371 66.4189 34.5371C67.8586 34.5371 69.2407 34.8281 70.4789 35.3811L70.1621 35.8759L65.4688 34.7117L65.4975 34.5662Z" stroke="#192839" stroke-miterlimit="10"/>
<path d="M225.012 118.628C235.536 118.628 244.067 110.005 244.067 99.3682C244.067 88.7313 235.536 80.1084 225.012 80.1084C214.489 80.1084 205.958 88.7313 205.958 99.3682C205.958 110.005 214.489 118.628 225.012 118.628Z" stroke="#192839" stroke-miterlimit="10"/>
<path d="M223.992 102.578L220.601 105.298" stroke="#192839" stroke-miterlimit="10"/>
<path d="M232.873 87.2909C232.873 87.2909 232.334 84.7882 231.958 84.2441" stroke="#192839" stroke-miterlimit="10"/>
<path d="M234.322 104.918L234.645 106.55" stroke="#192839" stroke-miterlimit="10"/>
<path d="M240.03 96.1045L242.883 97.1926" stroke="#192839" stroke-miterlimit="10"/>
<path d="M223.237 91.8059C223.237 91.8059 219.146 90.7178 217.155 90.7178" stroke="#192839" stroke-miterlimit="10"/>
<path d="M210.532 86.9082L213.816 90.8254L209.079 98.6599L206.064 97.8982C206.387 93.709 208.002 89.9005 210.532 86.9082Z" stroke="#192839" stroke-miterlimit="10"/>
<path d="M232.816 88.9209L238.683 95.8849L233.946 103.611L225.172 101.489L224.473 92.4029L232.816 88.9209Z" stroke="#192839" stroke-miterlimit="10"/>
<path d="M234.915 107.746L242.02 108.127C240.028 112.099 236.691 115.254 232.654 117.05L231.685 116.233L234.915 107.746Z" stroke="#192839" stroke-miterlimit="10"/>
<path d="M208.596 109.052L210.803 105.135L219.63 106.93L220.653 115.962L217.908 117.213C213.978 115.635 210.695 112.697 208.596 109.052Z" stroke="#192839" stroke-miterlimit="10"/>
<path d="M223.291 80.2165C223.829 80.1621 224.421 80.1621 225.013 80.1621C227.704 80.1621 230.288 80.7062 232.603 81.7399L232.011 82.6648L223.237 80.4885L223.291 80.2165Z" stroke="#192839" stroke-miterlimit="10"/>
<path d="M210.532 86.9082L213.816 90.8254L209.079 98.6599L206.064 97.8982C206.387 93.709 208.002 89.9005 210.532 86.9082Z" stroke="#192839" stroke-miterlimit="10"/>
<path d="M232.816 88.9209L238.683 95.8849L233.946 103.611L225.172 101.489L224.473 92.4029L232.816 88.9209Z" stroke="#192839" stroke-miterlimit="10"/>
<path d="M234.915 107.746L242.02 108.127C240.028 112.099 236.691 115.254 232.654 117.05L231.685 116.233L234.915 107.746Z" stroke="#192839" stroke-miterlimit="10"/>
<path d="M208.596 109.052L210.803 105.135L219.63 106.93L220.653 115.962L217.908 117.213C213.978 115.635 210.695 112.697 208.596 109.052Z" stroke="#192839" stroke-miterlimit="10"/>
<path d="M223.291 80.2165C223.829 80.1621 224.421 80.1621 225.013 80.1621C227.704 80.1621 230.288 80.7062 232.603 81.7399L232.011 82.6648L223.237 80.4885L223.291 80.2165Z" stroke="#192839" stroke-miterlimit="10"/>
<path opacity="0.5" d="M208.821 22.3596L202.652 28.5467L200.279 26.1726C200.15 26.022 199.992 25.8996 199.813 25.8133C199.635 25.7269 199.441 25.6784 199.243 25.6707C199.045 25.6631 198.847 25.6964 198.663 25.7688C198.478 25.8411 198.31 25.9508 198.17 26.0911C198.03 26.2313 197.92 26.399 197.848 26.5836C197.776 26.7683 197.743 26.9659 197.75 27.164C197.758 27.3622 197.806 27.5566 197.893 27.7351C197.979 27.9136 198.101 28.0724 198.252 28.2014L201.631 31.597C201.765 31.7304 201.925 31.8359 202.1 31.9075C202.275 31.9791 202.463 32.0154 202.652 32.0143C203.029 32.0127 203.391 31.8629 203.659 31.597L210.848 24.4028C210.983 24.269 211.09 24.1099 211.163 23.9346C211.236 23.7592 211.274 23.5712 211.274 23.3812C211.274 23.1913 211.236 23.0032 211.163 22.8279C211.09 22.6525 210.983 22.4934 210.848 22.3596C210.579 22.0916 210.215 21.9412 209.835 21.9412C209.455 21.9412 209.09 22.0916 208.821 22.3596ZM204.91 12.5898C202.065 12.5898 199.285 13.4337 196.921 15.0147C194.556 16.5958 192.713 18.8429 191.624 21.4721C190.536 24.1012 190.251 26.9943 190.806 29.7854C191.361 32.5765 192.73 35.1403 194.742 37.1525C196.753 39.1648 199.315 40.5352 202.104 41.0903C204.894 41.6455 207.785 41.3606 210.412 40.2716C213.04 39.1825 215.286 37.3383 216.866 34.9721C218.446 32.606 219.289 29.8241 219.289 26.9783C219.289 25.0888 218.917 23.2178 218.195 21.4721C217.472 19.7264 216.413 18.1402 215.078 16.8041C213.742 15.468 212.157 14.4082 210.412 13.6851C208.668 12.962 206.798 12.5898 204.91 12.5898ZM204.91 38.4891C202.634 38.4891 200.41 37.814 198.518 36.5492C196.627 35.2844 195.152 33.4866 194.281 31.3833C193.411 29.28 193.183 26.9656 193.627 24.7327C194.071 22.4998 195.166 20.4488 196.775 18.839C198.384 17.2292 200.434 16.1329 202.665 15.6887C204.897 15.2446 207.21 15.4725 209.312 16.3437C211.414 17.215 213.211 18.6903 214.475 20.5833C215.739 22.4762 216.413 24.7017 216.413 26.9783C216.413 30.0312 215.201 32.959 213.044 35.1177C210.887 37.2764 207.961 38.4891 204.91 38.4891Z" fill="#00BC54"/>
<path opacity="0.5" d="M268.076 96.9765L264.452 100.383L263.059 99.0758C262.983 98.9928 262.89 98.9255 262.785 98.8779C262.68 98.8304 262.566 98.8037 262.45 98.7994C262.333 98.7952 262.217 98.8136 262.109 98.8534C262 98.8933 261.902 98.9537 261.82 99.0309C261.737 99.1081 261.673 99.2004 261.63 99.3021C261.588 99.4037 261.568 99.5125 261.573 99.6216C261.577 99.7307 261.606 99.8378 261.657 99.9361C261.707 100.034 261.779 100.122 261.868 100.193L263.853 102.062C263.932 102.136 264.025 102.194 264.128 102.233C264.231 102.273 264.341 102.293 264.452 102.292C264.674 102.291 264.886 102.209 265.044 102.062L269.267 98.1014C269.346 98.0277 269.409 97.9401 269.452 97.8436C269.495 97.747 269.517 97.6435 269.517 97.5389C269.517 97.4343 269.495 97.3308 269.452 97.2343C269.409 97.1377 269.346 97.0501 269.267 96.9765C269.109 96.8289 268.895 96.7461 268.672 96.7461C268.449 96.7461 268.235 96.8289 268.076 96.9765Z" fill="#00BC54"/>
<path opacity="0.5" d="M62.2621 81.3091L56.1131 86.8326L53.7481 84.7131C53.6196 84.5786 53.4615 84.4694 53.2836 84.3923C53.1058 84.3152 52.9121 84.2719 52.7147 84.2651C52.5173 84.2582 52.3205 84.288 52.1366 84.3526C51.9526 84.4172 51.7856 84.5152 51.6459 84.6403C51.5062 84.7655 51.3969 84.9152 51.3248 85.0801C51.2528 85.2449 51.2195 85.4213 51.2271 85.5982C51.2348 85.7751 51.2831 85.9487 51.3691 86.1081C51.4552 86.2674 51.577 86.4092 51.7271 86.5243L55.0954 89.5558C55.2294 89.6749 55.3882 89.7691 55.5628 89.833C55.7375 89.8969 55.9245 89.9293 56.1131 89.9283C56.4891 89.9269 56.8495 89.7931 57.1164 89.5558L64.2831 83.1331C64.4175 83.0137 64.5241 82.8716 64.5969 82.7151C64.6696 82.5586 64.7071 82.3907 64.7071 82.2211C64.7071 82.0515 64.6696 81.8836 64.5969 81.7271C64.5241 81.5706 64.4175 81.4285 64.2831 81.3091C64.0146 81.0698 63.6513 80.9355 63.2726 80.9355C62.8939 80.9355 62.5307 81.0698 62.2621 81.3091Z" fill="#00BC54"/>
<path d="M55.8594 189.303H30.4357C20.6573 189.303 12.7124 197.314 12.7124 207.173V224.92H73.6438V207.173C73.5826 197.314 65.6989 189.303 55.8594 189.303Z" fill="#C5CAD4" stroke="#192839" stroke-miterlimit="10" stroke-linecap="round" stroke-linejoin="round"/>
<path d="M121.925 189.303H96.4401C86.6617 189.303 78.7168 197.314 78.7168 207.173V224.92H139.648V207.173C139.648 197.314 131.703 189.303 121.925 189.303Z" fill="#C5CAD4" stroke="#192839" stroke-miterlimit="10" stroke-linecap="round" stroke-linejoin="round"/>
<path d="M187.929 189.303H162.444C152.666 189.303 144.721 197.314 144.721 207.173V224.92H205.653V207.173C205.714 197.314 197.769 189.303 187.929 189.303Z" fill="#C5CAD4" stroke="#192839" stroke-miterlimit="10" stroke-linecap="round" stroke-linejoin="round"/>
<path d="M253.993 189.303H228.508C218.73 189.303 210.785 197.314 210.785 207.173V224.92H271.716V207.173C271.716 197.314 263.772 189.303 253.993 189.303Z" fill="#C5CAD4" stroke="#192839" stroke-miterlimit="10" stroke-linecap="round" stroke-linejoin="round"/>
<path d="M138.364 122.319L137.508 132.425C137.508 132.425 142.397 136.8 144.72 136.8C147.042 136.8 151.931 132.549 152.298 132.24C152.665 131.932 151.381 122.566 151.381 122.566C151.381 122.566 144.231 125.462 138.364 122.319Z" fill="white" stroke="#192839" stroke-miterlimit="10" stroke-linecap="round" stroke-linejoin="round"/>
<path d="M134.635 111.351C134.635 111.351 133.107 109.256 132.191 111.721C131.274 114.186 133.107 116.466 133.963 117.144C134.819 117.821 135.491 118.068 135.491 118.068L134.635 111.351Z" stroke="#192839" stroke-miterlimit="10" stroke-linecap="round" stroke-linejoin="round"/>
<path d="M155.414 111.351C155.414 111.351 156.942 109.256 157.858 111.721C158.775 114.186 156.942 116.466 156.086 117.144C155.23 117.821 154.558 118.068 154.558 118.068L155.414 111.351Z" fill="white" stroke="#192839" stroke-miterlimit="10" stroke-linecap="round" stroke-linejoin="round"/>
<path d="M150.098 95.3907C150.098 95.3907 147.959 92.6177 143.986 92.248C140.075 91.8782 138.181 95.021 137.875 95.2674C137.569 95.5756 132.802 99.1496 132.436 102.292C132.069 105.435 134.208 110.242 134.391 110.611C134.575 110.981 135.308 112.398 135.308 111.474C135.308 110.55 135.308 104.88 135.491 103.525C135.675 102.231 138.853 98.4102 138.853 98.4102C138.853 98.4102 142.52 100.382 144.964 99.9507C147.409 99.4577 148.326 98.9031 148.631 98.8415C148.937 98.7183 152.115 101.984 152.848 102.539C153.581 103.093 154.376 111.412 154.987 111.536C155.659 111.659 156.209 111.351 156.271 109.749C156.393 108.146 156.454 103.956 155.904 100.937C155.476 97.8556 153.704 95.021 150.098 95.3907Z" fill="#192839" stroke="#192839" stroke-miterlimit="10" stroke-linecap="round" stroke-linejoin="round"/>
<path d="M138.486 96.9932C138.486 96.9932 134.819 100.875 134.574 103.34C134.269 105.805 134.452 114.802 135.613 118.746C136.774 122.69 141.236 128.297 144.536 128.667C147.836 129.037 151.014 125.278 153.52 121.827C156.026 118.438 155.476 108.085 155.109 105.189C154.742 102.231 151.381 99.3348 150.525 98.4721C149.67 97.6094 148.997 97.178 147.775 97.6094C146.553 98.1024 144.842 99.2116 143.192 98.7186C141.48 98.2872 138.486 96.9932 138.486 96.9932Z" fill="white" stroke="#192839" stroke-miterlimit="10" stroke-linecap="round" stroke-linejoin="round"/>
<path d="M146.432 102.601L147.898 108.331L145.271 110.242" stroke="#192839" stroke-miterlimit="10" stroke-linecap="round" stroke-linejoin="round"/>
<path d="M141.114 106.853C141.452 106.853 141.725 106.301 141.725 105.62C141.725 104.939 141.452 104.388 141.114 104.388C140.777 104.388 140.503 104.939 140.503 105.62C140.503 106.301 140.777 106.853 141.114 106.853Z" fill="#192839"/>
<path d="M149.364 106.853C149.702 106.853 149.975 106.301 149.975 105.62C149.975 104.939 149.702 104.388 149.364 104.388C149.027 104.388 148.753 104.939 148.753 105.62C148.753 106.301 149.027 106.853 149.364 106.853Z" fill="#192839"/>
<path d="M138.609 102.971C138.609 102.971 139.648 101.061 142.826 102.293" stroke="#192839" stroke-miterlimit="10" stroke-linecap="round" stroke-linejoin="round"/>
<path d="M147.652 102.108C147.652 102.108 149.73 100.814 151.808 102.416" stroke="#192839" stroke-miterlimit="10" stroke-linecap="round" stroke-linejoin="round"/>
<path d="M139.77 111.166C139.77 111.166 142.092 113.692 145.148 113.508C148.142 113.323 151.442 111.536 151.442 111.536" stroke="#192839" stroke-miterlimit="10" stroke-linecap="round" stroke-linejoin="round"/>
<path d="M141.052 112.521C141.052 112.521 142.152 116.958 144.597 117.636C147.041 118.314 148.997 112.645 148.997 112.645C148.997 112.645 146.858 113.692 145.086 113.569C143.313 113.446 141.052 112.521 141.052 112.521Z" fill="#192839" stroke="#192839" stroke-miterlimit="10" stroke-linecap="round" stroke-linejoin="round"/>
<path d="M140.38 110.55L138.792 112.029" stroke="#192839" stroke-miterlimit="10" stroke-linecap="round" stroke-linejoin="round"/>
<path d="M150.832 110.55L151.932 112.522" stroke="#192839" stroke-miterlimit="10" stroke-linecap="round" stroke-linejoin="round"/>
<path d="M147.043 116.403C145.21 115.664 143.804 115.972 142.948 116.403C143.437 116.958 143.987 117.451 144.659 117.636C145.515 117.882 146.31 117.266 147.043 116.403Z" fill="white" stroke="#192839" stroke-miterlimit="10" stroke-linecap="round" stroke-linejoin="round"/>
<path d="M195.322 74.6858C195.322 74.6858 185.544 90.1528 182.977 93.7885C180.41 97.4242 176.376 105.62 176.376 105.62L168.859 118.314L152.358 132.302C152.358 132.302 146.736 136.677 144.78 136.862C142.763 137.047 137.569 132.487 137.569 132.487C137.569 132.487 127.546 123.922 125.285 121.025C123.023 118.129 117.034 109.379 114.773 105.127C112.512 100.875 92.5271 73.3301 92.5271 73.3301L90.4492 80.2934C90.4492 80.2934 97.3552 100.875 101.45 106.976C105.483 113.015 109.395 117.143 109.395 117.143C109.395 117.143 116.606 133.35 118.684 136.677C120.762 140.005 121.557 142.593 121.557 142.593C121.557 142.593 125.285 171.062 125.468 172.603C125.59 174.143 122.596 206.68 122.596 206.68L118.379 249.507L139.83 249.569L143.069 224.18H147.103L150.403 249.199L150.464 249.63L170.998 249.692L166.537 205.016L163.665 174.267L167.576 142.901C167.576 142.901 175.826 127.742 176.315 127.003C176.743 126.263 187.866 110.057 190.311 101.368C192.694 92.741 199.356 77.3971 199.356 77.3971L195.322 74.6858Z" fill="white" stroke="#192839" stroke-miterlimit="10" stroke-linecap="round" stroke-linejoin="round"/>
<path d="M126.262 206.125L135.429 213.704" stroke="#192839" stroke-miterlimit="10" stroke-linecap="round" stroke-linejoin="round"/>
<path d="M127.729 209.638L135.979 215.861" stroke="#192839" stroke-miterlimit="10" stroke-linecap="round" stroke-linejoin="round"/>
<path d="M161.892 207.419L153.213 214.567" stroke="#192839" stroke-miterlimit="10" stroke-linecap="round" stroke-linejoin="round"/>
<path d="M156.942 213.088L149.73 218.387" stroke="#192839" stroke-miterlimit="10" stroke-linecap="round" stroke-linejoin="round"/>
<path d="M97.845 80.6631L94.606 89.8447L102.001 86.5172C100.534 84.422 99.1284 82.4501 97.845 80.6631Z" fill="#192839"/>
<path d="M190.555 82.1416L194.222 89.5979C195.261 86.8249 196.361 84.1752 197.216 82.08L192.877 78.4443C192.266 79.4919 191.41 80.786 190.555 82.1416Z" fill="#192839"/>
<path d="M175.461 128.359C172.833 126.571 169.655 123.798 167.088 119.855L152.42 132.302C152.42 132.302 146.798 136.677 144.842 136.862C142.825 137.047 137.631 132.487 137.631 132.487C137.631 132.487 127.608 123.922 125.347 121.026C124.98 120.533 124.491 119.916 123.941 119.115L114.896 129.221C116.424 132.487 117.891 135.445 118.685 136.677C120.763 140.005 121.557 142.593 121.557 142.593C121.557 142.593 125.285 171.062 125.469 172.603C125.591 173.835 123.697 194.602 122.963 203.106C128.463 204.03 145.637 206.433 166.416 203.599L163.666 174.267L167.577 142.901C167.516 142.84 173.322 132.241 175.461 128.359Z" fill="#192839" stroke="#192839" stroke-miterlimit="10" stroke-linecap="round" stroke-linejoin="round"/>
<path d="M136.469 131.255C136.469 131.255 140.564 148.756 145.209 160.217C149.853 171.679 150.281 172.049 150.281 172.049L152.604 171.433C152.604 171.433 154.681 146.106 154.865 141.3C155.048 136.431 154.376 131.07 154.376 131.07L152.359 132.241C152.359 132.241 152.787 156.52 150.77 166.072C150.77 166.072 149.548 167.119 145.636 155.842C141.664 144.566 138.914 133.843 138.914 133.843L136.469 131.255Z" fill="#95A1B5" stroke="#192839" stroke-miterlimit="10" stroke-linecap="round" stroke-linejoin="round"/>
<path d="M156.775 170.678L146.515 172.984L150.372 190.426L160.631 188.12L156.775 170.678Z" fill="white" stroke="#192839" stroke-miterlimit="10" stroke-linecap="round" stroke-linejoin="round"/>
<path d="M204.673 81.3412C203.878 75.672 204.245 68.2158 204.245 68.2158C203.817 64.7649 202.839 65.0114 195.017 65.1963C188.722 65.3812 162.198 66.552 152.114 67.0449C150.342 67.1066 148.569 67.1066 146.797 67.0449C137.263 66.6752 105.117 65.3812 98.4553 65.1963C90.6326 65.0114 89.6548 64.7649 89.227 68.2158C89.227 68.2158 89.6548 75.672 88.7992 81.3412C88.0047 87.0104 78.7764 110.427 78.7764 110.427L90.5715 118.931C90.5715 118.931 95.1551 113.446 96.5607 102.354C97.9664 91.2624 96.3774 83.5596 98.7609 81.5261C100.717 79.8623 131.518 81.3412 142.702 81.8958C145.33 82.0191 148.019 82.0191 150.647 81.8958C161.77 81.3412 192.572 79.8623 194.589 81.5261C196.972 83.5596 195.383 91.2007 196.789 102.354C198.194 113.446 202.778 118.931 202.778 118.931L214.573 110.427C214.695 110.427 205.467 87.0104 204.673 81.3412Z" fill="#00BC54" stroke="#192839" stroke-miterlimit="10" stroke-linecap="round" stroke-linejoin="round"/>
<path d="M125.572 77.2304C125.106 77.2304 124.7 77.1454 124.355 76.9754C124.01 76.8055 123.744 76.5687 123.556 76.2652C123.368 75.9616 123.274 75.6095 123.274 75.2089H124.074C124.074 75.4578 124.131 75.6885 124.246 75.9009C124.361 76.1073 124.528 76.2743 124.746 76.4018C124.97 76.5232 125.245 76.5839 125.572 76.5839C126.002 76.5839 126.335 76.4807 126.571 76.2743C126.807 76.0679 126.925 75.8099 126.925 75.5003C126.925 75.2453 126.871 75.0419 126.762 74.8902C126.653 74.7323 126.504 74.6049 126.317 74.5077C126.135 74.4106 125.923 74.3256 125.681 74.2528C125.445 74.1799 125.197 74.098 124.936 74.0069C124.446 73.8369 124.083 73.6275 123.847 73.3786C123.61 73.1236 123.492 72.7928 123.492 72.386C123.486 72.0461 123.565 71.7456 123.728 71.4845C123.892 71.2174 124.122 71.011 124.419 70.8653C124.721 70.7136 125.079 70.6377 125.49 70.6377C125.896 70.6377 126.247 70.7136 126.544 70.8653C126.846 71.0171 127.08 71.2265 127.243 71.4937C127.413 71.7608 127.5 72.0643 127.506 72.4043H126.707C126.707 72.2282 126.662 72.0552 126.571 71.8852C126.48 71.7092 126.341 71.5665 126.153 71.4572C125.972 71.348 125.742 71.2933 125.463 71.2933C125.118 71.2873 124.833 71.3753 124.609 71.5574C124.391 71.7395 124.282 71.9914 124.282 72.3132C124.282 72.5864 124.358 72.7958 124.509 72.9415C124.667 73.0872 124.885 73.2086 125.163 73.3057C125.442 73.3968 125.763 73.503 126.126 73.6244C126.429 73.7337 126.701 73.8612 126.943 74.0069C127.185 74.1526 127.373 74.3408 127.506 74.5715C127.646 74.8022 127.715 75.0966 127.715 75.4547C127.715 75.7583 127.637 76.0466 127.479 76.3198C127.322 76.5869 127.083 76.8055 126.762 76.9754C126.447 77.1454 126.05 77.2304 125.572 77.2304Z" fill="#192839"/>
<path d="M132.094 77.2304C131.658 77.2304 131.261 77.1454 130.904 76.9754C130.553 76.7994 130.271 76.5292 130.059 76.165C129.847 75.8008 129.742 75.3364 129.742 74.7718V70.747H130.504V74.7809C130.504 75.4001 130.653 75.8493 130.949 76.1286C131.246 76.4078 131.633 76.5475 132.112 76.5475C132.59 76.5475 132.974 76.4078 133.265 76.1286C133.556 75.8493 133.701 75.4001 133.701 74.7809V70.747H134.464V74.7718C134.464 75.3364 134.358 75.8008 134.146 76.165C133.934 76.5292 133.65 76.7994 133.292 76.9754C132.935 77.1454 132.536 77.2304 132.094 77.2304Z" fill="#192839"/>
<path d="M139.543 77.2304C138.919 77.2304 138.38 77.0938 137.926 76.8206C137.478 76.5414 137.13 76.1559 136.882 75.6642C136.634 75.1664 136.509 74.5897 136.509 73.9341C136.509 73.2845 136.634 72.7139 136.882 72.2221C137.13 71.7243 137.478 71.3358 137.926 71.0566C138.38 70.7773 138.919 70.6377 139.543 70.6377C140.269 70.6377 140.859 70.8137 141.313 71.1658C141.774 71.5119 142.067 71.9975 142.194 72.6228H141.35C141.253 72.2282 141.053 71.9125 140.75 71.6758C140.454 71.4329 140.051 71.3115 139.543 71.3115C139.089 71.3115 138.692 71.4178 138.353 71.6302C138.014 71.8366 137.751 72.1371 137.563 72.5317C137.381 72.9203 137.29 73.3877 137.29 73.9341C137.29 74.4804 137.381 74.9509 137.563 75.3455C137.751 75.734 138.014 76.0345 138.353 76.247C138.692 76.4534 139.089 76.5566 139.543 76.5566C140.051 76.5566 140.454 76.4412 140.75 76.2105C141.053 75.9738 141.253 75.6611 141.35 75.2726H142.194C142.067 75.8858 141.774 76.3653 141.313 76.7114C140.859 77.0574 140.269 77.2304 139.543 77.2304Z" fill="#192839"/>
<path d="M147.078 77.2304C146.454 77.2304 145.915 77.0938 145.461 76.8206C145.013 76.5414 144.665 76.1559 144.417 75.6642C144.169 75.1664 144.044 74.5897 144.044 73.9341C144.044 73.2845 144.169 72.7139 144.417 72.2221C144.665 71.7243 145.013 71.3358 145.461 71.0566C145.915 70.7773 146.454 70.6377 147.078 70.6377C147.804 70.6377 148.394 70.8137 148.849 71.1658C149.309 71.5119 149.602 71.9975 149.729 72.6228H148.885C148.788 72.2282 148.588 71.9125 148.286 71.6758C147.989 71.4329 147.586 71.3115 147.078 71.3115C146.624 71.3115 146.227 71.4178 145.888 71.6302C145.549 71.8366 145.286 72.1371 145.098 72.5317C144.916 72.9203 144.825 73.3877 144.825 73.9341C144.825 74.4804 144.916 74.9509 145.098 75.3455C145.286 75.734 145.549 76.0345 145.888 76.247C146.227 76.4534 146.624 76.5566 147.078 76.5566C147.586 76.5566 147.989 76.4412 148.286 76.2105C148.588 75.9738 148.788 75.6611 148.885 75.2726H149.729C149.602 75.8858 149.309 76.3653 148.849 76.7114C148.394 77.0574 147.804 77.2304 147.078 77.2304Z" fill="#192839"/>
<path d="M151.825 77.1211V70.747H155.757V71.3753H152.588V73.5971H155.485V74.2163H152.588V76.4928H155.757V77.1211H151.825Z" fill="#192839"/>
<path d="M159.975 77.2304C159.509 77.2304 159.103 77.1454 158.758 76.9754C158.413 76.8055 158.146 76.5687 157.959 76.2652C157.771 75.9616 157.677 75.6095 157.677 75.2089H158.476C158.476 75.4578 158.534 75.6885 158.649 75.9009C158.764 76.1073 158.931 76.2743 159.148 76.4018C159.372 76.5232 159.648 76.5839 159.975 76.5839C160.405 76.5839 160.738 76.4807 160.974 76.2743C161.21 76.0679 161.328 75.8099 161.328 75.5003C161.328 75.2453 161.274 75.0419 161.165 74.8902C161.056 74.7323 160.907 74.6049 160.72 74.5077C160.538 74.4106 160.326 74.3256 160.084 74.2528C159.848 74.1799 159.6 74.098 159.339 74.0069C158.849 73.8369 158.486 73.6275 158.249 73.3786C158.013 73.1236 157.895 72.7928 157.895 72.386C157.889 72.0461 157.968 71.7456 158.131 71.4845C158.295 71.2174 158.525 71.011 158.822 70.8653C159.124 70.7136 159.481 70.6377 159.893 70.6377C160.299 70.6377 160.65 70.7136 160.947 70.8653C161.249 71.0171 161.482 71.2265 161.646 71.4937C161.815 71.7608 161.903 72.0643 161.909 72.4043H161.11C161.11 72.2282 161.065 72.0552 160.974 71.8852C160.883 71.7092 160.744 71.5665 160.556 71.4572C160.374 71.348 160.144 71.2933 159.866 71.2933C159.521 71.2873 159.236 71.3753 159.012 71.5574C158.794 71.7395 158.685 71.9914 158.685 72.3132C158.685 72.5864 158.761 72.7958 158.912 72.9415C159.07 73.0872 159.288 73.2086 159.566 73.3057C159.845 73.3968 160.166 73.503 160.529 73.6244C160.832 73.7337 161.104 73.8612 161.346 74.0069C161.588 74.1526 161.776 74.3408 161.909 74.5715C162.048 74.8022 162.118 75.0966 162.118 75.4547C162.118 75.7583 162.039 76.0466 161.882 76.3198C161.725 76.5869 161.485 76.8055 161.165 76.9754C160.85 77.1454 160.453 77.2304 159.975 77.2304Z" fill="#192839"/>
<path d="M166.224 77.2304C165.758 77.2304 165.352 77.1454 165.007 76.9754C164.662 76.8055 164.396 76.5687 164.208 76.2652C164.02 75.9616 163.926 75.6095 163.926 75.2089H164.726C164.726 75.4578 164.783 75.6885 164.898 75.9009C165.013 76.1073 165.18 76.2743 165.398 76.4018C165.622 76.5232 165.897 76.5839 166.224 76.5839C166.654 76.5839 166.987 76.4807 167.223 76.2743C167.459 76.0679 167.577 75.8099 167.577 75.5003C167.577 75.2453 167.523 75.0419 167.414 74.8902C167.305 74.7323 167.156 74.6049 166.969 74.5077C166.787 74.4106 166.575 74.3256 166.333 74.2528C166.097 74.1799 165.849 74.098 165.588 74.0069C165.098 73.8369 164.735 73.6275 164.499 73.3786C164.262 73.1236 164.144 72.7928 164.144 72.386C164.138 72.0461 164.217 71.7456 164.381 71.4845C164.544 71.2174 164.774 71.011 165.071 70.8653C165.373 70.7136 165.731 70.6377 166.142 70.6377C166.548 70.6377 166.899 70.7136 167.196 70.8653C167.498 71.0171 167.732 71.2265 167.895 71.4937C168.065 71.7608 168.152 72.0643 168.158 72.4043H167.359C167.359 72.2282 167.314 72.0552 167.223 71.8852C167.132 71.7092 166.993 71.5665 166.805 71.4572C166.624 71.348 166.394 71.2933 166.115 71.2933C165.77 71.2873 165.485 71.3753 165.261 71.5574C165.043 71.7395 164.934 71.9914 164.934 72.3132C164.934 72.5864 165.01 72.7958 165.162 72.9415C165.319 73.0872 165.537 73.2086 165.815 73.3057C166.094 73.3968 166.415 73.503 166.778 73.6244C167.081 73.7337 167.353 73.8612 167.595 74.0069C167.837 74.1526 168.025 74.3408 168.158 74.5715C168.298 74.8022 168.367 75.0966 168.367 75.4547C168.367 75.7583 168.289 76.0466 168.131 76.3198C167.974 76.5869 167.735 76.8055 167.414 76.9754C167.099 77.1454 166.702 77.2304 166.224 77.2304Z" fill="#192839"/>
<path d="M208.829 94.7744L197.034 103.586C197.217 104.757 197.4 105.866 197.645 106.914L209.929 97.9788C209.562 96.9312 209.196 95.822 208.829 94.7744Z" fill="white" stroke="#192839" stroke-miterlimit="10" stroke-linecap="round" stroke-linejoin="round"/>
<path d="M211.518 102.169L198.745 110.796C199.234 112.152 199.723 113.323 200.151 114.37L213.107 106.421C212.679 105.25 212.129 103.771 211.518 102.169Z" fill="white" stroke="#192839" stroke-miterlimit="10" stroke-linecap="round" stroke-linejoin="round"/>
<path d="M95.278 109.132L82.6272 100.505C82.0161 102.107 81.466 103.648 80.916 105.003L93.7501 113.445C94.239 112.213 94.7891 110.796 95.278 109.132Z" fill="white" stroke="#192839" stroke-miterlimit="10" stroke-linecap="round" stroke-linejoin="round"/>
<path d="M96.9279 99.8891L86.2328 90.4609C85.9272 91.4469 85.5605 92.4945 85.1938 93.4804L96.6223 102.847C96.6223 102.662 96.6834 102.539 96.6834 102.354C96.7445 101.491 96.8668 100.69 96.9279 99.8891Z" fill="white" stroke="#192839" stroke-miterlimit="10" stroke-linecap="round" stroke-linejoin="round"/>
<path d="M89.594 66.614C89.594 66.614 86.7216 65.6281 86.2938 67.0454C85.866 68.4627 89.1662 71.9135 90.4496 70.9276C91.6719 69.9416 89.594 66.614 89.594 66.614Z" fill="white" stroke="#192839" stroke-miterlimit="10" stroke-linecap="round" stroke-linejoin="round"/>
<path d="M86.6608 68.709C86.6608 68.709 85.3774 69.6949 85.7441 70.6809C86.1108 71.6668 88.7998 73.2074 89.4721 72.7144C90.1444 72.1598 89.5332 71.1122 89.5332 71.1122C89.5332 71.1122 86.5997 69.5101 86.6608 68.709Z" fill="white" stroke="#192839" stroke-miterlimit="10" stroke-linecap="round" stroke-linejoin="round"/>
<path d="M85.8049 70.6191C85.8049 70.6191 85.4382 72.8992 86.0494 73.3921C86.6605 73.9467 89.1051 74.9943 89.7162 74.5013C90.3274 74.07 89.594 72.6527 89.594 72.6527C89.594 72.6527 86.6605 72.0364 85.8049 70.6191Z" fill="white" stroke="#192839" stroke-miterlimit="10" stroke-linecap="round" stroke-linejoin="round"/>
<path d="M85.9888 73.3926C85.9888 73.3926 86.2332 74.7483 87.0277 75.4261C87.8222 76.1039 89.4723 76.7202 89.5334 76.0423C89.5945 75.3645 88.8 74.6866 88.8 74.6866C88.8 74.6866 86.5388 73.7007 85.9888 73.3926Z" fill="white" stroke="#192839" stroke-miterlimit="10" stroke-linecap="round" stroke-linejoin="round"/>
<path d="M203.389 66.614C203.389 66.614 206.262 65.6281 206.69 67.0454C207.117 68.4627 203.817 71.9135 202.534 70.9276C201.372 69.9416 203.389 66.614 203.389 66.614Z" fill="white" stroke="#192839" stroke-miterlimit="10" stroke-linecap="round" stroke-linejoin="round"/>
<path d="M206.324 68.709C206.324 68.709 207.607 69.6949 207.24 70.6809C206.874 71.6668 204.185 73.2074 203.512 72.7144C202.84 72.1598 203.451 71.1122 203.451 71.1122C203.451 71.1122 206.385 69.5101 206.324 68.709Z" fill="white" stroke="#192839" stroke-miterlimit="10" stroke-linecap="round" stroke-linejoin="round"/>
<path d="M207.239 70.6191C207.239 70.6191 207.606 72.8991 206.995 73.3921C206.383 73.9467 203.939 74.9943 203.328 74.5013C202.717 74.07 203.45 72.6527 203.45 72.6527C203.45 72.6527 206.322 72.0364 207.239 70.6191Z" fill="white" stroke="#192839" stroke-miterlimit="10" stroke-linecap="round" stroke-linejoin="round"/>
<path d="M206.996 73.3926C206.996 73.3926 206.751 74.7483 205.957 75.4261C205.162 76.104 203.512 76.7202 203.451 76.0423C203.39 75.3645 204.184 74.6866 204.184 74.6866C204.184 74.6866 206.446 73.7007 206.996 73.3926Z" fill="white" stroke="#192839" stroke-miterlimit="10" stroke-linecap="round" stroke-linejoin="round"/>
<path d="M53.2931 212.719H25.547C15.7686 212.719 7.82373 220.73 7.82373 230.589V249.692H71.0163V230.589C71.0163 220.73 63.0714 212.719 53.2931 212.719Z" fill="#C5CAD4" stroke="#192839" stroke-miterlimit="10" stroke-linecap="round" stroke-linejoin="round"/>
<path d="M121.802 212.719H94.0563C84.2779 212.719 76.333 220.73 76.333 230.589V249.692H139.526V230.589C139.526 220.73 131.642 212.719 121.802 212.719Z" fill="#C5CAD4" stroke="#192839" stroke-miterlimit="10" stroke-linecap="round" stroke-linejoin="round"/>
<path d="M190.312 212.719H162.566C152.787 212.719 144.842 220.73 144.842 230.589V249.692H208.035V230.589C208.096 220.73 200.151 212.719 190.312 212.719Z" fill="#C5CAD4" stroke="#192839" stroke-miterlimit="10" stroke-linecap="round" stroke-linejoin="round"/>
<path d="M258.884 212.719H231.138C221.359 212.719 213.415 220.73 213.415 230.589V249.692H276.607V230.589C276.607 220.73 268.662 212.719 258.884 212.719Z" fill="#C5CAD4" stroke="#192839" stroke-miterlimit="10" stroke-linecap="round" stroke-linejoin="round"/>
<path d="M167.027 175.808C167.027 175.808 166.721 171.371 166.904 169.953C167.088 168.536 172.099 170.385 173.444 170.878C174.788 171.371 173.26 173.651 171.793 174.698C170.388 175.684 168.127 176.239 167.027 175.808Z" stroke="#192839" stroke-miterlimit="10" stroke-linecap="round" stroke-linejoin="round"/>
<path d="M176.133 157.69C176.133 157.69 176.622 147.523 177.661 141.114C178.7 134.705 179.372 128.913 179.372 128.913C179.372 128.913 181.939 126.879 182.305 125.893C182.672 124.907 182.855 123.244 183.039 122.874C183.222 122.504 185.667 119.177 186.339 118.006C186.95 116.835 187.256 115.048 186.094 115.603C184.933 116.157 183.65 117.821 182.611 119.177C181.633 120.532 181.511 119.916 180.9 119.731C180.289 119.546 179.739 116.404 179.739 115.787C179.739 115.171 180.289 109.933 180.166 108.824C180.105 107.715 178.516 107.9 178.15 109.564C177.783 111.227 176.499 116.897 176.499 116.897C176.499 116.897 175.888 118.437 175.522 118.93C175.155 119.361 170.694 122.073 170.266 123.675C169.838 125.339 171.366 131.994 171.366 131.994C171.366 131.994 165.438 147.338 163.421 151.651C161.404 155.965 161.771 165.948 162.871 168.721C163.971 171.494 170.327 172.233 170.938 171.74C171.549 171.309 174.849 164.962 175.399 162.743C175.888 160.525 176.133 157.69 176.133 157.69Z" fill="white" stroke="#192839" stroke-miterlimit="10" stroke-linecap="round" stroke-linejoin="round"/>
<path d="M170.143 125.03C170.143 125.03 169.898 122.812 170.509 121.148C171.12 119.485 172.954 119.977 173.626 120.717C174.237 121.456 175.337 123.367 175.643 124.229C175.887 125.03 175.643 126.325 175.215 126.694C174.787 127.064 173.382 127.064 172.77 126.325L171.976 124.661" fill="white"/>
<path d="M170.143 125.03C170.143 125.03 169.898 122.812 170.509 121.148C171.12 119.485 172.954 119.977 173.626 120.717C174.237 121.456 175.337 123.367 175.643 124.229C175.887 125.03 175.643 126.325 175.215 126.694C174.787 127.064 173.382 127.064 172.77 126.325L171.976 124.661" stroke="#192839" stroke-miterlimit="10" stroke-linecap="round" stroke-linejoin="round"/>
<path d="M172.587 119.917C172.587 119.917 173.381 118.006 174.604 118.068C175.765 118.129 178.087 122.998 177.965 124.415C177.843 125.832 176.07 126.079 176.07 126.079C176.07 126.079 176.132 125.462 175.643 124.23C175.093 123.059 173.076 119.608 172.587 119.917Z" fill="white" stroke="#192839" stroke-miterlimit="10" stroke-linecap="round" stroke-linejoin="round"/>
<path d="M174.604 118.068C174.604 118.068 175.032 115.788 176.437 116.897C177.843 118.006 179.615 121.211 179.615 122.69C179.615 124.168 177.965 124.415 177.965 124.415C177.965 124.415 177.782 122.69 177.049 121.211C176.315 119.732 174.604 118.068 174.604 118.068Z" fill="white" stroke="#192839" stroke-miterlimit="10" stroke-linecap="round" stroke-linejoin="round"/>
<path d="M173.138 130.638C173.138 130.638 174.849 131.563 176.072 130.7C177.233 129.899 178.15 128.481 178.15 128.481" stroke="#192839" stroke-miterlimit="10" stroke-linecap="round" stroke-linejoin="round"/>
<path d="M172.527 143.394C170.632 143.271 168.921 142.039 167.76 140.991C166.11 145.182 164.276 149.618 163.359 151.652C161.343 155.965 161.709 165.948 162.809 168.721C163.909 171.494 170.265 172.234 170.877 171.741C171.488 171.309 174.788 164.962 175.338 162.744C175.888 160.525 176.132 157.629 176.132 157.629C176.132 157.629 176.621 148.324 177.538 141.916C176.255 142.717 174.421 143.579 172.527 143.394Z" fill="#00BC54" stroke="#192839" stroke-miterlimit="10" stroke-linecap="round" stroke-linejoin="round"/>
<path d="M247.392 157.69C247.392 157.69 246.903 147.523 245.864 141.114C244.886 134.705 244.153 128.913 244.153 128.913C244.153 128.913 241.586 126.879 241.219 125.893C240.853 124.907 240.669 123.244 240.486 122.874C240.303 122.504 237.858 119.177 237.186 118.006C236.575 116.835 236.269 115.048 237.43 115.603C238.591 116.157 239.875 117.821 240.914 119.177C241.891 120.532 242.014 119.916 242.625 119.731C243.236 119.546 243.786 116.404 243.786 115.787C243.786 115.171 243.236 109.933 243.358 108.824C243.419 107.715 245.008 107.9 245.375 109.564C245.742 111.227 247.025 116.897 247.025 116.897C247.025 116.897 247.636 118.437 248.003 118.93C248.37 119.361 252.831 122.073 253.259 123.675C253.687 125.339 252.159 131.994 252.159 131.994C252.159 131.994 258.087 147.338 260.104 151.651C262.12 155.965 261.754 165.948 260.654 168.721C259.554 171.494 253.198 172.233 252.587 171.74C251.975 171.309 248.675 164.962 248.125 162.743C247.636 160.525 247.392 157.69 247.392 157.69Z" fill="white" stroke="#192839" stroke-miterlimit="10" stroke-linecap="round" stroke-linejoin="round"/>
<path d="M253.382 125.03C253.382 125.03 253.626 122.812 253.015 121.148C252.404 119.485 250.57 119.977 249.898 120.717C249.287 121.456 248.187 123.367 247.881 124.229C247.637 125.03 247.881 126.325 248.309 126.694C248.737 127.064 250.143 127.064 250.754 126.325L251.548 124.661" fill="white"/>
<path d="M253.382 125.03C253.382 125.03 253.626 122.812 253.015 121.148C252.404 119.485 250.57 119.977 249.898 120.717C249.287 121.456 248.187 123.367 247.881 124.229C247.637 125.03 247.881 126.325 248.309 126.694C248.737 127.064 250.143 127.064 250.754 126.325L251.548 124.661" stroke="#192839" stroke-miterlimit="10" stroke-linecap="round" stroke-linejoin="round"/>
<path d="M250.936 119.917C250.936 119.917 250.141 118.006 248.919 118.068C247.758 118.129 245.436 122.998 245.558 124.415C245.619 125.771 247.452 126.079 247.452 126.079C247.452 126.079 247.391 125.462 247.88 124.23C248.491 123.059 250.447 119.608 250.936 119.917Z" fill="white" stroke="#192839" stroke-miterlimit="10" stroke-linecap="round" stroke-linejoin="round"/>
<path d="M248.92 118.067C248.92 118.067 248.492 115.787 247.086 116.896C245.681 118.005 243.908 121.21 243.908 122.689C243.908 124.167 245.558 124.414 245.558 124.414C245.558 124.414 245.742 122.689 246.475 121.21C247.208 119.731 248.92 118.067 248.92 118.067Z" fill="white" stroke="#192839" stroke-miterlimit="10" stroke-linecap="round" stroke-linejoin="round"/>
<path d="M250.387 130.638C250.387 130.638 248.676 131.563 247.454 130.7C246.293 129.899 245.376 128.481 245.376 128.481" stroke="#192839" stroke-miterlimit="10" stroke-linecap="round" stroke-linejoin="round"/>
<path d="M256.131 175.252C256.131 175.252 256.437 170.384 256.254 168.536C256.009 166.749 252.159 170.199 251.731 171.185C251.242 172.171 255.092 175.067 256.131 175.252Z" fill="white" stroke="#192839" stroke-miterlimit="10" stroke-linecap="round" stroke-linejoin="round"/>
<path d="M250.998 143.393C252.893 143.27 254.604 142.038 255.765 140.99C257.415 145.181 259.249 149.617 260.165 151.651C262.182 155.964 261.816 165.947 260.715 168.72C259.615 171.493 253.259 172.233 252.648 171.74C252.037 171.308 248.737 164.961 248.187 162.743C247.637 160.524 247.392 157.628 247.392 157.628C247.392 157.628 246.904 148.323 245.987 141.915C247.27 142.716 249.104 143.578 250.998 143.393Z" fill="#00BC54" stroke="#192839" stroke-miterlimit="10" stroke-linecap="round" stroke-linejoin="round"/>
<path d="M182.305 249.692C182.305 249.692 182.183 247.412 184.322 234.286C186.461 221.161 191.656 207.665 191.839 206.187C192.083 204.708 188.905 183.633 188.905 183.633C188.905 183.633 187.133 182.524 181.388 180.429C175.644 178.395 167.026 175.807 167.026 175.807C167.026 175.807 171.06 172.171 172.282 168.351C173.505 164.53 176.132 157.69 176.132 157.69L181.083 158.491C181.083 158.491 187.133 158.368 190.739 158.861C194.345 159.292 200.945 161.696 200.945 161.696C200.945 161.696 206.995 163.976 213.535 164.962C220.074 166.009 221.052 164.838 225.574 162.497C230.097 160.093 232.969 158.306 236.942 158.43C240.853 158.553 243.664 158.183 243.664 158.183L247.392 157.259C247.392 157.259 248.064 162.805 250.081 166.194C252.098 169.583 256.132 175.252 256.132 175.252C256.132 175.252 239.814 180.552 238.592 181.476C237.369 182.401 236.88 182.955 236.88 182.955C236.88 182.955 234.314 203.105 234.314 205.201C234.314 207.234 239.936 225.043 241.525 230.342C243.114 235.642 245.131 245.44 245.559 249.507" fill="white"/>
<path d="M182.305 249.692C182.305 249.692 182.183 247.412 184.322 234.286C186.461 221.161 191.656 207.665 191.839 206.187C192.083 204.708 188.905 183.633 188.905 183.633C188.905 183.633 187.133 182.524 181.388 180.429C175.644 178.395 167.026 175.807 167.026 175.807C167.026 175.807 171.06 172.171 172.282 168.351C173.505 164.53 176.132 157.69 176.132 157.69L181.083 158.491C181.083 158.491 187.133 158.368 190.739 158.861C194.345 159.292 200.945 161.696 200.945 161.696C200.945 161.696 206.995 163.976 213.535 164.962C220.074 166.009 221.052 164.838 225.574 162.497C230.097 160.093 232.969 158.306 236.942 158.43C240.853 158.553 243.664 158.183 243.664 158.183L247.392 157.259C247.392 157.259 248.064 162.805 250.081 166.194C252.098 169.583 256.132 175.252 256.132 175.252C256.132 175.252 239.814 180.552 238.592 181.476C237.369 182.401 236.88 182.955 236.88 182.955C236.88 182.955 234.314 203.105 234.314 205.201C234.314 207.234 239.936 225.043 241.525 230.342C243.114 235.642 245.131 245.44 245.559 249.507" stroke="#192839" stroke-miterlimit="10" stroke-linecap="round" stroke-linejoin="round"/>
<path d="M197.278 240.018L209.99 247.659" stroke="#192839" stroke-miterlimit="10" stroke-linecap="round" stroke-linejoin="round"/>
<path d="M231.808 239.524L217.996 247.042" stroke="#192839" stroke-miterlimit="10" stroke-linecap="round" stroke-linejoin="round"/>
<path d="M238.592 181.476C239.814 180.552 256.132 175.252 256.132 175.252C256.132 175.252 252.098 169.583 250.081 166.194C248.064 162.805 247.392 157.259 247.392 157.259L243.664 158.183C243.664 158.183 240.853 158.553 236.942 158.43C233.03 158.306 230.097 160.155 225.574 162.497C221.052 164.9 220.074 166.009 213.535 164.962C206.995 163.914 200.945 161.696 200.945 161.696C200.945 161.696 194.284 159.292 190.739 158.861C187.133 158.43 181.083 158.491 181.083 158.491L176.132 157.69C176.132 157.69 173.566 164.469 172.282 168.351C171.06 172.233 167.026 175.807 167.026 175.807C167.026 175.807 175.705 178.395 181.388 180.429C187.133 182.462 188.905 183.633 188.905 183.633C188.905 183.633 192.083 204.708 191.839 206.187C191.594 207.604 186.95 219.867 184.627 232.437C189.333 234.717 200.028 238.661 216.224 238.538C229.302 238.415 237.553 235.457 242.259 232.93C242.014 232.006 241.77 231.143 241.525 230.342C239.936 225.043 234.314 207.234 234.314 205.201C234.314 203.167 236.88 182.955 236.88 182.955C236.88 182.955 237.369 182.401 238.592 181.476Z" fill="#192839" stroke="#192839" stroke-miterlimit="10" stroke-linecap="round" stroke-linejoin="round"/>
<path d="M221.54 164.099C221.54 164.099 222.64 191.089 222.64 201.627C222.64 212.164 223.74 216.354 223.74 216.354C223.74 216.354 229.913 216.909 232.969 215.553C236.024 214.198 238.897 212.965 238.897 212.965C238.897 212.965 236.33 203.537 233.152 190.843C229.974 178.149 227.407 170.569 226.429 167.365C225.39 164.161 224.657 162.62 224.657 162.62L221.54 164.099Z" fill="#00BC54" stroke="#192839" stroke-miterlimit="10" stroke-linecap="round" stroke-linejoin="round"/>
<path d="M222.579 195.712L233.885 193.616C233.641 192.692 233.458 191.829 233.213 190.905C233.152 190.535 233.03 190.227 232.969 189.857L222.518 191.768C222.518 193.123 222.579 194.417 222.579 195.712Z" fill="white" stroke="#192839" stroke-miterlimit="10" stroke-linecap="round" stroke-linejoin="round"/>
<path d="M235.536 200.148L222.641 202.675C222.641 204.277 222.702 205.694 222.763 206.988L236.881 205.14C236.453 203.661 236.025 201.997 235.536 200.148Z" fill="white" stroke="#192839" stroke-miterlimit="10" stroke-linecap="round" stroke-linejoin="round"/>
<path d="M199.172 160.401C199.172 160.401 197.277 176.608 195.444 187.145C193.672 197.683 188.905 214.567 188.905 214.567C188.905 214.567 193.305 215.799 196.239 216.292C199.172 216.724 202.411 217.217 202.411 217.217C202.411 217.217 204.306 203.845 204.978 189.117C205.65 174.39 203.083 161.018 203.083 161.018L199.172 160.401Z" fill="#00BC54" stroke="#192839" stroke-miterlimit="10" stroke-linecap="round" stroke-linejoin="round"/>
<path d="M193.855 195.033L204.55 196.696C204.672 195.341 204.733 193.985 204.795 192.629L194.649 191.15C194.405 192.383 194.161 193.677 193.855 195.033Z" fill="white" stroke="#192839" stroke-miterlimit="10" stroke-linecap="round" stroke-linejoin="round"/>
<path d="M204.122 201.75L192.633 200.209C192.266 201.688 191.899 203.167 191.533 204.584L203.695 206.001C203.878 204.646 204 203.228 204.122 201.75Z" fill="white" stroke="#192839" stroke-miterlimit="10" stroke-linecap="round" stroke-linejoin="round"/>
<path d="M202.656 165.023L211.396 211.979H213.412L203.756 165.147L202.656 165.023Z" fill="#95A1B5" stroke="#192839" stroke-miterlimit="10" stroke-linecap="round" stroke-linejoin="round"/>
<path d="M213.413 211.979L221.541 164.099L223.558 163.544L215.246 212.287L213.413 211.979Z" fill="#95A1B5" stroke="#192839" stroke-miterlimit="10" stroke-linecap="round" stroke-linejoin="round"/>
<path d="M202.412 153.254L202.657 165.024C202.657 165.024 202.412 167.612 207.851 170.138C213.229 172.603 216.407 169.892 217.752 168.659C219.096 167.427 221.602 164.099 221.602 164.099L219.891 155.287C219.891 155.287 212.252 157.198 208.768 156.89C205.223 156.52 202.412 153.254 202.412 153.254Z" fill="white" stroke="#192839" stroke-miterlimit="10" stroke-linecap="round" stroke-linejoin="round"/>
<path d="M217.385 129.776C217.385 129.776 213.901 124.785 209.501 124.476C205.101 124.107 194.65 135.692 193.733 141.053C192.816 146.352 195.506 149.68 196.178 151.159C196.85 152.638 194.833 156.951 193.794 161.696C192.755 166.441 195.017 168.844 197.156 171.679C199.295 174.513 199.05 177.779 197.4 176.917C195.689 175.992 196.85 173.651 195.628 174.637C194.405 175.684 191.472 179.382 197.889 182.339C204.306 185.297 206.323 177.102 206.873 174.637C207.423 172.172 207.24 168.29 205.101 165.024C202.962 161.758 202.167 156.766 202.167 154.918C202.167 153.069 204.55 140.498 209.379 137.787C214.207 135.075 217.812 136.862 219.401 139.697C220.99 142.532 222.579 146.475 223.435 146.414C224.352 146.291 224.779 147.338 225.146 146.66C225.513 145.982 227.591 141.422 225.146 136.369C222.64 131.132 217.385 129.776 217.385 129.776Z" fill="#00BC54" stroke="#192839" stroke-miterlimit="10" stroke-linecap="round" stroke-linejoin="round"/>
<path d="M216.162 129.468C216.162 129.468 208.095 132.056 205.956 134.706C203.817 137.294 201.8 141.176 201.128 142.963C200.456 144.75 199.661 146.845 199.661 146.845C199.661 146.845 197.4 144.688 196.606 147.954C195.811 151.22 197.95 153.192 199.172 153.624C200.395 154.055 200.395 154.055 200.395 154.055C200.395 154.055 201.739 156.212 203.084 157.321C204.428 158.43 207.912 162.189 213.107 161.943C218.301 161.696 221.174 157.074 221.968 155.472C222.763 153.87 222.763 153.87 222.763 153.87C222.763 153.87 225.941 151.035 226.124 148.571C226.368 146.106 224.535 144.935 223.863 144.812C223.19 144.688 222.518 144.565 222.518 144.565C222.518 144.565 221.846 137.787 219.34 133.658C216.896 129.653 216.162 129.468 216.162 129.468Z" fill="white" stroke="#192839" stroke-miterlimit="10" stroke-linecap="round" stroke-linejoin="round"/>
<path d="M209.867 144.38C209.867 144.38 211.333 145.428 212.311 145.304C213.35 145.181 214.328 144.257 214.328 144.257" fill="white"/>
<path d="M209.867 144.38C209.867 144.38 211.333 145.428 212.311 145.304C213.35 145.181 214.328 144.257 214.328 144.257" stroke="#192839" stroke-miterlimit="10" stroke-linecap="round" stroke-linejoin="round"/>
<path d="M208.83 147.461C208.83 147.461 212.313 148.571 215.674 147.215C215.674 147.215 215.124 151.775 213.23 152.638C211.274 153.562 210.174 152.021 208.83 147.461Z" fill="#192839"/>
<path d="M210.539 138.957C210.539 138.957 207.728 138.279 204.672 138.403C201.617 138.526 198.622 139.327 198.622 140.005C198.622 140.683 199.417 141.237 199.661 142.408C199.905 143.517 199.539 145.674 203.572 146.044C207.606 146.414 209.867 144.565 210.295 142.285C210.723 140.005 210.539 138.957 210.539 138.957Z" fill="#192839" stroke="#192839" stroke-miterlimit="10" stroke-linecap="round" stroke-linejoin="round"/>
<path d="M213.351 138.957C213.351 138.957 216.162 138.279 219.218 138.403C222.273 138.526 225.268 139.327 225.268 140.005C225.268 140.683 224.474 141.237 224.229 142.408C223.985 143.517 224.351 145.674 220.318 146.044C216.284 146.414 214.023 144.565 213.595 142.285C213.106 140.005 213.351 138.957 213.351 138.957Z" fill="#192839" stroke="#192839" stroke-miterlimit="10" stroke-linecap="round" stroke-linejoin="round"/>
<path d="M210.539 138.957C210.539 138.957 212.434 138.403 213.35 138.957V140.19C213.35 140.19 212.434 139.512 210.784 140.19L210.539 138.957Z" fill="#192839" stroke="#192839" stroke-miterlimit="10" stroke-linecap="round" stroke-linejoin="round"/>
<path d="M218.996 211.24L207.815 210.982L207.383 230.018L218.564 230.276L218.996 211.24Z" fill="white" stroke="#192839" stroke-miterlimit="10" stroke-linecap="round" stroke-linejoin="round"/>
<path d="M92.405 129.652C92.405 129.652 92.0383 130.946 92.6495 131.193C93.2606 131.439 94.4218 131.686 95.0329 131.07C95.6441 130.453 95.2774 129.652 95.2774 129.652H92.405Z" stroke="#192839" stroke-miterlimit="10" stroke-linecap="round" stroke-linejoin="round"/>
<path d="M95.3394 130.269C95.3394 130.269 96.0727 131.44 97.4784 131.563C98.884 131.686 101.879 130.022 101.879 130.022C101.879 130.022 96.9283 127.619 96.5617 127.619C96.195 127.619 95.5838 128.913 95.3394 130.269Z" stroke="#192839" stroke-miterlimit="10" stroke-linecap="round" stroke-linejoin="round"/>
<path d="M55.9814 249.692L57.2037 226.707C57.2037 226.707 65.882 232.746 80.1218 230.589C94.3615 228.433 99.8007 224.797 99.8007 224.797L103.956 249.261" fill="#192839"/>
<path d="M55.9814 249.692L57.2037 226.707C57.2037 226.707 65.882 232.746 80.1218 230.589C94.3615 228.433 99.8007 224.797 99.8007 224.797L103.956 249.261" stroke="#192839" stroke-miterlimit="10" stroke-linecap="round" stroke-linejoin="round"/>
<path d="M66.7378 156.027C66.7378 156.027 50.1757 163.175 47.67 165.948C45.1643 168.783 40.703 188.625 40.703 188.625C40.703 188.625 37.4028 199.47 37.6472 201.873C37.8917 204.277 43.4531 205.694 48.0367 204.153C52.5592 202.613 55.126 200.333 55.126 200.333L57.0206 212.965L56.8983 228.679C56.8983 228.679 65.8822 234.78 78.8996 233.301C91.9171 231.76 99.0064 226.769 99.6175 226.276C100.229 225.783 100.229 225.783 100.229 225.783C100.229 225.783 97.8452 203.476 97.8452 201.935C97.8452 200.395 101.757 172.11 102.001 171.74C102.245 171.371 112.635 173.158 118.93 171.247C125.225 169.337 126.386 167.057 125.897 163.606C125.408 160.155 118.319 145.859 114.652 140.929C110.985 135.938 105.301 126.756 103.896 125.401C102.49 123.983 94.545 122.443 93.2616 121.95C91.9782 121.457 91.2448 122.689 91.1226 123.244C91.0004 123.737 90.7559 127.681 90.3892 128.605C90.0225 129.468 92.6504 130.146 93.9339 130.392C95.2173 130.639 95.9506 129.221 95.9506 129.221C95.9506 129.221 97.8452 130.084 99.1286 130.084C100.412 130.084 101.94 130.084 101.94 130.084C101.94 130.084 106.646 140.56 107.379 144.38C108.112 148.201 109.518 157.013 109.518 157.013L99.5564 152.822C99.5564 152.822 96.9285 150.419 92.956 150.789C89.0447 151.159 84.2166 153.87 83.6055 153.87C82.9943 153.87 79.083 153.87 79.083 153.87L66.7378 156.027Z" fill="white" stroke="#192839" stroke-miterlimit="10" stroke-linecap="round" stroke-linejoin="round"/>
<path d="M106.951 155.842L99.4954 152.699C99.4954 152.699 96.8674 150.296 92.895 150.666C88.9836 151.035 84.1556 153.747 83.5444 153.747C82.9333 153.747 79.0219 153.747 79.0219 153.747L66.7379 156.027C66.7379 156.027 50.1758 163.175 47.6701 165.948C45.1644 168.782 40.703 188.625 40.703 188.625C40.703 188.625 40.5808 188.994 40.3975 189.611L53.2315 192.815L55.1261 200.333L57.0207 212.965L56.8984 228.679C56.8984 228.679 65.8823 234.78 78.8997 233.301C91.9172 231.76 99.0065 226.769 99.6176 226.276C100.229 225.783 100.229 225.783 100.229 225.783C100.229 225.783 97.8453 203.476 97.8453 201.935C97.8453 200.395 101.757 172.11 102.001 171.74C102.062 171.617 103.284 171.74 105.118 171.864C104.14 170.446 103.284 168.474 103.284 165.886C103.284 161.449 105.729 157.506 106.951 155.842Z" fill="#00BC54" stroke="#192839" stroke-miterlimit="10" stroke-linecap="round" stroke-linejoin="round"/>
<path d="M65.2103 161.758L65.3325 156.644C64.7214 156.89 63.988 157.26 63.0713 157.63C63.1324 162.066 63.438 172.665 64.9658 182.155C66.9826 194.541 71.2607 206.372 71.2607 206.372L73.033 206.126C73.033 206.126 70.7717 196.205 68.3272 188.132C66.0048 180.121 65.2103 161.758 65.2103 161.758Z" fill="#95A1B5" stroke="#192839" stroke-miterlimit="10" stroke-linecap="round" stroke-linejoin="round"/>
<path d="M80.6729 182.833C82.4452 172.911 83.4841 160.649 83.6064 157.691C83.6675 156.089 83.7286 154.671 83.7286 153.747C83.6675 153.747 83.6675 153.747 83.6064 153.747C83.3619 153.747 82.5674 153.747 81.7118 153.747C81.8952 155.472 81.834 159.416 80.6117 168.66C78.3505 185.359 73.1558 206.126 73.1558 206.126L75.2948 206.742C75.2337 206.804 78.9005 192.754 80.6729 182.833Z" fill="#95A1B5" stroke="#192839" stroke-miterlimit="10" stroke-linecap="round" stroke-linejoin="round"/>
<path d="M95.9507 129.16L94.1784 127.25L93.3228 128.482" stroke="#192839" stroke-miterlimit="10" stroke-linecap="round" stroke-linejoin="round"/>
<path d="M109.456 156.951C109.456 156.951 109.823 161.943 110.862 163.298" stroke="#192839" stroke-miterlimit="10" stroke-linecap="round" stroke-linejoin="round"/>
<path d="M53.0484 192.014L50.7871 179.751" stroke="#192839" stroke-miterlimit="10" stroke-linecap="round" stroke-linejoin="round"/>
<path d="M102 171.741L96.561 171.494" stroke="#192839" stroke-miterlimit="10" stroke-linecap="round" stroke-linejoin="round"/>
<path d="M79.1454 205.924L68.7041 204.703L66.6624 222.454L77.1037 223.675L79.1454 205.924Z" fill="white" stroke="#192839" stroke-miterlimit="10" stroke-linecap="round" stroke-linejoin="round"/>
<path d="M55.1258 195.711C55.1258 195.711 49.931 196.081 49.5643 196.081C49.1977 196.081 43.514 195.711 39.4193 196.82C35.3857 197.991 35.019 204.215 35.019 205.879C35.019 207.542 37.0358 211.486 41.3139 211.856C45.5919 212.226 53.3535 203.414 53.5979 203.044C53.8424 202.674 57.387 202.798 58.426 202.428C59.4649 202.058 61.3595 200.641 61.3595 200.641C61.3595 200.641 61.8484 201.812 62.7651 201.688C63.6207 201.565 70.2211 194.787 70.5878 193.554C70.9545 192.26 71.3212 191.891 70.3433 191.274C69.3044 190.658 65.8209 187.577 64.4152 187.947C62.9485 188.316 55.1258 195.711 55.1258 195.711Z" fill="white" stroke="#192839" stroke-miterlimit="10" stroke-linecap="round" stroke-linejoin="round"/>
<path d="M70.5263 193.554C70.5263 193.554 72.4208 193.308 72.2986 194.17C72.1764 195.033 70.7707 197.744 69.3651 198.114C67.9595 198.484 67.5928 197.067 67.5928 197.067L70.5263 193.554Z" fill="white" stroke="#192839" stroke-miterlimit="10" stroke-linecap="round" stroke-linejoin="round"/>
<path d="M59.0376 193.431C59.0376 193.431 59.6487 193.246 60.0154 193.985C60.3821 194.725 60.9322 195.279 60.9322 195.279L65.2102 199.223" stroke="#192839" stroke-miterlimit="10" stroke-linecap="round" stroke-linejoin="round"/>
<path d="M61.4824 191.151C61.4824 191.151 62.0936 191.151 62.1547 191.644C62.2158 192.137 62.2769 192.445 62.2769 192.445L67.655 197.129" stroke="#192839" stroke-miterlimit="10" stroke-linecap="round" stroke-linejoin="round"/>
<path d="M63.6816 189.117C63.6816 189.117 64.5372 189.487 64.6595 189.98C64.7817 190.473 64.9651 190.781 64.9651 190.781C64.9651 190.781 69.4264 194.293 69.4264 194.478" stroke="#192839" stroke-miterlimit="10" stroke-linecap="round" stroke-linejoin="round"/>
<path d="M61.2983 200.702C61.2983 200.702 61.7261 199.47 61.9706 199.408C62.215 199.346 62.4595 199.901 62.4595 199.901" stroke="#192839" stroke-miterlimit="10" stroke-linecap="round" stroke-linejoin="round"/>
<path d="M65.21 149.988C65.21 149.988 64.5989 157.814 65.4545 164.038C65.6378 165.579 70.2214 168.229 74.6828 167.551C79.1442 166.811 81.1609 162.436 81.5276 160.649C81.8943 158.862 79.9998 145.613 79.9998 145.613C79.9998 145.613 79.2664 150.112 73.1549 151.344C67.0434 152.577 65.21 149.988 65.21 149.988Z" fill="white" stroke="#192839" stroke-miterlimit="10" stroke-linecap="round" stroke-linejoin="round"/>
<path d="M61.3599 137.109C61.3599 137.109 59.6487 135.199 58.6709 136.37C57.693 137.541 57.9986 140.868 59.8932 142.286C61.7877 143.703 62.3989 143.025 62.3989 143.025L62.1544 137.602L61.3599 137.109Z" fill="white" stroke="#192839" stroke-miterlimit="10" stroke-linecap="round" stroke-linejoin="round"/>
<path d="M60.2594 125.092C60.2594 125.092 57.5093 128.79 58.3038 131.008C59.0982 133.227 61.0539 136.184 61.115 136.493C61.1761 136.801 61.9095 138.464 61.9095 138.464L61.6039 126.263C61.6651 126.202 61.4817 124.107 60.2594 125.092Z" fill="#192839" stroke="#192839" stroke-miterlimit="10" stroke-linecap="round" stroke-linejoin="round"/>
<path d="M81.7108 137.109C81.7108 137.109 83.422 135.199 84.3999 136.37C85.3777 137.541 85.0721 140.868 83.1776 142.286C81.283 143.703 80.6719 143.025 80.6719 143.025L80.9163 137.602L81.7108 137.109Z" fill="white" stroke="#192839" stroke-miterlimit="10" stroke-linecap="round" stroke-linejoin="round"/>
<path d="M78.8995 122.319C78.8995 122.319 81.6497 122.504 82.6275 124.661C83.6054 126.756 81.4052 135.26 81.3441 136.184C81.283 137.109 77.6772 122.504 77.6772 122.504C77.6772 122.504 78.4106 122.134 78.8995 122.319Z" fill="#192839" stroke="#192839" stroke-miterlimit="10" stroke-linecap="round" stroke-linejoin="round"/>
<path d="M78.8995 122.32C78.8995 122.32 68.51 125.154 65.6376 126.387C62.8264 127.558 58.3039 127.126 57.5705 123.306C56.8371 119.485 66.5544 114.001 72.238 114.247C77.9217 114.494 80.9163 119.732 78.8995 122.32Z" fill="#192839" stroke="#192839" stroke-miterlimit="10" stroke-linecap="round" stroke-linejoin="round"/>
<path d="M78.9001 122.32C78.9001 122.32 80.6724 126.51 81.0391 129.591C81.4058 132.672 81.1613 141.176 81.1613 144.134C81.1613 147.092 80.5502 150.913 77.6167 153.316C74.6832 155.719 71.0163 155.719 68.1439 154.24C65.3326 152.823 62.8269 147.462 62.5214 144.812C62.1547 142.162 61.1157 126.079 61.1157 126.079C61.1157 126.079 63.6214 123.429 70.0996 121.889C76.5166 120.41 78.9001 122.32 78.9001 122.32Z" fill="white" stroke="#192839" stroke-miterlimit="10" stroke-linecap="round" stroke-linejoin="round"/>
<path d="M81.1598 132.98C81.0376 132.98 80.9765 132.98 80.9765 132.98L79.6931 141.669C79.6931 141.669 74.7428 138.465 71.3203 138.896C67.8979 139.389 64.5977 143.456 63.7421 143.21C62.8865 142.963 61.7253 133.658 61.7253 133.658L61.542 133.843C61.8476 138.403 62.2754 143.456 62.4587 144.874C62.8254 147.523 65.27 152.884 68.0813 154.302C70.8925 155.719 74.5594 155.719 77.554 153.377C80.4876 150.974 81.0987 147.154 81.0987 144.196C81.0987 141.977 81.2209 136.801 81.1598 132.98Z" fill="#192839" stroke="#192839" stroke-miterlimit="10" stroke-linecap="round" stroke-linejoin="round"/>
<path d="M69.9763 136.74C69.9763 136.74 68.9374 137.91 69.7319 138.527C70.5263 139.143 72.2376 140.807 73.1543 139.944C74.071 139.081 75.0488 138.28 74.9266 137.417C74.8044 136.555 74.8044 136.555 74.8044 136.555" fill="white"/>
<path d="M69.9763 136.74C69.9763 136.74 68.9374 137.91 69.7319 138.527C70.5263 139.143 72.2376 140.807 73.1543 139.944C74.071 139.081 75.0488 138.28 74.9266 137.417C74.8044 136.555 74.8044 136.555 74.8044 136.555" stroke="#192839" stroke-miterlimit="10" stroke-linecap="round" stroke-linejoin="round"/>
<path d="M68.144 142.963C68.144 142.963 72.2998 144.997 76.639 142.717C76.639 142.717 76.0278 148.078 72.4832 148.694C69.7941 149.187 68.144 142.963 68.144 142.963Z" fill="white" stroke="#192839" stroke-miterlimit="10" stroke-linecap="round" stroke-linejoin="round"/>
<path d="M74.3159 132.118C74.3159 132.118 76.8216 130.207 79.2051 130.824" stroke="#192839" stroke-miterlimit="10" stroke-linecap="round" stroke-linejoin="round"/>
<path d="M69.4266 132.364C69.4266 132.364 67.4098 130.577 64.293 131.439" stroke="#192839" stroke-miterlimit="10" stroke-linecap="round" stroke-linejoin="round"/>
<path d="M67.7149 135.137C68.1537 135.137 68.5094 134.558 68.5094 133.843C68.5094 133.128 68.1537 132.549 67.7149 132.549C67.2761 132.549 66.9204 133.128 66.9204 133.843C66.9204 134.558 67.2761 135.137 67.7149 135.137Z" fill="#192839"/>
<path d="M76.0879 134.891C76.5267 134.891 76.8824 134.311 76.8824 133.597C76.8824 132.882 76.5267 132.303 76.0879 132.303C75.6492 132.303 75.2935 132.882 75.2935 133.597C75.2935 134.311 75.6492 134.891 76.0879 134.891Z" fill="#192839"/>
<path d="M111.29 69.3857L112.207 72.3436L115.202 72.0355L112.696 73.7609L113.979 76.5955L111.535 74.7468L109.274 76.7804L110.313 73.8841L107.624 72.3436L110.679 72.4052L111.29 69.3857Z" fill="#192839"/>
<path d="M181.511 69.3857L182.367 72.3436L185.422 72.0355L182.917 73.7609L184.2 76.5955L181.756 74.7468L179.494 76.7804L180.472 73.8841L177.844 72.3436L180.9 72.4052L181.511 69.3857Z" fill="#192839"/>
<path d="M0.305664 249.691H283.695" stroke="#192839" stroke-miterlimit="10" stroke-linecap="round" stroke-linejoin="round"/>
</g>
<defs>
<clipPath id="clip0_2718_16489">
<rect width="284" height="250" fill="white"/>
</clipPath>
</defs>
</svg>
