<svg width="48" height="48" viewBox="0 0 48 48" fill="none" xmlns="http://www.w3.org/2000/svg">
<rect width="48" height="48" rx="24" fill="#CFE8FF"/>
<path d="M24 11C21.4288 11 18.9154 11.7624 16.7776 13.1909C14.6398 14.6194 12.9735 16.6497 11.9896 19.0251C11.0056 21.4006 10.7482 24.0144 11.2498 26.5362C11.7514 29.0579 12.9895 31.3743 14.8076 33.1924C16.6257 35.0105 18.9421 36.2486 21.4638 36.7502C23.9856 37.2518 26.5994 36.9944 28.9749 36.0104C31.3503 35.0265 33.3806 33.3602 34.8091 31.2224C36.2376 29.0846 37 26.5712 37 24C37 22.2928 36.6637 20.6023 36.0104 19.0251C35.3571 17.4479 34.3995 16.0148 33.1924 14.8076C31.9852 13.6004 30.5521 12.6429 28.9749 11.9896C27.3977 11.3363 25.7072 11 24 11ZM24 34.4C21.9431 34.4 19.9323 33.79 18.2221 32.6473C16.5118 31.5045 15.1788 29.8803 14.3917 27.9799C13.6045 26.0796 13.3986 23.9885 13.7998 21.9711C14.2011 19.9537 15.1916 18.1006 16.6461 16.6461C18.1006 15.1916 19.9537 14.2011 21.9711 13.7998C23.9885 13.3985 26.0796 13.6045 27.9799 14.3917C29.8803 15.1788 31.5045 16.5118 32.6473 18.2221C33.7901 19.9323 34.4 21.9431 34.4 24C34.4 26.7582 33.3043 29.4035 31.3539 31.3539C29.4035 33.3043 26.7583 34.4 24 34.4ZM29.2 22.7H25.3V18.8C25.3 18.4552 25.163 18.1246 24.9192 17.8808C24.6754 17.637 24.3448 17.5 24 17.5C23.6552 17.5 23.3246 17.637 23.0808 17.8808C22.837 18.1246 22.7 18.4552 22.7 18.8V22.7H18.8C18.4552 22.7 18.1246 22.837 17.8808 23.0808C17.637 23.3246 17.5 23.6552 17.5 24C17.5 24.3448 17.637 24.6754 17.8808 24.9192C18.1246 25.163 18.4552 25.3 18.8 25.3H22.7V29.2C22.7 29.5448 22.837 29.8754 23.0808 30.1192C23.3246 30.363 23.6552 30.5 24 30.5C24.3448 30.5 24.6754 30.363 24.9192 30.1192C25.163 29.8754 25.3 29.5448 25.3 29.2V25.3H29.2C29.5448 25.3 29.8754 25.163 30.1192 24.9192C30.363 24.6754 30.5 24.3448 30.5 24C30.5 23.6552 30.363 23.3246 30.1192 23.0808C29.8754 22.837 29.5448 22.7 29.2 22.7Z" fill="#0074DF"/>
</svg>
