<svg width="41" height="41" viewBox="0 0 41 41" fill="none" xmlns="http://www.w3.org/2000/svg">
<rect width="41" height="41" rx="8" fill="#CFE8FF"/>
<path d="M20.5002 11.4584C19.8717 11.4584 19.3622 11.9679 19.3622 12.5963V28.4036C19.3622 29.0321 19.8717 29.5415 20.5002 29.5415C21.1286 29.5415 21.6381 29.0321 21.6381 28.4036V12.5964C21.6381 11.9679 21.1286 11.4584 20.5002 11.4584Z" fill="#436CFF" stroke="#436CFF" stroke-width="0.3" stroke-linecap="round"/>
<path d="M12.5964 19.3617C11.9679 19.3617 11.4584 19.8712 11.4584 20.4997C11.4584 21.1281 11.9679 21.6376 12.5963 21.6376H28.4036C29.0321 21.6376 29.5415 21.1281 29.5415 20.4997C29.5415 19.8712 29.0321 19.3617 28.4036 19.3617H12.5964Z" fill="#436CFF" stroke="#436CFF" stroke-width="0.3" stroke-linecap="round"/>
</svg>
