<svg width="16" height="17" viewBox="0 0 16 17" fill="none" xmlns="http://www.w3.org/2000/svg">
<g clip-path="url(#clip0_3834_4504)">
<path d="M3.95467 4.09127L3.77231 4.81877L3.95467 4.09127ZM6.20437 2.79241L5.48317 2.58658L6.20437 2.79241ZM2.15899 7.20147L2.69784 6.6798L2.15899 7.20147ZM2.15899 9.79921L1.62014 9.27753H1.62014L2.15899 9.79921ZM3.95467 12.9094L4.13702 13.6369L3.95467 12.9094ZM6.20437 14.2083L5.48317 14.4141L6.20437 14.2083ZM9.79572 14.2083L10.5169 14.4141L9.79572 14.2083ZM12.0454 12.9094L12.2278 12.1819L12.0454 12.9094ZM13.8411 9.79921L13.3022 10.3209L13.8411 9.79921ZM13.8411 7.20147L13.3022 6.6798L13.8411 7.20147ZM12.0454 4.09127L11.8631 3.36378L12.0454 4.09127ZM9.79572 2.79241L10.5169 2.58658L9.79572 2.79241ZM3.77231 4.81877C5.14245 5.16221 6.53794 4.35653 6.92558 2.99823L5.48317 2.58658C5.31768 3.16645 4.72194 3.5104 4.13702 3.36378L3.77231 4.81877ZM2.69784 6.6798C1.91594 5.87215 2.68192 4.54545 3.77231 4.81877L4.13702 3.36378C1.58283 2.72354 -0.211412 5.83127 1.62014 7.72314L2.69784 6.6798ZM2.69784 10.3209C3.68034 9.30602 3.68035 7.69465 2.69784 6.6798L1.62014 7.72314C2.03958 8.15639 2.03958 8.84429 1.62014 9.27753L2.69784 10.3209ZM3.77231 12.1819C2.68192 12.4552 1.91594 11.1285 2.69784 10.3209L1.62014 9.27753C-0.211413 11.1694 1.58283 14.2771 4.13702 13.6369L3.77231 12.1819ZM6.92558 14.0024C6.53794 12.6441 5.14245 11.8385 3.77231 12.1819L4.13702 13.6369C4.72194 13.4903 5.31768 13.8342 5.48317 14.4141L6.92558 14.0024ZM9.07451 14.0024C8.76602 15.0834 7.23407 15.0834 6.92558 14.0024L5.48317 14.4141C6.2058 16.9462 9.79429 16.9462 10.5169 14.4141L9.07451 14.0024ZM12.2278 12.1819C10.8576 11.8385 9.46215 12.6441 9.07451 14.0024L10.5169 14.4141C10.6824 13.8342 11.2781 13.4903 11.8631 13.6369L12.2278 12.1819ZM13.3022 10.3209C14.0841 11.1285 13.3182 12.4552 12.2278 12.1819L11.8631 13.6369C14.4173 14.2771 16.2115 11.1694 14.3799 9.27753L13.3022 10.3209ZM13.3022 6.6798C12.3197 7.69465 12.3197 9.30602 13.3022 10.3209L14.3799 9.27753C13.9605 8.84429 13.9605 8.15639 14.3799 7.72314L13.3022 6.6798ZM12.2278 4.81877C13.3182 4.54545 14.0841 5.87215 13.3022 6.6798L14.3799 7.72314C16.2115 5.83127 14.4173 2.72354 11.8631 3.36378L12.2278 4.81877ZM9.07451 2.99823C9.46215 4.35653 10.8576 5.16221 12.2278 4.81877L11.8631 3.36378C11.2781 3.5104 10.6824 3.16645 10.5169 2.58658L9.07451 2.99823ZM10.5169 2.58658C9.79429 0.0544717 6.2058 0.0544728 5.48317 2.58658L6.92558 2.99823C7.23407 1.91726 8.76602 1.91726 9.07451 2.99823L10.5169 2.58658ZM5.25004 8.50034C5.25004 10.0191 6.48126 11.2503 8.00004 11.2503V9.75034C7.30969 9.75034 6.75004 9.19069 6.75004 8.50034H5.25004ZM8.00004 11.2503C9.51883 11.2503 10.75 10.0191 10.75 8.50034H9.25004C9.25004 9.19069 8.6904 9.75034 8.00004 9.75034V11.2503ZM10.75 8.50034C10.75 6.98155 9.51883 5.75034 8.00004 5.75034V7.25034C8.6904 7.25034 9.25004 7.80998 9.25004 8.50034H10.75ZM8.00004 5.75034C6.48126 5.75034 5.25004 6.98155 5.25004 8.50034H6.75004C6.75004 7.80998 7.30969 7.25034 8.00004 7.25034V5.75034Z" fill="#192839"/>
</g>
<defs>
<clipPath id="clip0_3834_4504">
<rect width="16" height="16" fill="white" transform="translate(0 0.5)"/>
</clipPath>
</defs>
</svg>
