<svg width="32" height="32" viewBox="0 0 32 32" fill="none" xmlns="http://www.w3.org/2000/svg">
<path d="M20.0001 13.3337L17.3048 16.6787C16.2367 18.0042 15.7027 18.667 15.0001 18.667C14.2976 18.667 13.7635 18.0042 12.6955 16.6787L12.0001 15.8158M25.1855 21.3337C27.3212 17.4415 27.8695 13.0001 27.9774 10.1829C28.0392 8.56905 26.7061 7.33366 25.0911 7.33366H24.3053C23.0166 7.33366 21.972 6.28899 21.972 5.00033C21.972 3.71166 20.9273 2.66699 19.6386 2.66699H12.7506C11.2472 2.66699 10.0284 3.88577 10.0284 5.38921C10.0284 6.89266 8.80962 8.11144 7.30618 8.11144H6.89436C5.28357 8.11144 3.95259 9.33647 4.0338 10.9452C4.16512 13.5464 4.74311 17.5581 6.81487 21.3337C7.37836 22.3606 8.14366 23.391 8.99356 24.373C11.6334 27.423 12.9534 28.948 16.0002 28.948C19.047 28.948 20.3669 27.423 23.0068 24.373C23.8567 23.391 24.622 22.3606 25.1855 21.3337Z" stroke="#436CFF" stroke-width="2.5" stroke-linecap="round"/>
</svg>
