<svg width="24" height="24" viewBox="0 0 24 24" fill="none" xmlns="http://www.w3.org/2000/svg">
<path d="M17.6569 6.3427C17.2664 5.95217 16.6332 5.95217 16.2427 6.3427L12 10.5853L7.7574 6.3427C7.36688 5.95217 6.73371 5.95217 6.34319 6.3427C5.95266 6.73322 5.95266 7.36639 6.34319 7.75691L10.5858 11.9996L6.34319 16.2422C5.95266 16.6327 5.95266 17.2659 6.34319 17.6564C6.73371 18.0469 7.36688 18.0469 7.7574 17.6564L12 13.4138L16.2427 17.6564C16.6332 18.0469 17.2664 18.0469 17.6569 17.6564C18.0474 17.2659 18.0474 16.6327 17.6569 16.2422L13.4143 11.9996L17.6569 7.75691C18.0474 7.36639 18.0474 6.73322 17.6569 6.3427Z" fill="#98A3B2"/>
</svg>
