<svg width="24" height="24" viewBox="0 0 24 24" fill="none" xmlns="http://www.w3.org/2000/svg">
<path d="
  M12 2.0001C10.1311 1.99176 8.29724 2.50731 6.70647 3.48829C5.11569 4.46927 3.83165 5.87641 3 7.5501C2.88065 7.78879 2.86101 8.06512 2.94541 8.3183C3.0298 8.57147 3.21131 8.78075 3.45 8.9001C3.68869 9.01945 3.96502 9.03909 4.2182 8.95469C4.47137 8.8703 4.68065 8.68879 4.8 8.4501C5.43219 7.17342 6.39383 6.08872 7.58555 5.30809C8.77727 4.52746 10.1558 4.07922 11.5788 4.00969C13.0017 3.94017 14.4174 4.25188 15.6795 4.91261C16.9417 5.57334 18.0045 6.55913 18.7581 7.7681C19.5118 8.97706 19.9289 10.3653 19.9664 11.7895C20.0039 13.2136 19.6605 14.6219 18.9715 15.8689C18.2826 17.1159 17.2731 18.1563 16.0475 18.8825C14.8219 19.6088 13.4246 19.9946 12 20.0001C10.5089 20.0066 9.04615 19.5925 7.77969 18.8053C6.51323 18.0182 5.49435 16.89 4.84 15.5501C4.72065 15.3114 4.51137 15.1299 4.2582 15.0455C4.00502 14.9611 3.72869 14.9808 3.49 15.1001C3.25131 15.2194 3.0698 15.4287 2.98541 15.6819C2.90101 15.9351 2.92065 16.2114 3.04 16.4501C3.83283 18.0456 5.03752 19.4003 6.52947 20.3741C8.02142 21.348 9.74645 21.9055 11.5261 21.9891C13.3058 22.0727 15.0755 21.6793 16.6521 20.8496C18.2288 20.0199 19.5552 18.7841 20.4941 17.2699C21.433 15.7558 21.9503 14.0182 21.9925 12.2371C22.0347 10.456 21.6003 8.69589 20.7342 7.13893C19.8682 5.58197 18.6018 4.28467 17.0663 3.38121C15.5307 2.47774 13.7816 2.00094 12 2.0001Z
" fill="#436CFF"/>
</svg>
