<svg width="32" height="32" viewBox="0 0 32 32" fill="none" xmlns="http://www.w3.org/2000/svg">
<path d="M18.75 10.333C18.75 11.8518 17.5188 13.083 16 13.083V15.583C18.8995 15.583 21.25 13.2325 21.25 10.333H18.75ZM16 13.083C14.4812 13.083 13.25 11.8518 13.25 10.333H10.75C10.75 13.2325 13.1005 15.583 16 15.583V13.083ZM13.25 10.333C13.25 8.81422 14.4812 7.58301 16 7.58301V5.08301C13.1005 5.08301 10.75 7.43351 10.75 10.333H13.25ZM16 7.58301C17.5188 7.58301 18.75 8.81422 18.75 10.333H21.25C21.25 7.43351 18.8995 5.08301 16 5.08301V7.58301ZM12 19.583H20V17.083H12V19.583ZM20 25.083H12V27.583H20V25.083ZM12 25.083C10.4812 25.083 9.25 23.8518 9.25 22.333H6.75C6.75 25.2325 9.10051 27.583 12 27.583V25.083ZM22.75 22.333C22.75 23.8518 21.5188 25.083 20 25.083V27.583C22.8995 27.583 25.25 25.2325 25.25 22.333H22.75ZM20 19.583C21.5188 19.583 22.75 20.8142 22.75 22.333H25.25C25.25 19.4335 22.8995 17.083 20 17.083V19.583ZM12 17.083C9.10051 17.083 6.75 19.4335 6.75 22.333H9.25C9.25 20.8142 10.4812 19.583 12 19.583V17.083Z" fill="#436CFF"/>
<path d="M10.3361 13.8512C10.1258 13.5134 9.7312 13.333 9.33325 13.333C7.6764 13.333 6.33325 11.9899 6.33325 10.333C6.33325 8.67615 7.6764 7.33301 9.33325 7.33301C9.7312 7.33301 10.1258 7.15264 10.3361 6.8148C10.3454 6.79986 10.3548 6.78496 10.3642 6.7701C10.7143 6.21742 10.5369 5.43488 9.88659 5.36328C9.7049 5.34328 9.52027 5.33301 9.33325 5.33301C6.57183 5.33301 4.33325 7.57158 4.33325 10.333C4.33325 13.0944 6.57183 15.333 9.33325 15.333C9.52027 15.333 9.7049 15.3227 9.88659 15.3027C10.5369 15.2311 10.7143 14.4486 10.3642 13.8959C10.3548 13.8811 10.3454 13.8662 10.3361 13.8512Z" fill="#436CFF"/>
<path d="M6.27764 24.4222C6.12628 24.1696 5.85911 23.9997 5.5647 23.9997H5.33325C3.6764 23.9997 2.33325 22.6565 2.33325 20.9997C2.33325 19.3428 3.6764 17.9997 5.33325 17.9997H5.5647C5.85911 17.9997 6.12628 17.8297 6.27764 17.5772C6.64711 16.9608 6.24617 15.9997 5.52751 15.9997H5.33325C2.57183 15.9997 0.333252 18.2382 0.333252 20.9997C0.333252 23.7611 2.57183 25.9997 5.33325 25.9997H5.52751C6.24617 25.9997 6.64711 25.0386 6.27764 24.4222Z" fill="#436CFF"/>
<path d="M21.6357 13.8959C21.2855 14.4486 21.4629 15.2311 22.1132 15.3027C22.2949 15.3227 22.4796 15.333 22.6666 15.333C25.428 15.333 27.6666 13.0944 27.6666 10.333C27.6666 7.57158 25.428 5.33301 22.6666 5.33301C22.4796 5.33301 22.2949 5.34328 22.1132 5.36328C21.4629 5.43488 21.2855 6.21742 21.6357 6.7701C21.6451 6.78496 21.6544 6.79986 21.6637 6.8148C21.874 7.15264 22.2686 7.33301 22.6666 7.33301C24.3234 7.33301 25.6666 8.67615 25.6666 10.333C25.6666 11.9899 24.3234 13.333 22.6666 13.333C22.2686 13.333 21.874 13.5134 21.6637 13.8512C21.6544 13.8662 21.6451 13.8811 21.6357 13.8959Z" fill="#436CFF"/>
<path d="M25.7222 24.4222C25.3527 25.0386 25.7537 25.9997 26.4723 25.9997H26.6666C29.428 25.9997 31.6666 23.7611 31.6666 20.9997C31.6666 18.2382 29.428 15.9997 26.6666 15.9997H26.4723C25.7537 15.9997 25.3527 16.9608 25.7222 17.5772C25.8736 17.8297 26.1407 17.9997 26.4351 17.9997H26.6666C28.3234 17.9997 29.6666 19.3428 29.6666 20.9997C29.6666 22.6565 28.3234 23.9997 26.6666 23.9997H26.4351C26.1407 23.9997 25.8736 24.1696 25.7222 24.4222Z" fill="#436CFF"/>
</svg>
