<svg width="24" height="24" viewBox="0 0 24 24" fill="none" xmlns="http://www.w3.org/2000/svg">
<circle cx="11.5" cy="11.5" r="10.5" fill="#436CFF"/>
<path d="M9.08049 17C7.57852 17 6.17844 16.55 5 15.7736C6.00053 15.8402 7.76625 15.6805 8.86452 14.6014C7.21236 14.5233 6.46726 13.2181 6.37008 12.6602C6.51046 12.716 7.17996 12.783 7.55791 12.6268C5.65738 12.1359 5.36582 10.4179 5.43061 9.89351C5.78696 10.1501 6.39168 10.2394 6.62924 10.217C4.8583 8.91176 5.4954 6.94828 5.80856 6.52434C7.07945 8.33806 8.98413 9.35671 11.3405 9.41337C11.296 9.21265 11.2726 9.00368 11.2726 8.78905C11.2726 7.2487 12.4812 6 13.9722 6C14.7512 6 15.4531 6.34088 15.9459 6.88614C16.4664 6.76049 17.2499 6.46634 17.6329 6.21197C17.4398 6.92596 16.8388 7.52158 16.4752 7.74234C16.4723 7.7348 16.4783 7.74985 16.4752 7.74234C16.7946 7.69258 17.6587 7.52152 18 7.28296C17.8312 7.68408 17.194 8.351 16.6711 8.72438C16.7684 13.1443 13.4855 17 9.08049 17Z" fill="white"/>
</svg>
