<svg width="28" height="28" viewBox="0 0 28 28" fill="none" xmlns="http://www.w3.org/2000/svg">
<rect width="28" height="28" rx="14" fill="#CFE8FF"/>
<path d="M21.3274 8.63363C21.3275 8.51588 21.2964 8.40021 21.2372 8.2984C21.1781 8.19659 21.093 8.11228 20.9906 8.05405C20.8883 7.99583 20.7723 7.96577 20.6545 7.96694C20.5368 7.96811 20.4215 8.00047 20.3203 8.06071C19.9301 8.29297 19.51 8.47084 19.0716 8.58938C18.4456 8.0522 17.6472 7.75825 16.8223 7.76125C15.9173 7.7623 15.0482 8.11498 14.3984 8.74484C13.7486 9.3747 13.3691 10.2324 13.3399 11.1369C11.5559 10.8524 9.93895 9.92126 8.7975 8.521C8.72872 8.43756 8.64089 8.37188 8.54141 8.3295C8.44192 8.28712 8.33371 8.26928 8.22589 8.2775C8.11813 8.28637 8.01415 8.32136 7.92295 8.37944C7.83175 8.43752 7.75606 8.51694 7.70245 8.61083C7.42746 9.09071 7.26953 9.62867 7.24148 10.181C7.21342 10.7334 7.31604 11.2846 7.54099 11.7899L7.53969 11.7912C7.43858 11.8534 7.35515 11.9406 7.29736 12.0443C7.23956 12.1481 7.20935 12.2649 7.20961 12.3836C7.20838 12.4816 7.21426 12.5795 7.22719 12.6766C7.29528 13.5154 7.66704 14.3006 8.27276 14.8849C8.23167 14.9632 8.20659 15.0489 8.19899 15.137C8.19139 15.2251 8.20141 15.3138 8.22849 15.3979C8.49256 16.2207 9.05415 16.9153 9.80336 17.3459C9.04219 17.6402 8.22031 17.7428 7.41013 17.6447C7.26017 17.6259 7.10828 17.6586 6.97936 17.7374C6.85044 17.8163 6.75214 17.9366 6.7006 18.0787C6.64906 18.2208 6.64733 18.3761 6.6957 18.5193C6.74407 18.6625 6.83966 18.785 6.96679 18.8667C8.36019 19.7641 9.98258 20.2413 11.64 20.2411C13.5195 20.2622 15.3533 19.6616 16.8561 18.5327C18.359 17.4038 19.4466 15.8098 19.9498 13.9988C20.1852 13.2099 20.3054 12.3911 20.3066 11.5679C20.3066 11.5243 20.3066 11.4793 20.306 11.4344C20.654 11.059 20.9237 10.6179 21.0991 10.137C21.2745 9.65607 21.3521 9.14496 21.3274 8.63363ZM19.123 10.7749C19.0129 10.9051 18.9572 11.0728 18.9674 11.243C18.9739 11.353 18.9733 11.4637 18.9733 11.5679C18.9719 12.2636 18.8699 12.9554 18.6705 13.6219C18.2595 15.1628 17.3433 16.5213 16.0686 17.4796C14.7939 18.438 13.2344 18.9409 11.64 18.9077C11.0672 18.9079 10.4965 18.8406 9.93945 18.7072C10.6497 18.4783 11.3138 18.1254 11.901 17.6649C12.0092 17.5797 12.0883 17.4632 12.1276 17.3313C12.1669 17.1993 12.1644 17.0585 12.1205 16.928C12.0766 16.7976 11.9933 16.6839 11.8822 16.6027C11.7711 16.5214 11.6376 16.4765 11.5 16.4741C10.9459 16.4655 10.4167 16.2421 10.0241 15.8511C10.1237 15.8322 10.2226 15.8088 10.3209 15.7808C10.4649 15.7398 10.591 15.6515 10.6787 15.5302C10.7665 15.4089 10.8108 15.2615 10.8047 15.1119C10.7985 14.9623 10.7422 14.8192 10.6447 14.7055C10.5473 14.5918 10.4144 14.5142 10.2676 14.4852C9.94591 14.4217 9.64325 14.2848 9.3831 14.0853C9.12294 13.8858 8.9123 13.629 8.76755 13.3348C8.88804 13.3512 9.00929 13.3615 9.13083 13.3654C9.27522 13.3676 9.41656 13.3238 9.53442 13.2403C9.65227 13.1569 9.74053 13.0381 9.78643 12.9012C9.83042 12.763 9.82816 12.6143 9.77999 12.4776C9.73182 12.3408 9.64037 12.2235 9.51951 12.1434C9.22627 11.948 8.98607 11.683 8.82041 11.372C8.65475 11.0611 8.56881 10.7138 8.57029 10.3615C8.57029 10.3172 8.57159 10.273 8.57419 10.2293C10.0684 11.6228 12.0064 12.4443 14.0469 12.549C14.1499 12.5531 14.2524 12.5337 14.3468 12.4923C14.4412 12.4509 14.525 12.3886 14.5918 12.3101C14.6579 12.2308 14.7047 12.1373 14.7286 12.0368C14.7524 11.9364 14.7526 11.8318 14.7291 11.7313C14.691 11.5722 14.6715 11.4092 14.6712 11.2456C14.6718 10.6753 14.8986 10.1285 15.3019 9.72526C15.7052 9.32199 16.2519 9.09517 16.8222 9.09457C17.1157 9.09378 17.4061 9.15383 17.6751 9.27093C17.9442 9.38803 18.186 9.55963 18.3854 9.77491C18.4623 9.85763 18.5591 9.9193 18.6665 9.95406C18.774 9.98882 18.8885 9.99552 18.9993 9.9735C19.2732 9.9202 19.5431 9.84843 19.8073 9.75866C19.6271 10.1273 19.3968 10.4693 19.123 10.7749Z" fill="#436CFF"/>
</svg>
