<svg width="16" height="17" viewBox="0 0 16 17" fill="none" xmlns="http://www.w3.org/2000/svg">
<path d="M8.20008 8.64634C8.5558 8.33843 8.84111 7.9576 9.03666 7.52969C9.23221 7.10178 9.33342 6.63681 9.33342 6.16634C9.33342 5.28229 8.98223 4.43444 8.3571 3.80932C7.73198 3.1842 6.88414 2.83301 6.00008 2.83301C5.11603 2.83301 4.26818 3.1842 3.64306 3.80932C3.01794 4.43444 2.66675 5.28229 2.66675 6.16634C2.66674 6.63681 2.76795 7.10178 2.9635 7.52969C3.15905 7.9576 3.44436 8.33843 3.80008 8.64634C2.86684 9.06893 2.07506 9.75136 1.5194 10.612C0.963745 11.4727 0.667729 12.4752 0.666748 13.4997C0.666748 13.6765 0.736986 13.8461 0.86201 13.9711C0.987034 14.0961 1.1566 14.1663 1.33341 14.1663C1.51023 14.1663 1.6798 14.0961 1.80482 13.9711C1.92984 13.8461 2.00008 13.6765 2.00008 13.4997C2.00008 12.4388 2.42151 11.4214 3.17165 10.6712C3.9218 9.9211 4.93922 9.49967 6.00008 9.49967C7.06095 9.49967 8.07836 9.9211 8.82851 10.6712C9.57865 11.4214 10.0001 12.4388 10.0001 13.4997C10.0001 13.6765 10.0703 13.8461 10.1953 13.9711C10.3204 14.0961 10.4899 14.1663 10.6667 14.1663C10.8436 14.1663 11.0131 14.0961 11.1382 13.9711C11.2632 13.8461 11.3334 13.6765 11.3334 13.4997C11.3324 12.4752 11.0364 11.4727 10.4808 10.612C9.92511 9.75136 9.13332 9.06893 8.20008 8.64634ZM6.00008 8.16634C5.60452 8.16634 5.21784 8.04904 4.88894 7.82928C4.56004 7.60952 4.3037 7.29716 4.15232 6.93171C4.00095 6.56626 3.96134 6.16412 4.03851 5.77616C4.11568 5.3882 4.30616 5.03183 4.58587 4.75213C4.86557 4.47242 5.22194 4.28194 5.6099 4.20477C5.99786 4.1276 6.4 4.16721 6.76545 4.31858C7.1309 4.46996 7.44326 4.7263 7.66302 5.0552C7.88278 5.3841 8.00008 5.77078 8.00008 6.16634C8.00008 6.69677 7.78937 7.20548 7.4143 7.58055C7.03922 7.95563 6.53051 8.16634 6.00008 8.16634ZM12.4934 8.37967C12.9201 7.89923 13.1988 7.30571 13.2959 6.67057C13.3931 6.03542 13.3047 5.38572 13.0413 4.79967C12.7778 4.21363 12.3506 3.7162 11.8111 3.36729C11.2715 3.01837 10.6426 2.83284 10.0001 2.83301C9.82327 2.83301 9.6537 2.90325 9.52868 3.02827C9.40365 3.15329 9.33342 3.32286 9.33342 3.49967C9.33342 3.67649 9.40365 3.84605 9.52868 3.97108C9.6537 4.0961 9.82327 4.16634 10.0001 4.16634C10.5305 4.16634 11.0392 4.37705 11.4143 4.75213C11.7894 5.1272 12.0001 5.63591 12.0001 6.16634C11.9991 6.5165 11.9063 6.86028 11.7308 7.16329C11.5553 7.4663 11.3033 7.71793 11.0001 7.89301C10.9012 7.95002 10.8187 8.03145 10.7603 8.1295C10.702 8.22755 10.6697 8.33894 10.6667 8.45301C10.664 8.56618 10.69 8.67821 10.7425 8.77851C10.795 8.87882 10.8722 8.96411 10.9667 9.02634L11.2267 9.19967L11.3134 9.24634C12.117 9.62749 12.795 10.2303 13.2674 10.9839C13.7398 11.7374 13.9871 12.6103 13.9801 13.4997C13.9801 13.6765 14.0503 13.8461 14.1753 13.9711C14.3004 14.0961 14.4699 14.1663 14.6467 14.1663C14.8236 14.1663 14.9931 14.0961 15.1182 13.9711C15.2432 13.8461 15.3134 13.6765 15.3134 13.4997C15.3189 12.4766 15.0626 11.4692 14.5691 10.573C14.0755 9.67692 13.361 8.92188 12.4934 8.37967Z" fill="#192839"/>
</svg>
