<svg width="16" height="16" viewBox="0 0 16 16" fill="none" xmlns="http://www.w3.org/2000/svg">
<path d="M13.5312 16C13.1861 16 12.9062 15.7202 12.9062 15.375C12.9062 12.9282 10.9156 10.9375 8.46875 10.9375H7.53125C5.08441 10.9375 3.09375 12.9282 3.09375 15.375C3.09375 15.7202 2.81394 16 2.46875 16C2.12356 16 1.84375 15.7202 1.84375 15.375C1.84375 12.2389 4.39516 9.6875 7.53125 9.6875H8.46875C11.6048 9.6875 14.1562 12.2389 14.1562 15.375C14.1562 15.7202 13.8764 16 13.5312 16Z" fill="#192839"/>
<path d="M7.9375 8.4375C5.61128 8.4375 3.71875 6.54497 3.71875 4.21875C3.71875 1.89253 5.61128 0 7.9375 0C10.2637 0 12.1562 1.89253 12.1562 4.21875C12.1562 6.54497 10.2637 8.4375 7.9375 8.4375ZM7.9375 1.25C6.30053 1.25 4.96875 2.58178 4.96875 4.21875C4.96875 5.85572 6.30053 7.1875 7.9375 7.1875C9.57447 7.1875 10.9062 5.85572 10.9062 4.21875C10.9062 2.58178 9.57447 1.25 7.9375 1.25Z" fill="#192839"/>
</svg>
