<svg width="24" height="24" viewBox="0 0 24 24" fill="none" xmlns="http://www.w3.org/2000/svg">
<path fill="#192839" stroke="#192839" stroke-width="0.3" d="M21.7027 15.1272L21.7031 15.1271C22.0783 15.0396 22.3568 14.7241 22.3953 14.3399L22.3953 14.3399L22.3956 14.3357L22.8955 7.33774C22.92 7.08542 22.8372 6.83433 22.6672 6.64638C22.4969 6.45804 22.2545 6.35 22 6.35H17.5C17.1121 6.35 16.7692 6.59856 16.6458 6.96515L16.6457 6.96557L16.3509 7.85H14.4813L13.7489 6.75093C13.582 6.49999 13.301 6.35 13 6.35H8.5C6.44428 6.35 4.5928 7.44119 3.25977 9.02815C1.92687 10.615 1.1 12.711 1.1 14.75C1.1 18.8338 4.41616 22.15 8.5 22.15C10.4233 22.15 12.1863 21.6621 13.511 20.692C14.8135 19.7382 15.6839 18.3236 15.8647 16.4737L21.7027 15.1272ZM14.7973 14.8728L14.7971 14.8729C14.3892 14.9677 14.1 15.3311 14.1 15.75C14.1 17.2912 13.4771 18.4341 12.4745 19.1958C11.467 19.9613 10.0645 20.35 8.5 20.35C5.40884 20.35 2.9 17.8412 2.9 14.75C2.9 13.2008 3.52992 11.5459 4.55152 10.2789C5.57329 9.01169 6.97159 8.15 8.5 8.15H12.5187L13.2511 9.24907C13.418 9.50001 13.699 9.65 14 9.65H17C17.3879 9.65 17.7308 9.40144 17.8542 9.03485L17.8543 9.03443L18.1491 8.15H21.011L20.6645 13.5189L14.7973 14.8728Z"/>
<path fill="#192839" stroke="#192839" stroke-width="0.2" d="M8.5 10.9C6.51277 10.9 4.9 12.5128 4.9 14.5C4.9 16.4872 6.51277 18.1 8.5 18.1C10.4872 18.1 12.1 16.4872 12.1 14.5C12.1 12.5128 10.4872 10.9 8.5 10.9ZM8.5 12.7154C9.48508 12.7154 10.2846 13.5149 10.2846 14.5C10.2846 15.4851 9.48508 16.2846 8.5 16.2846C7.51492 16.2846 6.71538 15.4851 6.71538 14.5C6.71538 13.5149 7.51492 12.7154 8.5 12.7154Z"/>
</svg>
